<?xml version="1.0" encoding="utf-8"?>
<!-- Generator: Adobe Illustrator 28.0.0, SVG Export Plug-In . SVG Version: 6.00 Build 0)  -->
<svg version="1.1" id="Calque_1" xmlns="http://www.w3.org/2000/svg" xmlns:xlink="http://www.w3.org/1999/xlink" x="0px" y="0px"
	 viewBox="0 0 500 500" style="enable-background:new 0 0 500 500;" xml:space="preserve">
<style type="text/css">
	.st0{fill:none;}
	.st1{fill:none;stroke:#FCBC00;stroke-width:0.3493;}
	.st2{fill:url(#SVGID_0000006002183134213359064);}
</style>
<pattern  width="34" height="34" patternUnits="userSpaceOnUse" id="SVGID_0000006002183134213359064" viewBox="7.3 -40.8 34 34" style="overflow:visible;">
	<g>
		<rect x="7.3" y="-40.8" class="st0" width="34" height="34"/>
		<g>
			<rect x="7.3" y="-40.8" class="st0" width="34" height="34"/>
			<g>
				<rect x="7.3" y="-40.8" class="st0" width="34" height="34"/>
				<g>
					<path class="st1" d="M16.5-30.4c0,0,1.8-0.8,2.1,1c0.3,1.8,1.2,1.6,2.2,1s2.1-0.3,2.4,1.1"/>
					<path class="st1" d="M41-24.3c0,0-1.2,1.5-2.3,0.1s-1.8-0.9-2.5,0.1s-1.7,1.3-2.6,0.1"/>
					<path class="st1" d="M28.4-24.1c0,0-1.8-0.8-0.7-2.2c1.1-1.4,0.4-2-0.7-2.4s-1.7-1.4-0.8-2.5"/>
					<path class="st1" d="M29.4-26.1c0,0,1.9-0.4,1.1-2s0-2,1.2-2.2c1.2-0.1,1.9-1,1.3-2.3"/>
					<path class="st1" d="M35.9-30.7c0,0,1.9-0.4,1.1-2c-0.8-1.6,0-2,1.2-2.2c1.2-0.1,1.9-1,1.2-2.3"/>
					<path class="st1" d="M23-21.7c0,0,1.7-0.9,0.5-2.2c-1.2-1.3-0.6-2,0.5-2.4c1.1-0.5,1.6-1.5,0.6-2.6"/>
					<path class="st1" d="M15.1-27c0,0,0.6,1.9-1.2,2s-1.8,1-1.3,2.1s0.1,2.1-1.4,2.2"/>
					<path class="st1" d="M13.8-18.5c0,0-0.9-1.7,0.8-2.2s1.5-1.3,0.9-2.3c-0.7-1-0.5-2.1,0.9-2.5"/>
					<path class="st1" d="M19.8-29.7c0,0,0.6-1.8,2.1-0.9c1.5,0.9,2,0.2,2.3-0.9c0.3-1.2,1.2-1.8,2.5-1"/>
					<path class="st1" d="M16-16.9c0,0-0.8-1.8,0.9-2.1s1.6-1.2,1-2.2s-0.4-2.1,1.1-2.4"/>
					<path class="st1" d="M21.4-19.6c0,0-1.6-1.1-0.2-2.3c1.4-1.2,0.8-1.9-0.2-2.5S19.6-26,20.7-27"/>
					<path class="st1" d="M15.4-9.9c0,0,0.1-1.9,1.9-1.4s2-0.3,2-1.5s0.7-2,2.1-1.6"/>
					<path class="st1" d="M24-13c0,0-0.2,1.9-1.9,1.3c-1.7-0.6-2,0.2-2,1.4s-0.8,2-2.1,1.5"/>
					<path class="st1" d="M19.4-24.9c0,0-1.9,0.1-1.6-1.7s-0.5-2-1.7-1.8s-2.1-0.5-1.8-1.9"/>
					<path class="st1" d="M25.5-24.6c0,0-0.7,1.8,1.1,2c1.8,0.2,1.7,1.1,1.2,2.2s-0.2,2.1,1.3,2.3"/>
					<path class="st1" d="M11.8-16.4c0,0,0.9,1.7,2.2,0.5c1.4-1.2,2-0.5,2.4,0.6s1.5,1.6,2.6,0.6"/>
					<path class="st1" d="M40.3-33c0,0,1.2,1.6-0.5,2.2c-1.7,0.7-1.3,1.5-0.6,2.4c0.8,0.9,0.8,2-0.6,2.6"/>
					<path class="st1" d="M38.2-31c0,0-1.9,0.4-1.1,2c0.8,1.6,0,2-1.2,2.2s-1.9,1-1.3,2.3"/>
					<path class="st1" d="M18.2-37.3c0,0,1.9,0.1,1.4,1.8s0.3,2,1.5,2s2,0.7,1.6,2.1"/>
					<path class="st1" d="M28.6-30.3c0,0-1.9-0.5-1-2.1c0.9-1.6,0.1-2-1.1-2.2s-1.9-1-1.2-2.3"/>
					<path class="st1" d="M18.7-34c0,0-1.9-0.6-2,1.2s-1,1.8-2.1,1.3s-2.2-0.1-2.2,1.4"/>
					<path class="st1" d="M14.2-7.8c0,0,0.4,1.9-1.4,1.9S11-5,11.3-3.9s-0.1,2.2-1.6,2.1"/>
					<path class="st1" d="M43-22c0,0-1.1,1.6-2.3,0.3c-1.2-1.3-1.9-0.7-2.5,0.3c-0.5,1-1.6,1.4-2.6,0.4"/>
					<path class="st1" d="M33.7-36.9c0,0,0.5,1.9-1.4,1.9s-1.8,0.9-1.5,2c0.4,1.1-0.1,2.1-1.6,2.1"/>
					<path class="st1" d="M30.7-22.8c0,0-0.8-1.8,1-2.1c1.8-0.3,1.7-1.2,1.1-2.2c-0.6-1-0.3-2.1,1.2-2.4"/>
					<path class="st1" d="M45.1-22c0,0-1.9-0.2-1.3-1.9c0.6-1.7-0.2-2-1.4-2s-2-0.8-1.5-2.2"/>
					<path class="st1" d="M39.2-19.8c0,0,1.6-1.1,2.2,0.6c0.6,1.7,1.5,1.4,2.4,0.7c0.9-0.8,2-0.7,2.5,0.7"/>
					<path class="st1" d="M43.6-8.4c0,0-0.3,1.9-2,1.2c-1.6-0.8-2,0-2.1,1.2s-0.9,1.9-2.3,1.3"/>
					<path class="st1" d="M23.7-17.2c0,0,1.9,0.3,1.3,1.9s0.2,2,1.3,2.1c1.2,0,2,0.8,1.4,2.2"/>
					<path class="st1" d="M17.1-17.4c0,0,0.6,1.9,2.1,0.9c1.5-0.9,2-0.2,2.3,1c0.2,1.2,1.1,1.8,2.4,1.1"/>
					<path class="st1" d="M11.1-9.7c0,0,0.6,1.9,2.1,0.9s2-0.2,2.3,1c0.2,1.2,1.1,1.8,2.4,1.1"/>
					<path class="st1" d="M27.9-5.5c0,0,1.9-0.2,1.3-1.9s0.3-2,1.5-2s2-0.8,1.5-2.1"/>
					<path class="st1" d="M26.3-9.7c0,0,1.5,1.2,0,2.3s-0.9,1.8,0,2.5c1,0.7,1.2,1.8,0,2.6"/>
					<path class="st1" d="M33.9-8c0,0-1.6-1.1-0.2-2.3s0.8-1.9-0.2-2.5s-1.3-1.7-0.2-2.6"/>
					<path class="st1" d="M36.3-10c0,0,1.3-1.4,2.3,0.1s1.8,1,2.5,0.1s1.8-1.1,2.6,0.1"/>
					<path class="st1" d="M29-22.5c0,0,1.9,0.1,1.4,1.8c-0.5,1.7,0.3,2,1.5,2c1.2,0,2,0.7,1.6,2.1"/>
					<path class="st1" d="M25-18.8c0,0-0.2,1.9,1.6,1.7c1.8-0.3,1.9,0.6,1.7,1.8c-0.2,1.2,0.4,2.1,1.8,1.9"/>
					<path class="st1" d="M19.3-17.7c0,0,0.5-1.9,2.1-1s2,0.1,2.2-1.1s1.1-1.9,2.4-1.1"/>
					<path class="st1" d="M10.8-31.5c0,0,1.9-0.1,1.4-1.8c-0.5-1.7,0.3-2,1.5-2s2-0.7,1.6-2.1"/>
					<path class="st1" d="M26.9-10.8c0,0-1.8-0.8-2.1,1s-1.2,1.6-2.2,1.1c-1-0.6-2.1-0.3-2.4,1.2"/>
					<path class="st1" d="M41.8-14.9c0,0-0.5,1.9-2.1,1c-1.6-0.9-2-0.1-2.2,1.1c-0.2,1.2-1.1,1.9-2.4,1.2"/>
					<path class="st1" d="M38-9.3c0,0-0.1,1.9-1.8,1.5c-1.7-0.5-2,0.4-1.9,1.5c0.1,1.2-0.6,2.1-2,1.7"/>
					<path class="st1" d="M34.2-15.3c0,0,0.9-1.7,2.3-0.5c1.3,1.2,1.9,0.6,2.4-0.5s1.5-1.5,2.6-0.5"/>
					<path class="st1" d="M29.5-10.1c0,0-0.9-1.7,0.8-2.1c1.8-0.4,1.5-1.3,0.9-2.3s-0.5-2.1,1-2.5"/>
					<path class="st1" d="M31.9-21.8c0,0,1.9-0.4,1.8,1.4s0.8,1.9,1.9,1.5s2.2,0.2,2.1,1.6"/>
					<path class="st1" d="M41.3-31.7c0,0,1.9-0.2,1.7,1.5c-0.2,1.8,0.7,1.9,1.8,1.7c1.2-0.3,2.1,0.3,2,1.8"/>
					<path class="st1" d="M40.6-12.6c0,0,1.1,1.6,2.3,0.2c1.2-1.4,1.9-0.8,2.5,0.2s1.7,1.4,2.6,0.2"/>
					<path class="st1" d="M31.4-8.4c0,0-1.7,0.9-0.5,2.2c1.2,1.4,0.5,2-0.6,2.4s-1.6,1.4-0.6,2.6"/>
					<path class="st1" d="M23.4-0.2c0,0-1.7-1-0.4-2.3c1.3-1.3,0.7-1.9-0.4-2.4s-1.5-1.6-0.4-2.6"/>
					<path class="st1" d="M19.6-7c0,0,0.6,1.9-1.2,1.9c-1.8,0.1-1.8,1-1.3,2.1c0.4,1.1,0,2.1-1.4,2.2"/>
				</g>
				<g>
					<path class="st1" d="M9-22c0,0-1.1,1.6-2.3,0.3c-1.2-1.3-1.9-0.7-2.4,0.3S2.7-20,1.7-21"/>
					<path class="st1" d="M11.1-22c0,0-1.9-0.2-1.3-1.9c0.6-1.7-0.2-2-1.4-2s-2-0.8-1.5-2.2"/>
					<path class="st1" d="M5.2-19.8c0,0,1.6-1.1,2.2,0.6s1.5,1.4,2.4,0.6s2-0.7,2.5,0.7"/>
					<path class="st1" d="M9.6-8.4c0,0-0.4,1.9-2,1.2C6-8,5.6-7.2,5.5-6S4.6-4.1,3.2-4.7"/>
					<path class="st1" d="M2.3-10c0,0,1.3-1.4,2.3,0.1s1.8,1,2.5,0.1s1.8-1.1,2.6,0.1"/>
					<path class="st1" d="M7.8-14.9c0,0-0.5,1.9-2.1,1c-1.6-0.9-2-0.1-2.2,1.1c-0.2,1.2-1.1,1.9-2.4,1.2"/>
					<path class="st1" d="M0.2-15.3c0,0,0.9-1.7,2.3-0.5c1.3,1.2,1.9,0.6,2.4-0.5s1.5-1.5,2.6-0.5"/>
					<path class="st1" d="M7.3-31.7c0,0,1.9-0.2,1.7,1.5c-0.2,1.8,0.7,1.9,1.8,1.7s2.1,0.3,2,1.8"/>
					<path class="st1" d="M6.5-12.6c0,0,1.1,1.6,2.3,0.2c1.2-1.4,1.9-0.8,2.5,0.2s1.7,1.4,2.6,0.2"/>
				</g>
				<g>
					<path class="st1" d="M14.2-41.8c0,0,0.4,1.9-1.4,1.9s-1.8,0.9-1.5,2c0.3,1.1-0.1,2.2-1.6,2.1"/>
					<path class="st1" d="M43.6-42.4c0,0-0.3,1.9-2,1.2c-1.6-0.7-2,0.1-2.1,1.2c-0.1,1.1-0.9,1.9-2.3,1.3"/>
					<path class="st1" d="M11.1-43.7c0,0,0.6,1.9,2.1,0.9s2-0.2,2.3,1c0.2,1.2,1.1,1.8,2.4,1.1"/>
					<path class="st1" d="M27.9-39.5c0,0,1.9-0.2,1.3-1.9c-0.6-1.7,0.2-2,1.4-2c1.2,0,2-0.8,1.5-2.1"/>
					<path class="st1" d="M26.3-43.7c0,0,1.5,1.2,0,2.3c-1.5,1.1-0.9,1.8,0,2.5c1,0.7,1.2,1.8,0,2.6"/>
					<path class="st1" d="M38-43.3c0,0-0.1,1.9-1.8,1.5c-1.7-0.5-2,0.4-1.9,1.5c0.1,1.2-0.6,2.1-2,1.7"/>
					<path class="st1" d="M31.4-42.4c0,0-1.7,0.9-0.5,2.2c1.2,1.4,0.5,2-0.6,2.4c-1.1,0.4-1.6,1.5-0.6,2.6"/>
					<path class="st1" d="M23.4-34.3c0,0-1.7-1-0.4-2.3c1.3-1.3,0.7-1.9-0.4-2.4s-1.5-1.5-0.4-2.6"/>
					<path class="st1" d="M19.6-41.1c0,0,0.6,1.9-1.2,1.9c-1.8,0.1-1.8,1-1.3,2.1c0.4,1.1,0,2.2-1.4,2.2"/>
				</g>
				<g>
					<path class="st1" d="M9.6-42.4c0,0-0.4,1.9-2,1.2c-1.6-0.8-2,0-2.1,1.2c-0.1,1.1-1,1.9-2.3,1.3"/>
				</g>
			</g>
		</g>
	</g>
</pattern>
<polygon class="st2" points="500,0 0,0 0,500 500,500 "/>
</svg>
