<?xml version="1.0" encoding="utf-8"?>
<!-- Generator: Adobe Illustrator 28.0.0, SVG Export Plug-In . SVG Version: 6.00 Build 0)  -->
<svg version="1.1" id="Calque_1" xmlns="http://www.w3.org/2000/svg" xmlns:xlink="http://www.w3.org/1999/xlink" x="0px" y="0px"
	 viewBox="0 0 44.8 52.5" style="enable-background:new 0 0 44.8 52.5;" xml:space="preserve">
<style type="text/css">
	.st0{fill:none;}
	.st1{fill:none;stroke:#FCBC00;stroke-width:0.2362;stroke-linecap:square;stroke-linejoin:bevel;}
	.st2{fill:url(#SVGID_1_);stroke:#FCBC00;stroke-width:1.5;stroke-linecap:round;stroke-linejoin:round;stroke-miterlimit:10;}
</style>
<pattern  x="-227.6" y="-223.7" width="56.7" height="56.7" patternUnits="userSpaceOnUse" id="SVGID_0000015440102675312582923" viewBox="56.9 -113.6 56.7 56.7" style="overflow:visible;">
	<g>
		<rect x="56.9" y="-113.6" class="st0" width="56.7" height="56.7"/>
		<g>
			<rect x="56.9" y="-113.6" class="st0" width="56.7" height="56.7"/>
			<g>
				<rect x="56.9" y="-113.6" class="st0" width="56.7" height="56.7"/>
				<g>
					<line class="st1" x1="113.5" y1="-56.8" x2="170.2" y2="-0.2"/>
					<line class="st1" x1="170.2" y1="-56.8" x2="113.5" y2="-0.2"/>
					<line class="st1" x1="165.5" y1="-56.8" x2="111.2" y2="-2.5"/>
					<line class="st1" x1="160.8" y1="-56.8" x2="111.2" y2="-7.2"/>
					<line class="st1" x1="156.1" y1="-56.8" x2="111.2" y2="-12"/>
					<line class="st1" x1="151.3" y1="-56.8" x2="111.2" y2="-16.7"/>
					<line class="st1" x1="146.6" y1="-56.8" x2="111.2" y2="-21.4"/>
					<line class="st1" x1="141.9" y1="-56.8" x2="111.2" y2="-26.1"/>
					<line class="st1" x1="137.2" y1="-56.8" x2="111.2" y2="-30.8"/>
					<line class="st1" x1="132.4" y1="-56.8" x2="111.2" y2="-35.6"/>
					<line class="st1" x1="127.7" y1="-56.8" x2="111.2" y2="-40.3"/>
					<line class="st1" x1="123" y1="-56.8" x2="111.2" y2="-45"/>
					<line class="st1" x1="118.3" y1="-56.8" x2="111.2" y2="-49.7"/>
					<line class="st1" x1="113.5" y1="-56.8" x2="111.2" y2="-54.4"/>
				</g>
				<g>
					<line class="st1" x1="56.9" y1="-56.8" x2="113.5" y2="-0.2"/>
					<line class="st1" x1="61.6" y1="-56.8" x2="115.9" y2="-2.5"/>
					<line class="st1" x1="66.3" y1="-56.8" x2="115.9" y2="-7.2"/>
					<line class="st1" x1="71" y1="-56.8" x2="115.9" y2="-12"/>
					<line class="st1" x1="75.7" y1="-56.8" x2="115.9" y2="-16.7"/>
					<line class="st1" x1="80.5" y1="-56.8" x2="115.9" y2="-21.4"/>
					<line class="st1" x1="85.2" y1="-56.8" x2="115.9" y2="-26.1"/>
					<line class="st1" x1="89.9" y1="-56.8" x2="115.9" y2="-30.8"/>
					<line class="st1" x1="94.6" y1="-56.8" x2="115.9" y2="-35.6"/>
					<line class="st1" x1="99.4" y1="-56.8" x2="115.9" y2="-40.3"/>
					<line class="st1" x1="104.1" y1="-56.8" x2="115.9" y2="-45"/>
					<line class="st1" x1="108.8" y1="-56.8" x2="115.9" y2="-49.7"/>
					<line class="st1" x1="113.5" y1="-56.8" x2="115.9" y2="-54.5"/>
					<line class="st1" x1="113.5" y1="-56.8" x2="56.9" y2="-0.2"/>
					<line class="st1" x1="108.8" y1="-56.8" x2="54.5" y2="-2.5"/>
					<line class="st1" x1="104.1" y1="-56.8" x2="54.5" y2="-7.2"/>
					<line class="st1" x1="99.4" y1="-56.8" x2="54.5" y2="-12"/>
					<line class="st1" x1="94.6" y1="-56.8" x2="54.5" y2="-16.7"/>
					<line class="st1" x1="89.9" y1="-56.8" x2="54.5" y2="-21.4"/>
					<line class="st1" x1="85.2" y1="-56.8" x2="54.5" y2="-26.1"/>
					<line class="st1" x1="80.5" y1="-56.8" x2="54.5" y2="-30.8"/>
					<line class="st1" x1="75.7" y1="-56.8" x2="54.5" y2="-35.6"/>
					<line class="st1" x1="71" y1="-56.8" x2="54.5" y2="-40.3"/>
					<line class="st1" x1="66.3" y1="-56.8" x2="54.5" y2="-45"/>
					<line class="st1" x1="61.6" y1="-56.8" x2="54.5" y2="-49.7"/>
					<line class="st1" x1="56.9" y1="-56.8" x2="54.5" y2="-54.4"/>
				</g>
				<g>
					<line class="st1" x1="0.2" y1="-56.8" x2="56.8" y2="-0.2"/>
					<line class="st1" x1="4.9" y1="-56.8" x2="59.2" y2="-2.5"/>
					<line class="st1" x1="9.6" y1="-56.8" x2="59.2" y2="-7.2"/>
					<line class="st1" x1="14.3" y1="-56.8" x2="59.2" y2="-12"/>
					<line class="st1" x1="19.1" y1="-56.8" x2="59.2" y2="-16.7"/>
					<line class="st1" x1="23.8" y1="-56.8" x2="59.2" y2="-21.4"/>
					<line class="st1" x1="28.5" y1="-56.8" x2="59.2" y2="-26.1"/>
					<line class="st1" x1="33.2" y1="-56.8" x2="59.2" y2="-30.8"/>
					<line class="st1" x1="38" y1="-56.8" x2="59.2" y2="-35.6"/>
					<line class="st1" x1="42.7" y1="-56.8" x2="59.2" y2="-40.3"/>
					<line class="st1" x1="47.4" y1="-56.8" x2="59.2" y2="-45"/>
					<line class="st1" x1="52.1" y1="-56.8" x2="59.2" y2="-49.7"/>
					<line class="st1" x1="56.8" y1="-56.8" x2="59.2" y2="-54.5"/>
					<line class="st1" x1="56.8" y1="-56.8" x2="0.2" y2="-0.2"/>
				</g>
				<g>
					<line class="st1" x1="113.5" y1="-113.5" x2="170.2" y2="-56.9"/>
					<line class="st1" x1="111.2" y1="-111.2" x2="165.5" y2="-56.9"/>
					<line class="st1" x1="111.2" y1="-106.5" x2="160.8" y2="-56.9"/>
					<line class="st1" x1="111.2" y1="-101.7" x2="156.1" y2="-56.9"/>
					<line class="st1" x1="111.2" y1="-97" x2="151.3" y2="-56.9"/>
					<line class="st1" x1="111.2" y1="-92.3" x2="146.6" y2="-56.9"/>
					<line class="st1" x1="111.2" y1="-87.6" x2="141.9" y2="-56.9"/>
					<line class="st1" x1="111.2" y1="-82.9" x2="137.2" y2="-56.9"/>
					<line class="st1" x1="111.2" y1="-78.1" x2="132.4" y2="-56.9"/>
					<line class="st1" x1="111.2" y1="-73.4" x2="127.7" y2="-56.9"/>
					<line class="st1" x1="111.2" y1="-68.7" x2="123" y2="-56.9"/>
					<line class="st1" x1="111.2" y1="-64" x2="118.3" y2="-56.9"/>
					<line class="st1" x1="111.2" y1="-59.3" x2="113.5" y2="-56.9"/>
					<line class="st1" x1="170.2" y1="-113.5" x2="113.5" y2="-56.9"/>
					<line class="st1" x1="165.5" y1="-113.5" x2="111.2" y2="-59.2"/>
					<line class="st1" x1="160.8" y1="-113.5" x2="111.2" y2="-63.9"/>
					<line class="st1" x1="156.1" y1="-113.5" x2="111.2" y2="-68.7"/>
					<line class="st1" x1="151.3" y1="-113.5" x2="111.2" y2="-73.4"/>
					<line class="st1" x1="146.6" y1="-113.5" x2="111.2" y2="-78.1"/>
					<line class="st1" x1="141.9" y1="-113.5" x2="111.2" y2="-82.8"/>
					<line class="st1" x1="137.2" y1="-113.5" x2="111.2" y2="-87.5"/>
					<line class="st1" x1="132.4" y1="-113.5" x2="111.2" y2="-92.3"/>
					<line class="st1" x1="127.7" y1="-113.5" x2="111.2" y2="-97"/>
					<line class="st1" x1="123" y1="-113.5" x2="111.2" y2="-101.7"/>
					<line class="st1" x1="118.3" y1="-113.5" x2="111.2" y2="-106.4"/>
					<line class="st1" x1="113.5" y1="-113.5" x2="111.2" y2="-111.1"/>
				</g>
				<g>
					<line class="st1" x1="56.9" y1="-113.5" x2="113.5" y2="-56.9"/>
					<line class="st1" x1="54.5" y1="-111.2" x2="108.8" y2="-56.9"/>
					<line class="st1" x1="54.5" y1="-106.5" x2="104.1" y2="-56.9"/>
					<line class="st1" x1="54.5" y1="-101.7" x2="99.4" y2="-56.9"/>
					<line class="st1" x1="54.5" y1="-97" x2="94.6" y2="-56.9"/>
					<line class="st1" x1="54.5" y1="-92.3" x2="89.9" y2="-56.9"/>
					<line class="st1" x1="54.5" y1="-87.6" x2="85.2" y2="-56.9"/>
					<line class="st1" x1="54.5" y1="-82.9" x2="80.5" y2="-56.9"/>
					<line class="st1" x1="54.5" y1="-78.1" x2="75.7" y2="-56.9"/>
					<line class="st1" x1="54.5" y1="-73.4" x2="71" y2="-56.9"/>
					<line class="st1" x1="54.5" y1="-68.7" x2="66.3" y2="-56.9"/>
					<line class="st1" x1="54.5" y1="-64" x2="61.6" y2="-56.9"/>
					<line class="st1" x1="54.5" y1="-59.3" x2="56.9" y2="-56.9"/>
					<line class="st1" x1="61.6" y1="-113.5" x2="115.9" y2="-59.2"/>
					<line class="st1" x1="66.3" y1="-113.5" x2="115.9" y2="-63.9"/>
					<line class="st1" x1="71" y1="-113.5" x2="115.9" y2="-68.7"/>
					<line class="st1" x1="75.7" y1="-113.5" x2="115.9" y2="-73.4"/>
					<line class="st1" x1="80.5" y1="-113.5" x2="115.9" y2="-78.1"/>
					<line class="st1" x1="85.2" y1="-113.5" x2="115.9" y2="-82.8"/>
					<line class="st1" x1="89.9" y1="-113.5" x2="115.9" y2="-87.5"/>
					<line class="st1" x1="94.6" y1="-113.5" x2="115.9" y2="-92.3"/>
					<line class="st1" x1="99.4" y1="-113.5" x2="115.9" y2="-97"/>
					<line class="st1" x1="104.1" y1="-113.5" x2="115.9" y2="-101.7"/>
					<line class="st1" x1="108.8" y1="-113.5" x2="115.9" y2="-106.4"/>
					<line class="st1" x1="113.5" y1="-113.5" x2="115.9" y2="-111.1"/>
					<line class="st1" x1="113.5" y1="-113.5" x2="56.9" y2="-56.9"/>
					<line class="st1" x1="108.8" y1="-113.5" x2="54.5" y2="-59.2"/>
					<line class="st1" x1="104.1" y1="-113.5" x2="54.5" y2="-63.9"/>
					<line class="st1" x1="99.4" y1="-113.5" x2="54.5" y2="-68.7"/>
					<line class="st1" x1="94.6" y1="-113.5" x2="54.5" y2="-73.4"/>
					<line class="st1" x1="89.9" y1="-113.5" x2="54.5" y2="-78.1"/>
					<line class="st1" x1="85.2" y1="-113.5" x2="54.5" y2="-82.8"/>
					<line class="st1" x1="80.5" y1="-113.5" x2="54.5" y2="-87.5"/>
					<line class="st1" x1="75.7" y1="-113.5" x2="54.5" y2="-92.3"/>
					<line class="st1" x1="71" y1="-113.5" x2="54.5" y2="-97"/>
					<line class="st1" x1="66.3" y1="-113.5" x2="54.5" y2="-101.7"/>
					<line class="st1" x1="61.6" y1="-113.5" x2="54.5" y2="-106.4"/>
					<line class="st1" x1="56.9" y1="-113.5" x2="54.5" y2="-111.1"/>
					<line class="st1" x1="115.9" y1="-111.2" x2="61.6" y2="-56.9"/>
					<line class="st1" x1="115.9" y1="-106.5" x2="66.3" y2="-56.9"/>
					<line class="st1" x1="115.9" y1="-101.7" x2="71" y2="-56.9"/>
					<line class="st1" x1="115.9" y1="-97" x2="75.7" y2="-56.9"/>
					<line class="st1" x1="115.9" y1="-92.3" x2="80.5" y2="-56.9"/>
					<line class="st1" x1="115.9" y1="-87.6" x2="85.2" y2="-56.9"/>
					<line class="st1" x1="115.9" y1="-82.9" x2="89.9" y2="-56.9"/>
					<line class="st1" x1="115.9" y1="-78.1" x2="94.6" y2="-56.9"/>
					<line class="st1" x1="115.9" y1="-73.4" x2="99.4" y2="-56.9"/>
					<line class="st1" x1="115.9" y1="-68.7" x2="104.1" y2="-56.9"/>
					<line class="st1" x1="115.9" y1="-64" x2="108.8" y2="-56.9"/>
					<line class="st1" x1="115.9" y1="-59.2" x2="113.5" y2="-56.9"/>
				</g>
				<g>
					<line class="st1" x1="0.2" y1="-113.5" x2="56.8" y2="-56.9"/>
					<line class="st1" x1="4.9" y1="-113.5" x2="59.2" y2="-59.2"/>
					<line class="st1" x1="9.6" y1="-113.5" x2="59.2" y2="-63.9"/>
					<line class="st1" x1="14.3" y1="-113.5" x2="59.2" y2="-68.7"/>
					<line class="st1" x1="19.1" y1="-113.5" x2="59.2" y2="-73.4"/>
					<line class="st1" x1="23.8" y1="-113.5" x2="59.2" y2="-78.1"/>
					<line class="st1" x1="28.5" y1="-113.5" x2="59.2" y2="-82.8"/>
					<line class="st1" x1="33.2" y1="-113.5" x2="59.2" y2="-87.5"/>
					<line class="st1" x1="38" y1="-113.5" x2="59.2" y2="-92.3"/>
					<line class="st1" x1="42.7" y1="-113.5" x2="59.2" y2="-97"/>
					<line class="st1" x1="47.4" y1="-113.5" x2="59.2" y2="-101.7"/>
					<line class="st1" x1="52.1" y1="-113.5" x2="59.2" y2="-106.4"/>
					<line class="st1" x1="56.8" y1="-113.5" x2="59.2" y2="-111.1"/>
					<line class="st1" x1="56.8" y1="-113.5" x2="0.2" y2="-56.9"/>
					<line class="st1" x1="59.2" y1="-111.2" x2="4.9" y2="-56.9"/>
					<line class="st1" x1="59.2" y1="-106.5" x2="9.6" y2="-56.9"/>
					<line class="st1" x1="59.2" y1="-101.7" x2="14.3" y2="-56.9"/>
					<line class="st1" x1="59.2" y1="-97" x2="19.1" y2="-56.9"/>
					<line class="st1" x1="59.2" y1="-92.3" x2="23.8" y2="-56.9"/>
					<line class="st1" x1="59.2" y1="-87.6" x2="28.5" y2="-56.9"/>
					<line class="st1" x1="59.2" y1="-82.9" x2="33.2" y2="-56.9"/>
					<line class="st1" x1="59.2" y1="-78.1" x2="38" y2="-56.9"/>
					<line class="st1" x1="59.2" y1="-73.4" x2="42.7" y2="-56.9"/>
					<line class="st1" x1="59.2" y1="-68.7" x2="47.4" y2="-56.9"/>
					<line class="st1" x1="59.2" y1="-64" x2="52.1" y2="-56.9"/>
					<line class="st1" x1="59.2" y1="-59.2" x2="56.8" y2="-56.9"/>
				</g>
				<g>
					<line class="st1" x1="113.5" y1="-170.2" x2="170.2" y2="-113.5"/>
					<line class="st1" x1="111.2" y1="-167.9" x2="165.5" y2="-113.5"/>
					<line class="st1" x1="111.2" y1="-163.2" x2="160.8" y2="-113.5"/>
					<line class="st1" x1="111.2" y1="-158.4" x2="156.1" y2="-113.5"/>
					<line class="st1" x1="111.2" y1="-153.7" x2="151.3" y2="-113.5"/>
					<line class="st1" x1="111.2" y1="-149" x2="146.6" y2="-113.5"/>
					<line class="st1" x1="111.2" y1="-144.3" x2="141.9" y2="-113.5"/>
					<line class="st1" x1="111.2" y1="-139.5" x2="137.2" y2="-113.5"/>
					<line class="st1" x1="111.2" y1="-134.8" x2="132.4" y2="-113.5"/>
					<line class="st1" x1="111.2" y1="-130.1" x2="127.7" y2="-113.5"/>
					<line class="st1" x1="111.2" y1="-125.4" x2="123" y2="-113.5"/>
					<line class="st1" x1="111.2" y1="-120.7" x2="118.3" y2="-113.5"/>
					<line class="st1" x1="111.2" y1="-115.9" x2="113.5" y2="-113.5"/>
					<line class="st1" x1="170.2" y1="-170.2" x2="113.5" y2="-113.5"/>
				</g>
				<g>
					<line class="st1" x1="56.9" y1="-170.2" x2="113.5" y2="-113.5"/>
					<line class="st1" x1="54.5" y1="-167.9" x2="108.8" y2="-113.5"/>
					<line class="st1" x1="54.5" y1="-163.2" x2="104.1" y2="-113.5"/>
					<line class="st1" x1="54.5" y1="-158.4" x2="99.4" y2="-113.5"/>
					<line class="st1" x1="54.5" y1="-153.7" x2="94.6" y2="-113.5"/>
					<line class="st1" x1="54.5" y1="-149" x2="89.9" y2="-113.5"/>
					<line class="st1" x1="54.5" y1="-144.3" x2="85.2" y2="-113.5"/>
					<line class="st1" x1="54.5" y1="-139.5" x2="80.5" y2="-113.5"/>
					<line class="st1" x1="54.5" y1="-134.8" x2="75.7" y2="-113.5"/>
					<line class="st1" x1="54.5" y1="-130.1" x2="71" y2="-113.5"/>
					<line class="st1" x1="54.5" y1="-125.4" x2="66.3" y2="-113.5"/>
					<line class="st1" x1="54.5" y1="-120.7" x2="61.6" y2="-113.5"/>
					<line class="st1" x1="54.5" y1="-115.9" x2="56.9" y2="-113.5"/>
					<line class="st1" x1="113.5" y1="-170.2" x2="56.9" y2="-113.5"/>
					<line class="st1" x1="115.9" y1="-167.9" x2="61.6" y2="-113.5"/>
					<line class="st1" x1="115.9" y1="-163.2" x2="66.3" y2="-113.5"/>
					<line class="st1" x1="115.9" y1="-158.4" x2="71" y2="-113.5"/>
					<line class="st1" x1="115.9" y1="-153.7" x2="75.7" y2="-113.5"/>
					<line class="st1" x1="115.9" y1="-149" x2="80.5" y2="-113.5"/>
					<line class="st1" x1="115.9" y1="-144.3" x2="85.2" y2="-113.5"/>
					<line class="st1" x1="115.9" y1="-139.5" x2="89.9" y2="-113.5"/>
					<line class="st1" x1="115.9" y1="-134.8" x2="94.6" y2="-113.5"/>
					<line class="st1" x1="115.9" y1="-130.1" x2="99.4" y2="-113.5"/>
					<line class="st1" x1="115.9" y1="-125.4" x2="104.1" y2="-113.5"/>
					<line class="st1" x1="115.9" y1="-120.7" x2="108.8" y2="-113.5"/>
					<line class="st1" x1="115.9" y1="-115.9" x2="113.5" y2="-113.5"/>
				</g>
				<g>
					<line class="st1" x1="0.2" y1="-170.2" x2="56.8" y2="-113.5"/>
					<line class="st1" x1="56.8" y1="-170.2" x2="0.2" y2="-113.5"/>
					<line class="st1" x1="59.2" y1="-167.9" x2="4.9" y2="-113.5"/>
					<line class="st1" x1="59.2" y1="-163.2" x2="9.6" y2="-113.5"/>
					<line class="st1" x1="59.2" y1="-158.4" x2="14.3" y2="-113.5"/>
					<line class="st1" x1="59.2" y1="-153.7" x2="19.1" y2="-113.5"/>
					<line class="st1" x1="59.2" y1="-149" x2="23.8" y2="-113.5"/>
					<line class="st1" x1="59.2" y1="-144.3" x2="28.5" y2="-113.5"/>
					<line class="st1" x1="59.2" y1="-139.5" x2="33.2" y2="-113.5"/>
					<line class="st1" x1="59.2" y1="-134.8" x2="38" y2="-113.5"/>
					<line class="st1" x1="59.2" y1="-130.1" x2="42.7" y2="-113.5"/>
					<line class="st1" x1="59.2" y1="-125.4" x2="47.4" y2="-113.5"/>
					<line class="st1" x1="59.2" y1="-120.7" x2="52.1" y2="-113.5"/>
					<line class="st1" x1="59.2" y1="-115.9" x2="56.8" y2="-113.5"/>
				</g>
			</g>
		</g>
	</g>
</pattern>
<pattern  id="SVGID_1_" xlink:href="#SVGID_0000015440102675312582923" patternTransform="matrix(1 0 0 1 -179.2707 17671.4551)">
</pattern>
<path class="st2" d="M19.9,1.7L3.6,31.1C0,37.5,2.3,45.6,8.7,49.2s14.5,1.3,18.1-5.1l16.7-29.7L19.9,1.7z"/>
</svg>
