<?xml version="1.0" encoding="utf-8"?>
<!-- Generator: Adobe Illustrator 28.0.0, SVG Export Plug-In . SVG Version: 6.00 Build 0)  -->
<svg version="1.1" id="Calque_1" xmlns="http://www.w3.org/2000/svg" xmlns:xlink="http://www.w3.org/1999/xlink" x="0px" y="0px"
	 viewBox="0 0 500 500" style="enable-background:new 0 0 500 500;" xml:space="preserve">
<path d="M168.1,137.1c-5.6-2.2-11.4-0.9-15.7,3.2c-4.3-4.2-10.1-5.5-15.7-3.2c-6.4,2.5-12.3,10.1-9.9,20.7
	c3.7,16.5,23.3,24.9,24.2,25.2c0.5,0.2,0.9,0.3,1.4,0.3s1-0.1,1.4-0.3c0.8-0.4,20.5-8.7,24.2-25.2
	C180.3,147.2,174.5,139.6,168.1,137.1z M170.8,156.1c-2.3,10.5-14.3,17.3-18.4,19.4c-4.1-2.1-16.1-8.8-18.4-19.4
	c-1.4-6.4,1.8-10.8,5.4-12.2c0.9-0.4,1.8-0.5,2.7-0.5c2.7,0,5.3,1.6,7.1,4.7c1.3,2.2,5,2.2,6.3,0c2.4-4.1,6.1-5.7,9.8-4.2
	C169,145.3,172.2,149.8,170.8,156.1z"/>
<path d="M374.9,140.3h-83.5v-5.9c0-12.2-9.9-22-22-22H125c-12.2,0-22,9.9-22,22v222c0,12.2,9.9,22,22,22h83.5v5.9
	c0,12.2,9.9,22,22,22h144.3c12.2,0,22-9.9,22-22v-222C397,150.1,387.1,140.3,374.9,140.3z M208.6,285.6c-5.1,3.1-9.3,5.1-11.4,6.1
	c-7.5-3.5-42.8-21.4-49.5-51.3c-4.1-18.3,5.6-31.2,16.3-35.4c8.9-3.5,21.4-2.2,30,12.2c1.3,2.2,5,2.2,6.3,0c2.3-3.9,5.1-7,8.2-9.3
	L208.6,285.6L208.6,285.6z M208.6,162.3v37c-4.2,2.2-8.1,5.4-11.4,9.6c-9.2-11.7-22.8-15.9-35.9-10.7c-13.5,5.4-25.7,21.4-20.7,43.9
	c8.3,37.1,53.3,56.3,55.2,57.1c0.5,0.2,0.9,0.3,1.4,0.3s1-0.1,1.4-0.3c0.2-0.1,4.2-1.8,10-5V371H125c-8.1,0-14.7-6.6-14.7-14.7v-222
	c0-8.1,6.6-14.7,14.7-14.7h144.3c8.1,0,14.7,6.6,14.7,14.7v5.9h-53.4C218.5,140.3,208.6,150.1,208.6,162.3z M389.6,384.3
	c0,8.1-6.6,14.7-14.7,14.7H230.6c-8.1,0-14.7-6.6-14.7-14.7v-222c0-8.1,6.6-14.7,14.7-14.7h144.3c8.1,0,14.7,6.6,14.7,14.7
	L389.6,384.3L389.6,384.3z"/>
<path d="M359.4,270c5-22.5-7.2-38.5-20.7-43.9c-13.1-5.2-26.7-1-35.9,10.7c-9.2-11.7-22.8-15.9-35.9-10.7
	c-13.5,5.4-25.7,21.4-20.7,43.9c8.3,37.1,53.3,56.3,55.2,57.1c0.5,0.2,0.9,0.3,1.4,0.3s1-0.1,1.4-0.3
	C306.1,326.3,351.1,307.1,359.4,270z M302.8,319.7c-7.5-3.5-42.8-21.4-49.5-51.3c-4.1-18.3,5.6-31.2,16.3-35.4
	c2.6-1,5.5-1.6,8.5-1.6c7.4,0,15.5,3.7,21.5,13.9c1.3,2.2,5,2.2,6.3,0c8.6-14.4,21.1-15.8,30-12.2c10.7,4.2,20.3,17.1,16.3,35.4
	C345.6,298.3,310.3,316.2,302.8,319.7z"/>
<path d="M258,211.2c0.5,0,1-0.1,1.4-0.3c0.8-0.4,20.5-8.7,24.2-25.2c2.4-10.6-3.5-18.1-9.9-20.7c-5.6-2.2-11.4-0.9-15.7,3.2
	c-4.3-4.2-10.1-5.5-15.7-3.2c-6.4,2.5-12.3,10.1-9.9,20.7c3.7,16.5,23.3,24.9,24.2,25.2C257,211.1,257.5,211.2,258,211.2z
	 M239.6,184.1c-1.4-6.4,1.8-10.8,5.4-12.2c0.9-0.4,1.8-0.5,2.7-0.5c2.7,0,5.3,1.6,7.1,4.7c1.3,2.2,5,2.2,6.3,0
	c2.4-4.1,6.1-5.7,9.8-4.2c3.6,1.4,6.9,5.9,5.4,12.2c-2.3,10.5-14.3,17.3-18.4,19.4C253.8,201.4,241.9,194.6,239.6,184.1z"/>
<path d="M349,335.7c-0.9-0.4-1.9-0.4-2.8,0c-0.8,0.4-20.5,8.7-24.2,25.2c-2.4,10.6,3.5,18.1,9.9,20.7c1.8,0.7,3.7,1.1,5.5,1.1
	c3.7,0,7.3-1.5,10.2-4.3c4.3,4.2,10.1,5.5,15.7,3.2c6.4-2.6,12.3-10.1,9.9-20.7C369.5,344.5,349.8,336.1,349,335.7z M360.5,374.8
	c-3.7,1.5-7.4-0.1-9.8-4.2c-1.3-2.2-5-2.2-6.3,0c-2.4,4.1-6.1,5.7-9.8,4.2c-3.6-1.4-6.9-5.9-5.4-12.2c2.3-10.5,14.3-17.3,18.4-19.4
	c4.1,2.1,16.1,8.8,18.4,19.4C367.4,368.9,364.2,373.3,360.5,374.8z"/>
</svg>
