<?xml version="1.0" encoding="utf-8"?>
<!-- Generator: Adobe Illustrator 28.0.0, SVG Export Plug-In . SVG Version: 6.00 Build 0)  -->
<svg version="1.1" id="Calque_1" xmlns="http://www.w3.org/2000/svg" xmlns:xlink="http://www.w3.org/1999/xlink" x="0px" y="0px"
	 viewBox="0 0 500 500" style="enable-background:new 0 0 500 500;" xml:space="preserve">
<g>
	<g>
		<path d="M256.6,87.7c-87.9,0-159.4,56.3-159.4,125.4c0,16.7,4.2,32.7,11.8,47.3c-16.1,14.5-25,32.8-25,52.3
			c0,21.6,11.2,42.3,31,57.2v35.8c0,2.6,1.5,4.9,3.8,6c0.9,0.4,1.9,0.7,2.9,0.7c1.5,0,2.9-0.5,4.1-1.5l28.5-22.8
			c9.6,2.4,19.5,3.6,29.4,3.6c42.9,0,81.3-22.3,94.5-54.4c9.3-1,18.6-2.6,27.8-5l48.4,38.7c1.2,1,2.7,1.5,4.1,1.5c1,0,2-0.2,2.9-0.7
			c2.3-1.1,3.8-3.4,3.8-6v-60.9c32.4-23.7,50.9-57,50.9-91.8C416,144,344.5,87.7,256.6,87.7z M183.6,378.4c-9.8,0-19.6-1.3-29.2-3.9
			c-2.1-0.6-4.2-0.1-5.9,1.2l-20.3,16.2v-25.4c0-2.2-1.1-4.2-2.8-5.4c-17.9-12.5-28.1-30.1-28.1-48.3c0-14.9,6.6-29.1,18.7-40.7
			c26.2,38.6,77.4,65.2,136.5,66.4c1.1,0.9,2.5,1.6,4.1,1.6c1.8,0,3.6,0,5.4-0.1C248.2,363,217.6,378.4,183.6,378.4z M354.7,296
			c-1.8,1.2-2.8,3.3-2.8,5.4V352l-40.2-32.2c-1.2-1-2.7-1.5-4.1-1.5c-0.6,0-1.2,0.1-1.8,0.2c-16,4.4-32.5,6.6-49,6.6
			c-80.5,0-146.1-50.3-146.1-112.1s65.4-112,145.9-112s146.1,50.3,146.1,112.1C402.7,244.5,385.2,274.7,354.7,296z"/>
		<path d="M329.7,233.8H183.6c-3.7,0-6.6,3-6.6,6.6s3,6.6,6.6,6.6h146.1c3.7,0,6.6-3,6.6-6.6S333.4,233.8,329.7,233.8z"/>
		<path d="M329.7,180.6H183.6c-3.7,0-6.6,3-6.6,6.6c0,3.7,3,6.6,6.6,6.6h146.1c3.7,0,6.6-3,6.6-6.6
			C336.3,183.6,333.4,180.6,329.7,180.6z"/>
	</g>
</g>
</svg>
