<?xml version="1.0" encoding="utf-8"?>
<!-- Generator: Adobe Illustrator 28.0.0, SVG Export Plug-In . SVG Version: 6.00 Build 0)  -->
<svg version="1.1" id="Calque_1" xmlns="http://www.w3.org/2000/svg" xmlns:xlink="http://www.w3.org/1999/xlink" x="0px" y="0px"
	 viewBox="0 0 500 500" style="enable-background:new 0 0 500 500;" xml:space="preserve">
<path d="M153.9,398.9c5.9,0,11.8-0.8,17.5-2.5c19.9-5.7,35.2-20.4,38.2-36.3c0.6-3.1,0.9-6.2,0.8-9.3l0,0V200.4l140.2-29v129.3
	c-11.3-10.4-30.4-14.3-49.6-8.8c-26.5,7.6-43.3,30.2-37.5,50.5c0.6,1.9,1.3,3.8,2.2,5.6c6.5,12.4,21.5,19.8,38.8,19.8
	c5.9,0,11.8-0.9,17.5-2.5c19.9-5.7,35.2-20.4,38.2-36.3c0.5-2.6,0.8-5.3,0.8-8l0,0V113.3c0.1-2.9-2.2-5.2-5.1-5.3
	c-0.4,0-0.7,0-1.1,0.1L204.2,138c-2.5,0.5-4.3,2.7-4.2,5.2v188.7c-11.3-10.4-30.5-14.3-49.6-8.8c-12,3.2-22.7,10.2-30.5,19.8
	c-7.2,8.5-9.8,19.9-7.1,30.6c0.6,1.9,1.3,3.8,2.2,5.6C121.6,391.5,136.6,398.9,153.9,398.9z M319,355.3c-20.8,6-41.5-1.1-45.7-15.6
	s9.4-31.6,30.4-37.6c4.8-1.4,9.7-2.1,14.6-2.1c13.8,0,26,5.7,30.1,15.2c0,0.5,0.4,0.9,0.6,1.4l0,0c0,0.4,0.3,0.8,0.4,1.2
	c0.9,3,1,6.2,0.4,9.2C347.6,339.3,335.2,350.7,319,355.3L319,355.3z M350.5,160.8l-140.2,29v-42.6l140.2-27.8V160.8z M128.1,349.4
	c6.4-7.9,15.2-13.6,25.1-16.2c4.8-1.4,9.7-2.1,14.6-2.1c13.8,0,26,5.7,30.1,15.3l0.6,1.4c0,0.4,0.3,0.8,0.4,1.3l0,0
	c0.9,3,1,6.2,0.4,9.2c-2.2,12.4-14.6,23.8-30.8,28.4c-20.8,6-41.5-1.1-45.7-15.6C121,363.4,122.9,355.3,128.1,349.4z"/>
</svg>
