<svg version="1.1" id="Calque_1" xmlns="http://www.w3.org/2000/svg" xmlns:xlink="http://www.w3.org/1999/xlink" x="0" y="0" viewBox="0 0 500 500" xml:space="preserve"><style>.st0{fill:none}</style><pattern width="56.7" height="56.7" patternUnits="userSpaceOnUse" id="SVGID_0000017095935002089361173" viewBox="56.9 -113.6 56.7 56.7" overflow="visible"><path class="st0" d="M56.9-113.6h56.7v56.7H56.9z"/><path class="st0" d="M56.9-113.6h56.7v56.7H56.9z"/><path class="st0" d="M56.9-113.6h56.7v56.7H56.9z"/><path d="M113.5-56.8L170.2-.2m0-56.6L113.5-.2m52-56.6L111.2-2.5m49.6-54.3L111.2-7.2m44.9-49.6L111.2-12m40.1-44.8l-40.1 40.1m35.4-40.1l-35.4 35.4m30.7-35.4l-30.7 30.7m26-30.7l-26 26m21.2-26l-21.2 21.2m16.5-21.2l-16.5 16.5M123-56.8L111.2-45m7.1-11.8l-7.1 7.1m2.3-7.1l-2.3 2.4m-54.3-2.4L113.5-.2M61.6-56.8l54.3 54.3M66.3-56.8l49.6 49.6M71-56.8L115.9-12M75.7-56.8l40.2 40.1M80.5-56.8l35.4 35.4M85.2-56.8l30.7 30.7m-26-30.7l26 26m-21.3-26l21.3 21.2M99.4-56.8l16.5 16.5m-11.8-16.5L115.9-45m-7.1-11.8l7.1 7.1m-2.4-7.1l2.4 2.3m-2.4-2.3L56.9-.2m51.9-56.6L54.5-2.5m49.6-54.3L54.5-7.2m44.9-49.6L54.5-12m40.1-44.8L54.5-16.7m35.4-40.1L54.5-21.4m30.7-35.4L54.5-26.1m26-30.7l-26 26m21.2-26L54.5-35.6M71-56.8L54.5-40.3m11.8-16.5L54.5-45m7.1-11.8l-7.1 7.1m2.4-7.1l-2.4 2.4M.2-56.8L56.8-.2M4.9-56.8L59.2-2.5M9.6-56.8L59.2-7.2M14.3-56.8L59.2-12M19.1-56.8l40.1 40.1M23.8-56.8l35.4 35.4M28.5-56.8l30.7 30.7m-26-30.7l26 26M38-56.8l21.2 21.2M42.7-56.8l16.5 16.5M47.4-56.8L59.2-45m-7.1-11.8l7.1 7.1m-2.4-7.1l2.4 2.3m-2.4-2.3L.2-.2m113.3-113.3l56.7 56.6m-59-54.3l54.3 54.3m-54.3-49.6l49.6 49.6m-49.6-44.8l44.9 44.8M111.2-97l40.1 40.1m-40.1-35.4l35.4 35.4m-35.4-30.7l30.7 30.7m-30.7-26l26 26m-26-21.2l21.2 21.2m-21.2-16.5l16.5 16.5m-16.5-11.8L123-56.9M111.2-64l7.1 7.1m-7.1-2.4l2.3 2.4m56.7-56.6l-56.7 56.6m52-56.6l-54.3 54.3m49.6-54.3l-49.6 49.6m44.9-49.6l-44.9 44.8m40.1-44.8l-40.1 40.1m35.4-40.1l-35.4 35.4m30.7-35.4l-30.7 30.7m26-30.7l-26 26m21.2-26l-21.2 21.2m16.5-21.2L111.2-97m11.8-16.5l-11.8 11.8m7.1-11.8l-7.1 7.1m2.3-7.1l-2.3 2.4m-54.3-2.4l56.6 56.6m-59-54.3l54.3 54.3m-54.3-49.6l49.6 49.6m-49.6-44.8l44.9 44.8M54.5-97l40.1 40.1M54.5-92.3l35.4 35.4M54.5-87.6l30.7 30.7m-30.7-26l26 26m-26-21.2l21.2 21.2M54.5-73.4L71-56.9M54.5-68.7l11.8 11.8M54.5-64l7.1 7.1m-7.1-2.4l2.4 2.4m4.7-56.6l54.3 54.3m-49.6-54.3l49.6 49.6M71-113.5l44.9 44.8m-40.2-44.8l40.2 40.1m-35.4-40.1l35.4 35.4m-30.7-35.4l30.7 30.7m-26-30.7l26 26m-21.3-26l21.3 21.2m-16.5-21.2L115.9-97m-11.8-16.5l11.8 11.8m-7.1-11.8l7.1 7.1m-2.4-7.1l2.4 2.4m-2.4-2.4L56.9-56.9m51.9-56.6L54.5-59.2m49.6-54.3L54.5-63.9m44.9-49.6L54.5-68.7m40.1-44.8L54.5-73.4m35.4-40.1L54.5-78.1m30.7-35.4L54.5-82.8m26-30.7l-26 26m21.2-26L54.5-92.3M71-113.5L54.5-97m11.8-16.5l-11.8 11.8m7.1-11.8l-7.1 7.1m2.4-7.1l-2.4 2.4m61.4-.1L61.6-56.9m54.3-49.6L66.3-56.9m49.6-44.8L71-56.9M115.9-97L75.7-56.9m40.2-35.4L80.5-56.9m35.4-30.7L85.2-56.9m30.7-26l-26 26m26-21.2L94.6-56.9m21.3-16.5L99.4-56.9m16.5-11.8l-11.8 11.8m11.8-7.1l-7.1 7.1m7.1-2.3l-2.4 2.3M.2-113.5l56.6 56.6M4.9-113.5l54.3 54.3M9.6-113.5l49.6 49.6m-44.9-49.6l44.9 44.8m-40.1-44.8l40.1 40.1m-35.4-40.1l35.4 35.4m-30.7-35.4l30.7 30.7m-26-30.7l26 26m-21.2-26l21.2 21.2m-16.5-21.2L59.2-97m-11.8-16.5l11.8 11.8m-7.1-11.8l7.1 7.1m-2.4-7.1l2.4 2.4m-2.4-2.4L.2-56.9m59-54.3L4.9-56.9m54.3-49.6L9.6-56.9m49.6-44.8L14.3-56.9M59.2-97L19.1-56.9m40.1-35.4L23.8-56.9m35.4-30.7L28.5-56.9m30.7-26l-26 26m26-21.2L38-56.9m21.2-16.5L42.7-56.9m16.5-11.8L47.4-56.9M59.2-64l-7.1 7.1m7.1-2.3l-2.4 2.3m56.7-113.3l56.7 56.7m-59-54.4l54.3 54.4m-54.3-49.7l49.6 49.7m-49.6-44.9l44.9 44.9m-44.9-40.2l40.1 40.2M111.2-149l35.4 35.5m-35.4-30.8l30.7 30.8m-30.7-26l26 26m-26-21.3l21.2 21.3m-21.2-16.6l16.5 16.6m-16.5-11.9l11.8 11.9m-11.8-7.2l7.1 7.2m-7.1-2.4l2.3 2.4m56.7-56.7l-56.7 56.7m-56.6-56.7l56.6 56.7m-59-54.4l54.3 54.4m-54.3-49.7l49.6 49.7m-49.6-44.9l44.9 44.9m-44.9-40.2l40.1 40.2M54.5-149l35.4 35.5m-35.4-30.8l30.7 30.8m-30.7-26l26 26m-26-21.3l21.2 21.3m-21.2-16.6L71-113.5m-16.5-11.9l11.8 11.9m-11.8-7.2l7.1 7.2m-7.1-2.4l2.4 2.4m56.6-56.7l-56.6 56.7m59-54.4l-54.3 54.4m54.3-49.7l-49.6 49.7m49.6-44.9L71-113.5m44.9-40.2l-40.2 40.2m40.2-35.5l-35.4 35.5m35.4-30.8l-30.7 30.8m30.7-26l-26 26m26-21.3l-21.3 21.3m21.3-16.6l-16.5 16.6m16.5-11.9l-11.8 11.9m11.8-7.2l-7.1 7.2m7.1-2.4l-2.4 2.4M.2-170.2l56.6 56.7m0-56.7L.2-113.5m59-54.4L4.9-113.5m54.3-49.7L9.6-113.5m49.6-44.9l-44.9 44.9m44.9-40.2l-40.1 40.2M59.2-149l-35.4 35.5m35.4-30.8l-30.7 30.8m30.7-26l-26 26m26-21.3L38-113.5m21.2-16.6l-16.5 16.6m16.5-11.9l-11.8 11.9m11.8-7.2l-7.1 7.2m7.1-2.4l-2.4 2.4" stroke="#fcbc00" stroke-width=".236" stroke-linecap="square" stroke-linejoin="bevel" fill="none"/></pattern><pattern id="SVGID_1_" xlink:href="#SVGID_0000017095935002089361173" patternTransform="translate(-240.57 17769.08)"/><path fill="url(#SVGID_1_)" d="M0 0h500v500H0z"/></svg>