<svg version="1.1" id="Calque_1" xmlns="http://www.w3.org/2000/svg" x="0" y="0" viewBox="0 0 500 500" xml:space="preserve"><style>.st0,.st1{fill:none}.st1{stroke:#fcbc00;stroke-width:.3493}</style><pattern width="34" height="34" patternUnits="userSpaceOnUse" id="SVGID_0000006002183134213359064" viewBox="7.3 -40.8 34 34" overflow="visible"><path class="st0" d="M7.3-40.8h34v34h-34z"/><path class="st0" d="M7.3-40.8h34v34h-34z"/><path class="st0" d="M7.3-40.8h34v34h-34z"/><path class="st1" d="M16.5-30.4s1.8-.8 2.1 1c.3 1.8 1.2 1.6 2.2 1s2.1-.3 2.4 1.1m17.8 3s-1.2 1.5-2.3.1-1.8-.9-2.5.1-1.7 1.3-2.6.1m-5.2-.1s-1.8-.8-.7-2.2c1.1-1.4.4-2-.7-2.4s-1.7-1.4-.8-2.5m3.2 5.1s1.9-.4 1.1-2 0-2 1.2-2.2c1.2-.1 1.9-1 1.3-2.3m2.9 1.9s1.9-.4 1.1-2c-.8-1.6 0-2 1.2-2.2 1.2-.1 1.9-1 1.2-2.3M23-21.7s1.7-.9.5-2.2c-1.2-1.3-.6-2 .5-2.4 1.1-.5 1.6-1.5.6-2.6M15.1-27s.6 1.9-1.2 2-1.8 1-1.3 2.1.1 2.1-1.4 2.2m2.6 2.2s-.9-1.7.8-2.2 1.5-1.3.9-2.3c-.7-1-.5-2.1.9-2.5"/><path class="st1" d="M19.8-29.7s.6-1.8 2.1-.9 2 .2 2.3-.9c.3-1.2 1.2-1.8 2.5-1M16-16.9s-.8-1.8.9-2.1 1.6-1.2 1-2.2-.4-2.1 1.1-2.4m2.4 4s-1.6-1.1-.2-2.3c1.4-1.2.8-1.9-.2-2.5s-1.4-1.6-.3-2.6M15.4-9.9s.1-1.9 1.9-1.4 2-.3 2-1.5.7-2 2.1-1.6M24-13s-.2 1.9-1.9 1.3c-1.7-.6-2 .2-2 1.4s-.8 2-2.1 1.5m1.4-16.1s-1.9.1-1.6-1.7-.5-2-1.7-1.8-2.1-.5-1.8-1.9m11.2 5.7s-.7 1.8 1.1 2c1.8.2 1.7 1.1 1.2 2.2s-.2 2.1 1.3 2.3m-17.3 1.7s.9 1.7 2.2.5c1.4-1.2 2-.5 2.4.6s1.5 1.6 2.6.6M40.3-33s1.2 1.6-.5 2.2c-1.7.7-1.3 1.5-.6 2.4.8.9.8 2-.6 2.6m-.4-5.2s-1.9.4-1.1 2c.8 1.6 0 2-1.2 2.2s-1.9 1-1.3 2.3"/><path class="st1" d="M18.2-37.3s1.9.1 1.4 1.8.3 2 1.5 2 2 .7 1.6 2.1m5.9 1.1s-1.9-.5-1-2.1c.9-1.6.1-2-1.1-2.2s-1.9-1-1.2-2.3M18.7-34s-1.9-.6-2 1.2-1 1.8-2.1 1.3-2.2-.1-2.2 1.4m1.8 22.3s.4 1.9-1.4 1.9-1.8.9-1.5 2-.1 2.2-1.6 2.1M43-22s-1.1 1.6-2.3.3c-1.2-1.3-1.9-.7-2.5.3-.5 1-1.6 1.4-2.6.4m-1.9-15.9s.5 1.9-1.4 1.9-1.8.9-1.5 2c.4 1.1-.1 2.1-1.6 2.1m1.5 8.1s-.8-1.8 1-2.1c1.8-.3 1.7-1.2 1.1-2.2-.6-1-.3-2.1 1.2-2.4M45.1-22s-1.9-.2-1.3-1.9c.6-1.7-.2-2-1.4-2s-2-.8-1.5-2.2m-1.7 8.3s1.6-1.1 2.2.6c.6 1.7 1.5 1.4 2.4.7.9-.8 2-.7 2.5.7m-2.7 9.4s-.3 1.9-2 1.2c-1.6-.8-2 0-2.1 1.2s-.9 1.9-2.3 1.3M23.7-17.2s1.9.3 1.3 1.9.2 2 1.3 2.1c1.2 0 2 .8 1.4 2.2m-10.6-6.4s.6 1.9 2.1.9c1.5-.9 2-.2 2.3 1 .2 1.2 1.1 1.8 2.4 1.1"/><path class="st1" d="M11.1-9.7s.6 1.9 2.1.9 2-.2 2.3 1c.2 1.2 1.1 1.8 2.4 1.1m10 1.2s1.9-.2 1.3-1.9.3-2 1.5-2 2-.8 1.5-2.1m-5.9 1.8s1.5 1.2 0 2.3-.9 1.8 0 2.5c1 .7 1.2 1.8 0 2.6M33.9-8s-1.6-1.1-.2-2.3.8-1.9-.2-2.5-1.3-1.7-.2-2.6m3 5.4s1.3-1.4 2.3.1 1.8 1 2.5.1 1.8-1.1 2.6.1M29-22.5s1.9.1 1.4 1.8.3 2 1.5 2 2 .7 1.6 2.1M25-18.8s-.2 1.9 1.6 1.7c1.8-.3 1.9.6 1.7 1.8-.2 1.2.4 2.1 1.8 1.9m-10.8-4.3s.5-1.9 2.1-1 2 .1 2.2-1.1 1.1-1.9 2.4-1.1M10.8-31.5s1.9-.1 1.4-1.8.3-2 1.5-2 2-.7 1.6-2.1m11.6 26.6s-1.8-.8-2.1 1-1.2 1.6-2.2 1.1c-1-.6-2.1-.3-2.4 1.2m21.6-7.4s-.5 1.9-2.1 1c-1.6-.9-2-.1-2.2 1.1-.2 1.2-1.1 1.9-2.4 1.2M38-9.3s-.1 1.9-1.8 1.5c-1.7-.5-2 .4-1.9 1.5.1 1.2-.6 2.1-2 1.7m1.9-10.7s.9-1.7 2.3-.5c1.3 1.2 1.9.6 2.4-.5s1.5-1.5 2.6-.5"/><path class="st1" d="M29.5-10.1s-.9-1.7.8-2.1c1.8-.4 1.5-1.3.9-2.3s-.5-2.1 1-2.5m-.3-4.8s1.9-.4 1.8 1.4.8 1.9 1.9 1.5 2.2.2 2.1 1.6m3.6-14.4s1.9-.2 1.7 1.5c-.2 1.8.7 1.9 1.8 1.7 1.2-.3 2.1.3 2 1.8m-6.2 14.1s1.1 1.6 2.3.2c1.2-1.4 1.9-.8 2.5.2s1.7 1.4 2.6.2M31.4-8.4s-1.7.9-.5 2.2c1.2 1.4.5 2-.6 2.4s-1.6 1.4-.6 2.6m-6.3 1s-1.7-1-.4-2.3c1.3-1.3.7-1.9-.4-2.4s-1.5-1.6-.4-2.6m-2.6.5s.6 1.9-1.2 1.9c-1.8.1-1.8 1-1.3 2.1.4 1.1 0 2.1-1.4 2.2M9-22s-1.1 1.6-2.3.3c-1.2-1.3-1.9-.7-2.4.3S2.7-20 1.7-21m9.4-1s-1.9-.2-1.3-1.9c.6-1.7-.2-2-1.4-2s-2-.8-1.5-2.2m-1.7 8.3s1.6-1.1 2.2.6 1.5 1.4 2.4.6 2-.7 2.5.7M9.6-8.4s-.4 1.9-2 1.2C6-8 5.6-7.2 5.5-6s-.9 1.9-2.3 1.3M2.3-10s1.3-1.4 2.3.1 1.8 1 2.5.1 1.8-1.1 2.6.1m-1.9-5.2s-.5 1.9-2.1 1c-1.6-.9-2-.1-2.2 1.1-.2 1.2-1.1 1.9-2.4 1.2m-.9-3.7s.9-1.7 2.3-.5c1.3 1.2 1.9.6 2.4-.5s1.5-1.5 2.6-.5m-.2-14.9s1.9-.2 1.7 1.5c-.2 1.8.7 1.9 1.8 1.7s2.1.3 2 1.8M6.5-12.6s1.1 1.6 2.3.2c1.2-1.4 1.9-.8 2.5.2s1.7 1.4 2.6.2m.3-29.8s.4 1.9-1.4 1.9-1.8.9-1.5 2c.3 1.1-.1 2.2-1.6 2.1m33.9-6.6s-.3 1.9-2 1.2c-1.6-.7-2 .1-2.1 1.2-.1 1.1-.9 1.9-2.3 1.3"/><path class="st1" d="M11.1-43.7s.6 1.9 2.1.9 2-.2 2.3 1c.2 1.2 1.1 1.8 2.4 1.1m10 1.2s1.9-.2 1.3-1.9c-.6-1.7.2-2 1.4-2s2-.8 1.5-2.1m-5.8 1.8s1.5 1.2 0 2.3c-1.5 1.1-.9 1.8 0 2.5 1 .7 1.2 1.8 0 2.6m11.7-7s-.1 1.9-1.8 1.5c-1.7-.5-2 .4-1.9 1.5.1 1.2-.6 2.1-2 1.7"/><path class="st1" d="M31.4-42.4s-1.7.9-.5 2.2c1.2 1.4.5 2-.6 2.4-1.1.4-1.6 1.5-.6 2.6m-6.3.9s-1.7-1-.4-2.3c1.3-1.3.7-1.9-.4-2.4s-1.5-1.5-.4-2.6m-2.6.5s.6 1.9-1.2 1.9c-1.8.1-1.8 1-1.3 2.1.4 1.1 0 2.2-1.4 2.2m-6.1-7.5s-.4 1.9-2 1.2c-1.6-.8-2 0-2.1 1.2-.1 1.1-1 1.9-2.3 1.3"/></pattern><path fill="url(#SVGID_0000006002183134213359064)" d="M500 0H0v500h500z"/></svg>