<svg version="1.1" id="Calque_1" xmlns="http://www.w3.org/2000/svg" xmlns:xlink="http://www.w3.org/1999/xlink" x="0" y="0" viewBox="0 0 321.3 429.3" xml:space="preserve"><style>.st0{fill:none}.st1,.st2{fill:none;stroke:#fcbc00}.st1{stroke-width:.2362;stroke-linecap:square;stroke-linejoin:bevel}.st2{stroke-width:.3493}.st4{fill:#fcbc00}.st5{fill:none;stroke:#fcbc00;stroke-width:1.5;stroke-linecap:round;stroke-linejoin:round;stroke-miterlimit:10}</style><pattern x="-136.3" y="640.6" width="595.3" height="841.9" patternUnits="userSpaceOnUse" id="SVGID_0000000378417528855695885" viewBox="0 -841.9 595.3 841.9" overflow="visible"><path class="st0" d="M0-841.9h595.3V0H0z"/></pattern><pattern x="-136.3" y="640.6" width="595.3" height="841.9" patternUnits="userSpaceOnUse" id="SVGID_0000001171734644320757063" viewBox="0 -841.9 595.3 841.9" overflow="visible"><path class="st0" d="M0-841.9h595.3V0H0z"/></pattern><pattern x="-136.3" y="640.6" width="595.3" height="841.9" patternUnits="userSpaceOnUse" id="SVGID_0000005064440455251170207" viewBox="0 -841.9 595.3 841.9" overflow="visible"><path class="st0" d="M0-841.9h595.3V0H0z"/></pattern><pattern x="-136.3" y="640.6" width="56.7" height="56.7" patternUnits="userSpaceOnUse" id="SVGID_0000010034041388315582057" viewBox="56.9 -113.5 56.7 56.7" overflow="visible"><path class="st0" d="M56.9-113.5h56.7v56.7H56.9z"/><path class="st0" d="M56.9-113.5h56.7v56.7H56.9z"/><path class="st1" d="M113.5-113.6l56.7-56.6m0 56.6l-56.7-56.6m52 56.6l-54.3-54.3m49.6 54.3l-49.6-49.6m44.9 49.6l-44.9-44.8m40.1 44.8l-40.1-40.1m35.4 40.1L111.2-149m30.7 35.4l-30.7-30.7m26 30.7l-26-26m21.2 26l-21.2-21.2m16.5 21.2l-16.5-16.5m11.8 16.5l-11.8-11.8m7.1 11.8l-7.1-7.1m2.3 7.1l-2.3-2.4m-54.3 2.4l56.6-56.6m-51.9 56.6l54.3-54.3m-49.6 54.3l49.6-49.6M71-113.6l44.9-44.8m-40.2 44.8l40.2-40.1m-35.4 40.1l35.4-35.4m-30.7 35.4l30.7-30.7m-26 30.7l26-26m-21.3 26l21.3-21.2m-16.5 21.2l16.5-16.5m-11.8 16.5l11.8-11.8m-7.1 11.8l7.1-7.1m-2.4 7.1l2.4-2.3m-2.4 2.3l-56.6-56.6m51.9 56.6l-54.3-54.3m49.6 54.3l-49.6-49.6m44.9 49.6l-44.9-44.8m40.1 44.8l-40.1-40.1m35.4 40.1L54.5-149m30.7 35.4l-30.7-30.7m26 30.7l-26-26m21.2 26l-21.2-21.2M71-113.6l-16.5-16.5m11.8 16.5l-11.8-11.8m7.1 11.8l-7.1-7.1m2.4 7.1l-2.4-2.4M.2-113.6l56.6-56.6M4.9-113.6l54.3-54.3M9.6-113.6l49.6-49.6m-44.9 49.6l44.9-44.8m-40.1 44.8l40.1-40.1m-35.4 40.1L59.2-149m-30.7 35.4l30.7-30.7m-26 30.7l26-26m-21.2 26l21.2-21.2m-16.5 21.2l16.5-16.5m-11.8 16.5l11.8-11.8m-7.1 11.8l7.1-7.1m-2.4 7.1l2.4-2.3m-2.4 2.3L.2-170.2M113.5-56.9l56.7-56.6m-59 54.3l54.3-54.3m-54.3 49.6l49.6-49.6m-49.6 44.8l44.9-44.8m-44.9 40.1l40.1-40.1m-40.1 35.4l35.4-35.4m-35.4 30.7l30.7-30.7m-30.7 26l26-26m-26 21.2l21.2-21.2M111.2-97l16.5-16.5m-16.5 11.8l11.8-11.8m-11.8 7.1l7.1-7.1m-7.1 2.4l2.3-2.4m56.7 56.6l-56.7-56.6m52 56.6l-54.3-54.3m49.6 54.3l-49.6-49.6m44.9 49.6l-44.9-44.8m40.1 44.8L111.2-97m35.4 40.1l-35.4-35.4m30.7 35.4l-30.7-30.7m26 30.7l-26-26m21.2 26l-21.2-21.2m16.5 21.2l-16.5-16.5M123-56.9l-11.8-11.8m7.1 11.8l-7.1-7.1m2.3 7.1l-2.3-2.4m-54.3 2.4l56.6-56.6m-59 54.3l54.3-54.3M54.5-63.9l49.6-49.6M54.5-68.7l44.9-44.8M54.5-73.4l40.1-40.1M54.5-78.1l35.4-35.4M54.5-82.8l30.7-30.7m-30.7 26l26-26m-26 21.2l21.2-21.2M54.5-97L71-113.5m-16.5 11.8l11.8-11.8m-11.8 7.1l7.1-7.1m-7.1 2.4l2.4-2.4m4.7 56.6l54.3-54.3M66.3-56.9l49.6-49.6M71-56.9l44.9-44.8M75.7-56.9L115.9-97M80.5-56.9l35.4-35.4M85.2-56.9l30.7-30.7m-26 30.7l26-26m-21.3 26l21.3-21.2M99.4-56.9l16.5-16.5m-11.8 16.5l11.8-11.8m-7.1 11.8l7.1-7.1m-2.4 7.1l2.4-2.4m-2.4 2.4l-56.6-56.6m51.9 56.6l-54.3-54.3m49.6 54.3l-49.6-49.6m44.9 49.6l-44.9-44.8m40.1 44.8L54.5-97m35.4 40.1L54.5-92.3m30.7 35.4L54.5-87.6m26 30.7l-26-26m21.2 26L54.5-78.1M71-56.9L54.5-73.4m11.8 16.5L54.5-68.7m7.1 11.8L54.5-64m2.4 7.1l-2.4-2.4m61.4.1l-54.3-54.3m54.3 49.6l-49.6-49.6m49.6 44.8L71-113.5m44.9 40.1l-40.2-40.1m40.2 35.4l-35.4-35.4m35.4 30.7l-30.7-30.7m30.7 26l-26-26m26 21.2l-21.3-21.2M115.9-97l-16.5-16.5m16.5 11.8l-11.8-11.8m11.8 7.1l-7.1-7.1m7.1 2.3l-2.4-2.3M.2-56.9l56.6-56.6M4.9-56.9l54.3-54.3M9.6-56.9l49.6-49.6M14.3-56.9l44.9-44.8M19.1-56.9L59.2-97M23.8-56.9l35.4-35.4M28.5-56.9l30.7-30.7m-26 30.7l26-26M38-56.9l21.2-21.2M42.7-56.9l16.5-16.5M47.4-56.9l11.8-11.8m-7.1 11.8l7.1-7.1m-2.4 7.1l2.4-2.4m-2.4 2.4L.2-113.5m59 54.3L4.9-113.5m54.3 49.6L9.6-113.5m49.6 44.8l-44.9-44.8m44.9 40.1l-40.1-40.1m40.1 35.4l-35.4-35.4m35.4 30.7l-30.7-30.7m30.7 26l-26-26m26 21.2L38-113.5M59.2-97l-16.5-16.5m16.5 11.8l-11.8-11.8m11.8 7.1l-7.1-7.1m7.1 2.3l-2.4-2.3M113.5-.2l56.7-56.7m-59 54.4l54.3-54.4M111.2-7.2l49.6-49.7M111.2-12l44.9-44.9m-44.9 40.2l40.1-40.2m-40.1 35.5l35.4-35.5m-35.4 30.8l30.7-30.8m-30.7 26l26-26m-26 21.3l21.2-21.3m-21.2 16.6l16.5-16.6M111.2-45L123-56.9m-11.8 7.2l7.1-7.2m-7.1 2.4l2.3-2.4M170.2-.2l-56.7-56.7M56.9-.2l56.6-56.7m-59 54.4l54.3-54.4M54.5-7.2l49.6-49.7M54.5-12l44.9-44.9M54.5-16.7l40.1-40.2M54.5-21.4l35.4-35.5M54.5-26.1l30.7-30.8m-30.7 26l26-26m-26 21.3l21.2-21.3M54.5-40.3L71-56.9M54.5-45l11.8-11.9m-11.8 7.2l7.1-7.2m-7.1 2.4l2.4-2.4M113.5-.2L56.9-56.9m59 54.4L61.6-56.9m54.3 49.7L66.3-56.9M115.9-12L71-56.9m44.9 40.2L75.7-56.9m40.2 35.5L80.5-56.9m35.4 30.8L85.2-56.9m30.7 26l-26-26m26 21.3L94.6-56.9m21.3 16.6L99.4-56.9M115.9-45l-11.8-11.9m11.8 7.2l-7.1-7.2m7.1 2.4l-2.4-2.4M.2-.2l56.6-56.7m0 56.7L.2-56.9m59 54.4L4.9-56.9M59.2-7.2L9.6-56.9M59.2-12L14.3-56.9m44.9 40.2L19.1-56.9m40.1 35.5L23.8-56.9m35.4 30.8L28.5-56.9m30.7 26l-26-26m26 21.3L38-56.9m21.2 16.6L42.7-56.9M59.2-45L47.4-56.9m11.8 7.2l-7.1-7.2m7.1 2.4l-2.4-2.4"/></pattern><pattern x="-136.3" y="640.6" width="595.3" height="841.9" patternUnits="userSpaceOnUse" id="SVGID_0000011332588768841984259" viewBox="0 -841.9 595.3 841.9" overflow="visible"><path class="st0" d="M0-841.9h595.3V0H0z"/></pattern><pattern x="-136.3" y="640.6" width="595.3" height="841.9" patternUnits="userSpaceOnUse" id="SVGID_0000012847345050850860504" viewBox="0 -841.9 595.3 841.9" overflow="visible"><path class="st0" d="M0-841.9h595.3V0H0z"/></pattern><pattern x="-136.3" y="640.6" width="34" height="34" patternUnits="userSpaceOnUse" id="SVGID_0000013639360474283083134" viewBox="7.3 -38.8 34 34" overflow="visible"><path class="st0" d="M7.3-38.8h34v34h-34z"/><path class="st0" d="M7.3-38.8h34v34h-34z"/><path class="st2" d="M16.5-15.2s1.8.8 2.1-1c.3-1.8 1.2-1.6 2.2-1s2.1.3 2.4-1.1m17.8-3s-1.2-1.5-2.3-.1c-1.1 1.4-1.8.9-2.5-.1s-1.7-1.3-2.6-.1m-5.2.1s-1.8.8-.7 2.2c1.1 1.4.4 2-.7 2.4s-1.7 1.4-.8 2.5m3.2-5.1s1.9.4 1.1 2 0 2 1.2 2.2c1.2.1 1.9 1 1.3 2.3m2.9-1.9s1.9.4 1.1 2c-.8 1.6 0 2 1.2 2.2 1.2.1 1.9 1 1.2 2.3M23-23.9s1.7.9.5 2.2c-1.2 1.3-.6 2 .5 2.4 1.1.5 1.6 1.5.6 2.6m-9.5-1.9s.6-1.9-1.2-2c-1.8-.1-1.8-1-1.3-2.1s.1-2.1-1.4-2.2m2.6-2.2s-.9 1.7.8 2.2c1.7.5 1.5 1.3.9 2.3-.7 1-.5 2.1.9 2.5"/><path class="st2" d="M19.8-15.9s.6 1.8 2.1.9 2-.2 2.3.9c.3 1.2 1.2 1.8 2.5 1M16-28.7s-.8 1.8.9 2.1 1.6 1.2 1 2.2c-.6 1-.4 2.1 1.1 2.4m2.4-4s-1.6 1.1-.2 2.3c1.4 1.2.8 1.9-.2 2.5-1 .6-1.4 1.6-.3 2.6m-5.3-17.1s.1 1.9 1.9 1.4 2 .3 2 1.5.7 2 2.1 1.6m2.6-1.4s-.2-1.9-1.9-1.3c-1.7.6-2-.2-2-1.4s-.8-2-2.1-1.5m1.4 16.1s-1.9-.1-1.6 1.7-.5 2-1.7 1.8-2.1.5-1.8 1.9M25.5-21s-.7-1.8 1.1-2c1.8-.2 1.7-1.1 1.2-2.2s-.2-2.1 1.3-2.3m-17.3-1.7s.9-1.7 2.2-.5c1.4 1.2 2 .5 2.4-.6s1.5-1.6 2.6-.6m21.3 18.3s1.2-1.6-.5-2.2c-1.7-.7-1.3-1.5-.6-2.4.8-.9.8-2-.6-2.6m-.4 5.2s-1.9-.4-1.1-2c.8-1.6 0-2-1.2-2.2s-1.9-1-1.3-2.3"/><path class="st2" d="M18.2-8.3s1.9-.1 1.4-1.8.3-2 1.5-2 2-.7 1.6-2.1m5.9-1.1s-1.9.5-1 2.1c.9 1.6.1 2-1.1 2.2-1.2.2-1.9 1-1.2 2.3m-6.6-2.9s-1.9.6-2-1.2-1-1.8-2.1-1.3-2.2.1-2.2-1.4m1.8-22.3s.4-1.9-1.4-1.9-1.8-.9-1.5-2-.1-2.2-1.6-2.1M43-23.6s-1.1-1.6-2.3-.3c-1.2 1.3-1.9.7-2.5-.3-.5-1-1.6-1.4-2.6-.4M33.7-8.7s.5-1.9-1.4-1.9-1.8-.9-1.5-2c.4-1.1-.1-2.1-1.6-2.1m1.5-8.1s-.8 1.8 1 2.1c1.8.3 1.7 1.2 1.1 2.2-.6 1-.3 2.1 1.2 2.4m11.1-7.5s-1.9.2-1.3 1.9c.6 1.7-.2 2-1.4 2s-2 .8-1.5 2.2m-1.7-8.3s1.6 1.1 2.2-.6c.6-1.7 1.5-1.4 2.4-.7.9.8 2 .7 2.5-.7m-2.7-9.4s-.3-1.9-2-1.2c-1.6.8-2 0-2.1-1.2-.1-1.2-.9-1.9-2.3-1.3M23.7-28.4s1.9-.3 1.3-1.9.2-2 1.3-2.1c1.2 0 2-.8 1.4-2.2m-10.6 6.4s.6-1.9 2.1-.9c1.5.9 2 .2 2.3-1 .2-1.2 1.1-1.8 2.4-1.1"/><path class="st2" d="M11.1-35.9s.6-1.9 2.1-.9 2 .2 2.3-1c.2-1.2 1.1-1.8 2.4-1.1m10-1.2s1.9.2 1.3 1.9c-.6 1.7.3 2 1.5 2s2 .8 1.5 2.1m-5.9-1.8s1.5-1.2 0-2.3c-1.5-1.1-.9-1.8 0-2.5 1-.7 1.2-1.8 0-2.6m7.6 5.7s-1.6 1.1-.2 2.3.8 1.9-.2 2.5c-1 .6-1.3 1.7-.2 2.6m3-5.4s1.3 1.4 2.3-.1c1-1.5 1.8-1 2.5-.1s1.8 1.1 2.6-.1M29-23.1s1.9-.1 1.4-1.8.3-2 1.5-2 2-.7 1.6-2.1M25-26.8s-.2-1.9 1.6-1.7c1.8.3 1.9-.6 1.7-1.8-.2-1.2.4-2.1 1.8-1.9m-10.8 4.3s.5 1.9 2.1 1c1.6-.9 2-.1 2.2 1.1.2 1.2 1.1 1.9 2.4 1.1M10.8-14.1s1.9.1 1.4 1.8.3 2 1.5 2 2 .7 1.6 2.1m11.6-26.6s-1.8.8-2.1-1-1.2-1.6-2.2-1.1c-1 .6-2.1.3-2.4-1.2m21.6 7.4s-.5-1.9-2.1-1c-1.6.9-2 .1-2.2-1.1-.2-1.2-1.1-1.9-2.4-1.2m2.9-2.3s-.1-1.9-1.8-1.5c-1.7.5-2-.4-1.9-1.5.1-1.2-.6-2.1-2-1.7m1.9 10.7s.9 1.7 2.3.5c1.3-1.2 1.9-.6 2.4.5s1.5 1.5 2.6.5"/><path class="st2" d="M29.5-35.5s-.9 1.7.8 2.1c1.8.4 1.5 1.3.9 2.3s-.5 2.1 1 2.5m-.3 4.8s1.9.4 1.8-1.4c-.1-1.8.8-1.9 1.9-1.5s2.2-.2 2.1-1.6m3.6 14.4s1.9.2 1.7-1.5c-.2-1.8.7-1.9 1.8-1.7 1.2.3 2.1-.3 2-1.8M40.6-33s1.1-1.6 2.3-.2c1.2 1.4 1.9.8 2.5-.2.6-1 1.7-1.4 2.6-.2m-16.6-3.6s-1.7-.9-.5-2.2c1.2-1.4.5-2-.6-2.4-1.1-.4-1.6-1.4-.6-2.6m-6.3-1s-1.7 1-.4 2.3c1.3 1.3.7 1.9-.4 2.4s-1.5 1.6-.4 2.6m-2.6-.5s.6-1.9-1.2-1.9c-1.8-.1-1.8-1-1.3-2.1.4-1.1 0-2.1-1.4-2.2M9-23.6s-1.1-1.6-2.3-.3c-1.2 1.3-1.9.7-2.4-.3s-1.6-1.4-2.6-.4m9.4 1s-1.9.2-1.3 1.9c.6 1.7-.2 2-1.4 2s-2 .8-1.5 2.2m-1.7-8.3s1.6 1.1 2.2-.6c.6-1.7 1.5-1.4 2.4-.6s2 .7 2.5-.7m-2.7-9.5s-.4-1.9-2-1.2c-1.6.8-2 0-2.1-1.2-.1-1.2-.9-1.9-2.3-1.3m-.9 5.3s1.3 1.4 2.3-.1c1-1.5 1.8-1 2.5-.1s1.8 1.1 2.6-.1m-1.9 5.2s-.5-1.9-2.1-1c-1.6.9-2 .1-2.2-1.1-.2-1.2-1.1-1.9-2.4-1.2m-.9 3.7s.9 1.7 2.3.5c1.3-1.2 1.9-.6 2.4.5s1.5 1.5 2.6.5m-.2 14.9s1.9.2 1.7-1.5c-.2-1.8.7-1.9 1.8-1.7s2.1-.3 2-1.8M6.5-33s1.1-1.6 2.3-.2c1.2 1.4 1.9.8 2.5-.2.6-1 1.7-1.4 2.6-.2m.3 29.8s.4-1.9-1.4-1.9-1.8-.9-1.5-2-.1-2.2-1.6-2.1m33.9 6.6s-.3-1.9-2-1.2c-1.6.7-2-.1-2.1-1.2s-.9-1.9-2.3-1.3"/><path class="st2" d="M11.1-1.9s.6-1.9 2.1-.9 2 .2 2.3-1c.2-1.2 1.1-1.8 2.4-1.1m10-1.2s1.9.2 1.3 1.9c-.6 1.7.2 2 1.4 2s2 .8 1.5 2.1m-5.8-1.8s1.5-1.2 0-2.3c-1.5-1.1-.9-1.8 0-2.5 1-.7 1.2-1.8 0-2.6m11.7 7s-.1-1.9-1.8-1.5c-1.7.5-2-.4-1.9-1.5.1-1.2-.6-2.1-2-1.7"/><path class="st2" d="M31.4-3.2s-1.7-.9-.5-2.2c1.2-1.4.5-2-.6-2.4-1.1-.4-1.6-1.5-.6-2.6m-6.3-.9s-1.7 1-.4 2.3c1.3 1.3.7 1.9-.4 2.4s-1.5 1.5-.4 2.6m-2.6-.5s.6-1.9-1.2-1.9c-1.8-.1-1.8-1-1.3-2.1.4-1.1 0-2.2-1.4-2.2M9.6-3.2s-.4-1.9-2-1.2c-1.6.8-2 0-2.1-1.2-.1-1.1-1-1.9-2.3-1.3"/></pattern><pattern x="-136.3" y="640.6" width="34" height="34" patternUnits="userSpaceOnUse" id="SVGID_0000015009461004861726605" viewBox="7.3 -38.8 34 34" overflow="visible"><path class="st0" d="M7.3-38.8h34v34h-34z"/><path class="st0" d="M7.3-38.8h34v34h-34z"/><path class="st2" d="M16.5-15.2s1.8.8 2.1-1c.3-1.8 1.2-1.6 2.2-1s2.1.3 2.4-1.1m17.8-3s-1.2-1.5-2.3-.1c-1.1 1.4-1.8.9-2.5-.1s-1.7-1.3-2.6-.1m-5.2.1s-1.8.8-.7 2.2c1.1 1.4.4 2-.7 2.4s-1.7 1.4-.8 2.5m3.2-5.1s1.9.4 1.1 2 0 2 1.2 2.2c1.2.1 1.9 1 1.3 2.3m2.9-1.9s1.9.4 1.1 2c-.8 1.6 0 2 1.2 2.2 1.2.1 1.9 1 1.2 2.3M23-23.9s1.7.9.5 2.2c-1.2 1.3-.6 2 .5 2.4 1.1.5 1.6 1.5.6 2.6m-9.5-1.9s.6-1.9-1.2-2c-1.8-.1-1.8-1-1.3-2.1s.1-2.1-1.4-2.2m2.6-2.2s-.9 1.7.8 2.2c1.7.5 1.5 1.3.9 2.3-.7 1-.5 2.1.9 2.5"/><path class="st2" d="M19.8-15.9s.6 1.8 2.1.9 2-.2 2.3.9c.3 1.2 1.2 1.8 2.5 1M16-28.7s-.8 1.8.9 2.1 1.6 1.2 1 2.2c-.6 1-.4 2.1 1.1 2.4m2.4-4s-1.6 1.1-.2 2.3c1.4 1.2.8 1.9-.2 2.5-1 .6-1.4 1.6-.3 2.6m-5.3-17.1s.1 1.9 1.9 1.4 2 .3 2 1.5.7 2 2.1 1.6m2.6-1.4s-.2-1.9-1.9-1.3c-1.7.6-2-.2-2-1.4s-.8-2-2.1-1.5m1.4 16.1s-1.9-.1-1.6 1.7-.5 2-1.7 1.8-2.1.5-1.8 1.9M25.5-21s-.7-1.8 1.1-2c1.8-.2 1.7-1.1 1.2-2.2s-.2-2.1 1.3-2.3m-17.3-1.7s.9-1.7 2.2-.5c1.4 1.2 2 .5 2.4-.6s1.5-1.6 2.6-.6m21.3 18.3s1.2-1.6-.5-2.2c-1.7-.7-1.3-1.5-.6-2.4.8-.9.8-2-.6-2.6m-.4 5.2s-1.9-.4-1.1-2c.8-1.6 0-2-1.2-2.2s-1.9-1-1.3-2.3"/><path class="st2" d="M18.2-8.3s1.9-.1 1.4-1.8.3-2 1.5-2 2-.7 1.6-2.1m5.9-1.1s-1.9.5-1 2.1c.9 1.6.1 2-1.1 2.2-1.2.2-1.9 1-1.2 2.3m-6.6-2.9s-1.9.6-2-1.2-1-1.8-2.1-1.3-2.2.1-2.2-1.4m1.8-22.3s.4-1.9-1.4-1.9-1.8-.9-1.5-2-.1-2.2-1.6-2.1M43-23.6s-1.1-1.6-2.3-.3c-1.2 1.3-1.9.7-2.5-.3-.5-1-1.6-1.4-2.6-.4M33.7-8.7s.5-1.9-1.4-1.9-1.8-.9-1.5-2c.4-1.1-.1-2.1-1.6-2.1m1.5-8.1s-.8 1.8 1 2.1c1.8.3 1.7 1.2 1.1 2.2-.6 1-.3 2.1 1.2 2.4m11.1-7.5s-1.9.2-1.3 1.9c.6 1.7-.2 2-1.4 2s-2 .8-1.5 2.2m-1.7-8.3s1.6 1.1 2.2-.6c.6-1.7 1.5-1.4 2.4-.7.9.8 2 .7 2.5-.7m-2.7-9.4s-.3-1.9-2-1.2c-1.6.8-2 0-2.1-1.2-.1-1.2-.9-1.9-2.3-1.3M23.7-28.4s1.9-.3 1.3-1.9.2-2 1.3-2.1c1.2 0 2-.8 1.4-2.2m-10.6 6.4s.6-1.9 2.1-.9c1.5.9 2 .2 2.3-1 .2-1.2 1.1-1.8 2.4-1.1"/><path class="st2" d="M11.1-35.9s.6-1.9 2.1-.9 2 .2 2.3-1c.2-1.2 1.1-1.8 2.4-1.1m10-1.2s1.9.2 1.3 1.9c-.6 1.7.3 2 1.5 2s2 .8 1.5 2.1m-5.9-1.8s1.5-1.2 0-2.3c-1.5-1.1-.9-1.8 0-2.5 1-.7 1.2-1.8 0-2.6m7.6 5.7s-1.6 1.1-.2 2.3.8 1.9-.2 2.5c-1 .6-1.3 1.7-.2 2.6m3-5.4s1.3 1.4 2.3-.1c1-1.5 1.8-1 2.5-.1s1.8 1.1 2.6-.1M29-23.1s1.9-.1 1.4-1.8.3-2 1.5-2 2-.7 1.6-2.1M25-26.8s-.2-1.9 1.6-1.7c1.8.3 1.9-.6 1.7-1.8-.2-1.2.4-2.1 1.8-1.9m-10.8 4.3s.5 1.9 2.1 1c1.6-.9 2-.1 2.2 1.1.2 1.2 1.1 1.9 2.4 1.1M10.8-14.1s1.9.1 1.4 1.8.3 2 1.5 2 2 .7 1.6 2.1m11.6-26.6s-1.8.8-2.1-1-1.2-1.6-2.2-1.1c-1 .6-2.1.3-2.4-1.2m21.6 7.4s-.5-1.9-2.1-1c-1.6.9-2 .1-2.2-1.1-.2-1.2-1.1-1.9-2.4-1.2m2.9-2.3s-.1-1.9-1.8-1.5c-1.7.5-2-.4-1.9-1.5.1-1.2-.6-2.1-2-1.7m1.9 10.7s.9 1.7 2.3.5c1.3-1.2 1.9-.6 2.4.5s1.5 1.5 2.6.5"/><path class="st2" d="M29.5-35.5s-.9 1.7.8 2.1c1.8.4 1.5 1.3.9 2.3s-.5 2.1 1 2.5m-.3 4.8s1.9.4 1.8-1.4c-.1-1.8.8-1.9 1.9-1.5s2.2-.2 2.1-1.6m3.6 14.4s1.9.2 1.7-1.5c-.2-1.8.7-1.9 1.8-1.7 1.2.3 2.1-.3 2-1.8M40.6-33s1.1-1.6 2.3-.2c1.2 1.4 1.9.8 2.5-.2.6-1 1.7-1.4 2.6-.2m-16.6-3.6s-1.7-.9-.5-2.2c1.2-1.4.5-2-.6-2.4-1.1-.4-1.6-1.4-.6-2.6m-6.3-1s-1.7 1-.4 2.3c1.3 1.3.7 1.9-.4 2.4s-1.5 1.6-.4 2.6m-2.6-.5s.6-1.9-1.2-1.9c-1.8-.1-1.8-1-1.3-2.1.4-1.1 0-2.1-1.4-2.2M9-23.6s-1.1-1.6-2.3-.3c-1.2 1.3-1.9.7-2.4-.3s-1.6-1.4-2.6-.4m9.4 1s-1.9.2-1.3 1.9c.6 1.7-.2 2-1.4 2s-2 .8-1.5 2.2m-1.7-8.3s1.6 1.1 2.2-.6c.6-1.7 1.5-1.4 2.4-.6s2 .7 2.5-.7m-2.7-9.5s-.4-1.9-2-1.2c-1.6.8-2 0-2.1-1.2-.1-1.2-.9-1.9-2.3-1.3m-.9 5.3s1.3 1.4 2.3-.1c1-1.5 1.8-1 2.5-.1s1.8 1.1 2.6-.1m-1.9 5.2s-.5-1.9-2.1-1c-1.6.9-2 .1-2.2-1.1-.2-1.2-1.1-1.9-2.4-1.2m-.9 3.7s.9 1.7 2.3.5c1.3-1.2 1.9-.6 2.4.5s1.5 1.5 2.6.5m-.2 14.9s1.9.2 1.7-1.5c-.2-1.8.7-1.9 1.8-1.7s2.1-.3 2-1.8M6.5-33s1.1-1.6 2.3-.2c1.2 1.4 1.9.8 2.5-.2.6-1 1.7-1.4 2.6-.2m.3 29.8s.4-1.9-1.4-1.9-1.8-.9-1.5-2-.1-2.2-1.6-2.1m33.9 6.6s-.3-1.9-2-1.2c-1.6.7-2-.1-2.1-1.2s-.9-1.9-2.3-1.3"/><path class="st2" d="M11.1-1.9s.6-1.9 2.1-.9 2 .2 2.3-1c.2-1.2 1.1-1.8 2.4-1.1m10-1.2s1.9.2 1.3 1.9c-.6 1.7.2 2 1.4 2s2 .8 1.5 2.1m-5.8-1.8s1.5-1.2 0-2.3c-1.5-1.1-.9-1.8 0-2.5 1-.7 1.2-1.8 0-2.6m11.7 7s-.1-1.9-1.8-1.5c-1.7.5-2-.4-1.9-1.5.1-1.2-.6-2.1-2-1.7"/><path class="st2" d="M31.4-3.2s-1.7-.9-.5-2.2c1.2-1.4.5-2-.6-2.4-1.1-.4-1.6-1.5-.6-2.6m-6.3-.9s-1.7 1-.4 2.3c1.3 1.3.7 1.9-.4 2.4s-1.5 1.5-.4 2.6m-2.6-.5s.6-1.9-1.2-1.9c-1.8-.1-1.8-1-1.3-2.1.4-1.1 0-2.2-1.4-2.2M9.6-3.2s-.4-1.9-2-1.2c-1.6.8-2 0-2.1-1.2-.1-1.1-1-1.9-2.3-1.3"/></pattern><pattern x="-136.3" y="640.6" width="595.3" height="841.9" patternUnits="userSpaceOnUse" id="SVGID_0000015154456923920593676" viewBox="0 -841.9 595.3 841.9" overflow="visible"><path class="st0" d="M0-841.9h595.3V0H0z"/></pattern><pattern x="-136.3" y="640.6" width="595.3" height="841.9" patternUnits="userSpaceOnUse" id="SVGID_0000015295423040911153719" viewBox="0 -841.9 595.3 841.9" overflow="visible"><path class="st0" d="M0-841.9h595.3V0H0z"/></pattern><pattern x="-136.3" y="640.6" width="595.3" height="841.9" patternUnits="userSpaceOnUse" id="SVGID_0000016088415273873870520" viewBox="0 -841.9 595.3 841.9" overflow="visible"><path class="st0" d="M0-841.9h595.3V0H0z"/></pattern><pattern x="-136.3" y="640.6" width="595.3" height="841.9" patternUnits="userSpaceOnUse" id="SVGID_0000017529072859389089635" viewBox="0 -841.9 595.3 841.9" overflow="visible"><path class="st0" d="M0-841.9h595.3V0H0z"/></pattern><pattern x="-136.3" y="640.6" width="56.7" height="56.7" patternUnits="userSpaceOnUse" id="SVGID_1_" viewBox="56.9 -113.5 56.7 56.7" overflow="visible"><path class="st0" d="M56.9-113.5h56.7v56.7H56.9z"/><path class="st0" d="M56.9-113.5h56.7v56.7H56.9z"/><path class="st1" d="M113.5-113.6l56.7-56.6m0 56.6l-56.7-56.6m52 56.6l-54.3-54.3m49.6 54.3l-49.6-49.6m44.9 49.6l-44.9-44.8m40.1 44.8l-40.1-40.1m35.4 40.1L111.2-149m30.7 35.4l-30.7-30.7m26 30.7l-26-26m21.2 26l-21.2-21.2m16.5 21.2l-16.5-16.5m11.8 16.5l-11.8-11.8m7.1 11.8l-7.1-7.1m2.3 7.1l-2.3-2.4m-54.3 2.4l56.6-56.6m-51.9 56.6l54.3-54.3m-49.6 54.3l49.6-49.6M71-113.6l44.9-44.8m-40.2 44.8l40.2-40.1m-35.4 40.1l35.4-35.4m-30.7 35.4l30.7-30.7m-26 30.7l26-26m-21.3 26l21.3-21.2m-16.5 21.2l16.5-16.5m-11.8 16.5l11.8-11.8m-7.1 11.8l7.1-7.1m-2.4 7.1l2.4-2.3m-2.4 2.3l-56.6-56.6m51.9 56.6l-54.3-54.3m49.6 54.3l-49.6-49.6m44.9 49.6l-44.9-44.8m40.1 44.8l-40.1-40.1m35.4 40.1L54.5-149m30.7 35.4l-30.7-30.7m26 30.7l-26-26m21.2 26l-21.2-21.2M71-113.6l-16.5-16.5m11.8 16.5l-11.8-11.8m7.1 11.8l-7.1-7.1m2.4 7.1l-2.4-2.4M.2-113.6l56.6-56.6M4.9-113.6l54.3-54.3M9.6-113.6l49.6-49.6m-44.9 49.6l44.9-44.8m-40.1 44.8l40.1-40.1m-35.4 40.1L59.2-149m-30.7 35.4l30.7-30.7m-26 30.7l26-26m-21.2 26l21.2-21.2m-16.5 21.2l16.5-16.5m-11.8 16.5l11.8-11.8m-7.1 11.8l7.1-7.1m-2.4 7.1l2.4-2.3m-2.4 2.3L.2-170.2M113.5-56.9l56.7-56.6m-59 54.3l54.3-54.3m-54.3 49.6l49.6-49.6m-49.6 44.8l44.9-44.8m-44.9 40.1l40.1-40.1m-40.1 35.4l35.4-35.4m-35.4 30.7l30.7-30.7m-30.7 26l26-26m-26 21.2l21.2-21.2M111.2-97l16.5-16.5m-16.5 11.8l11.8-11.8m-11.8 7.1l7.1-7.1m-7.1 2.4l2.3-2.4m56.7 56.6l-56.7-56.6m52 56.6l-54.3-54.3m49.6 54.3l-49.6-49.6m44.9 49.6l-44.9-44.8m40.1 44.8L111.2-97m35.4 40.1l-35.4-35.4m30.7 35.4l-30.7-30.7m26 30.7l-26-26m21.2 26l-21.2-21.2m16.5 21.2l-16.5-16.5M123-56.9l-11.8-11.8m7.1 11.8l-7.1-7.1m2.3 7.1l-2.3-2.4m-54.3 2.4l56.6-56.6m-59 54.3l54.3-54.3M54.5-63.9l49.6-49.6M54.5-68.7l44.9-44.8M54.5-73.4l40.1-40.1M54.5-78.1l35.4-35.4M54.5-82.8l30.7-30.7m-30.7 26l26-26m-26 21.2l21.2-21.2M54.5-97L71-113.5m-16.5 11.8l11.8-11.8m-11.8 7.1l7.1-7.1m-7.1 2.4l2.4-2.4m4.7 56.6l54.3-54.3M66.3-56.9l49.6-49.6M71-56.9l44.9-44.8M75.7-56.9L115.9-97M80.5-56.9l35.4-35.4M85.2-56.9l30.7-30.7m-26 30.7l26-26m-21.3 26l21.3-21.2M99.4-56.9l16.5-16.5m-11.8 16.5l11.8-11.8m-7.1 11.8l7.1-7.1m-2.4 7.1l2.4-2.4m-2.4 2.4l-56.6-56.6m51.9 56.6l-54.3-54.3m49.6 54.3l-49.6-49.6m44.9 49.6l-44.9-44.8m40.1 44.8L54.5-97m35.4 40.1L54.5-92.3m30.7 35.4L54.5-87.6m26 30.7l-26-26m21.2 26L54.5-78.1M71-56.9L54.5-73.4m11.8 16.5L54.5-68.7m7.1 11.8L54.5-64m2.4 7.1l-2.4-2.4m61.4.1l-54.3-54.3m54.3 49.6l-49.6-49.6m49.6 44.8L71-113.5m44.9 40.1l-40.2-40.1m40.2 35.4l-35.4-35.4m35.4 30.7l-30.7-30.7m30.7 26l-26-26m26 21.2l-21.3-21.2M115.9-97l-16.5-16.5m16.5 11.8l-11.8-11.8m11.8 7.1l-7.1-7.1m7.1 2.3l-2.4-2.3M.2-56.9l56.6-56.6M4.9-56.9l54.3-54.3M9.6-56.9l49.6-49.6M14.3-56.9l44.9-44.8M19.1-56.9L59.2-97M23.8-56.9l35.4-35.4M28.5-56.9l30.7-30.7m-26 30.7l26-26M38-56.9l21.2-21.2M42.7-56.9l16.5-16.5M47.4-56.9l11.8-11.8m-7.1 11.8l7.1-7.1m-2.4 7.1l2.4-2.4m-2.4 2.4L.2-113.5m59 54.3L4.9-113.5m54.3 49.6L9.6-113.5m49.6 44.8l-44.9-44.8m44.9 40.1l-40.1-40.1m40.1 35.4l-35.4-35.4m35.4 30.7l-30.7-30.7m30.7 26l-26-26m26 21.2L38-113.5M59.2-97l-16.5-16.5m16.5 11.8l-11.8-11.8m11.8 7.1l-7.1-7.1m7.1 2.3l-2.4-2.3M113.5-.2l56.7-56.7m-59 54.4l54.3-54.4M111.2-7.2l49.6-49.7M111.2-12l44.9-44.9m-44.9 40.2l40.1-40.2m-40.1 35.5l35.4-35.5m-35.4 30.8l30.7-30.8m-30.7 26l26-26m-26 21.3l21.2-21.3m-21.2 16.6l16.5-16.6M111.2-45L123-56.9m-11.8 7.2l7.1-7.2m-7.1 2.4l2.3-2.4M170.2-.2l-56.7-56.7M56.9-.2l56.6-56.7m-59 54.4l54.3-54.4M54.5-7.2l49.6-49.7M54.5-12l44.9-44.9M54.5-16.7l40.1-40.2M54.5-21.4l35.4-35.5M54.5-26.1l30.7-30.8m-30.7 26l26-26m-26 21.3l21.2-21.3M54.5-40.3L71-56.9M54.5-45l11.8-11.9m-11.8 7.2l7.1-7.2m-7.1 2.4l2.4-2.4M113.5-.2L56.9-56.9m59 54.4L61.6-56.9m54.3 49.7L66.3-56.9M115.9-12L71-56.9m44.9 40.2L75.7-56.9m40.2 35.5L80.5-56.9m35.4 30.8L85.2-56.9m30.7 26l-26-26m26 21.3L94.6-56.9m21.3 16.6L99.4-56.9M115.9-45l-11.8-11.9m11.8 7.2l-7.1-7.2m7.1 2.4l-2.4-2.4M.2-.2l56.6-56.7m0 56.7L.2-56.9m59 54.4L4.9-56.9M59.2-7.2L9.6-56.9M59.2-12L14.3-56.9m44.9 40.2L19.1-56.9m40.1 35.5L23.8-56.9m35.4 30.8L28.5-56.9m30.7 26l-26-26m26 21.3L38-56.9m21.2 16.6L42.7-56.9M59.2-45L47.4-56.9m11.8 7.2l-7.1-7.2m7.1 2.4l-2.4-2.4"/></pattern><path d="M10.5 214.2c0-55.5 18.8-205.7 151.2-205.7s151.2 150.2 151.2 205.7S294 419.9 161.6 419.9 10.5 269.7 10.5 214.2z" fill="#34354a" stroke="#fcbc00" stroke-width="1.5" stroke-miterlimit="10"/><path class="st4" d="M97.1 92.4l.7-.8c.2.1.4.2.7.2.2 0 .5-.1.8-.3.2-.1.5-.4.7-.6.3-.4.5-.8.6-1.1s0-.6-.2-.8c-.2-.1-.4-.2-.6-.1s-.5.3-.8.6l-.9.9c-.5.5-1 .8-1.4.9-.4.1-.8 0-1.2-.3-.3-.2-.5-.5-.5-.9-.1-.3 0-.7.1-1.1.1-.4.4-.8.7-1.2.3-.4.7-.7 1.1-1s.8-.3 1.1-.4c.4 0 .7.1 1 .3l-.7.8c-.2-.1-.4-.2-.6-.1s-.4.1-.7.2c-.2.1-.4.4-.7.6-.3.4-.5.7-.6 1.1-.1.3 0 .6.2.8.2.1.4.2.6.1s.5-.2.8-.5l1-.9c.4-.4.7-.6 1-.8.3-.2.6-.2.8-.2s.5.1.8.4c.3.2.5.5.6.9s0 .8-.1 1.2-.4.9-.8 1.3c-.4.5-.8.8-1.2 1s-.8.4-1.2.4c-.5-.3-.8-.4-1.1-.6zm6.5-13.4l6.2 2.3-.8.8-5.8-2.2.3-.3 2 5.9-.8.8-2.1-6.3 1-1zm1.2 5.3l-.6-.6 3-2.9.6.6-3 2.9zm4.9-10.5l.8-.6 3.6 4.8-.8.6-3.6-4.8zm13.1-2.1l-.4.3-2.7-4.7.9-.5 3 5.2-1.2.7-6.3-2.6.3-.2 2.7 4.7-.9.5-3-5.2 1.2-.7 6.4 2.5zm2.7-7.2l5.6-2.2.3.9-5.6 2.2-.3-.9zm2.5-.5l1-.4 2 5.1-1 .4-2-5.1zm10.1-.6l.2 2.7-.6-.5 4.5-1.1.2.9-5.1 1.2-.2-3-1.2-2.8 5-1.2.2.9-4.5 1.1.4-.7 1.1 2.5zm3.3-1.2l.2.9-4.1 1-.2-.9 4.1-1zm5.2-.7l1.9-.2.1.9-1.9.2-.1-.9zm13.4-.2c0 .5-.2.9-.5 1.3s-.6.7-1.1.9-1 .4-1.6.4c-.7 0-1.3-.1-1.8-.3-.5-.2-.9-.6-1.2-1-.3-.5-.5-1-.5-1.6s.1-1.2.4-1.6c.3-.5.6-.9 1.1-1.1s1.1-.4 1.8-.5c.6 0 1.1 0 1.6.2s.9.5 1.2.8.5.8.6 1.3h-1.1c-.1-.3-.2-.6-.4-.8-.2-.2-.5-.4-.8-.5-.3-.1-.7-.2-1.1-.1-.5 0-.9.1-1.2.3s-.6.5-.8.8c-.2.3-.2.7-.2 1.2s.1.8.3 1.1c.2.3.5.6.8.7.4.2.8.2 1.2.2.4 0 .8-.1 1.1-.2s.5-.3.7-.6c.2-.2.3-.5.3-.8l1.2-.1zm7.9 2.7c-.7 0-1.3-.2-1.8-.5s-.9-.7-1.1-1.2-.4-1-.3-1.6c0-.6.2-1.1.5-1.6s.7-.8 1.3-1 1.1-.3 1.8-.3 1.3.2 1.8.5.9.7 1.1 1.2.4 1 .3 1.6c0 .6-.2 1.1-.5 1.6s-.7.8-1.3 1c-.5.2-1.1.3-1.8.3zm.1-.9c.5 0 .9 0 1.3-.2s.6-.4.9-.7.3-.7.4-1.1 0-.8-.2-1.2-.4-.6-.8-.8c-.3-.2-.8-.3-1.2-.3-.5 0-.9 0-1.3.2s-.6.4-.9.7-.3.7-.4 1.1 0 .8.2 1.2c.2.3.4.6.8.8.3.1.7.2 1.2.3zm13.7 1.9h-.4l1-5.3 1 .2-1.1 5.9-1.3-.2-3.2-6.1h.4l-1 5.4-1-.2 1.1-5.9 1.4.2 3.1 6zm5.5 0l1 .3c0 .2 0 .5.1.7s.3.4.5.6c.2.2.5.3.9.4.5.2.9.2 1.3.2s.6-.2.7-.5c.1-.2 0-.4-.1-.6-.1-.2-.4-.4-.9-.5l-1.2-.6c-.7-.3-1.1-.6-1.3-1-.2-.4-.3-.8-.1-1.2.1-.4.3-.6.6-.8.3-.2.7-.3 1.1-.3.4 0 .9.1 1.4.2s.9.4 1.3.7.6.6.7.9.2.7.1 1.1l-1-.3c0-.2 0-.4-.1-.6-.1-.2-.2-.4-.5-.5-.2-.2-.5-.3-.8-.4-.5-.1-.9-.2-1.2-.1-.3.1-.5.2-.6.5-.1.2 0 .4.1.5.1.2.4.3.8.5l1.2.6c.5.2.9.5 1.1.7s.4.4.5.7c.1.2 0 .5-.1.8-.1.4-.3.6-.6.9s-.7.3-1.1.3c-.5 0-1-.1-1.5-.2-.5-.2-1-.4-1.4-.7s-.6-.6-.8-1c-.2-.5-.2-.9-.1-1.3zm12 6.9c-.6-.3-1.1-.7-1.4-1.2-.3-.5-.5-1-.6-1.5s.1-1.1.4-1.6c.3-.5.6-1 1.1-1.3s1-.4 1.6-.4c.6 0 1.2.1 1.8.5s1.1.7 1.4 1.2c.3.5.5 1 .6 1.5 0 .5-.1 1.1-.4 1.6s-.6 1-1.1 1.3-1 .4-1.6.4c-.6 0-1.2-.2-1.8-.5zm.4-.8c.4.2.9.3 1.2.3.4 0 .8-.1 1.1-.3.3-.2.6-.5.8-.9.2-.4.3-.8.3-1.2s-.2-.7-.4-1c-.2-.3-.6-.6-1-.8s-.8-.3-1.2-.3-.8.1-1.1.3c-.3.2-.6.5-.8.9s-.3.8-.3 1.2.2.7.4 1c.2.3.6.5 1 .8zm9.1 2.5l2 1.4c.3.2.6.3.8.3.3 0 .5-.1.6-.4.2-.2.2-.5.1-.7s-.2-.5-.5-.7l-2.1-1.5.7-.2-3.3 4.6-.9-.6 3.5-4.9 2.6 1.9c.3.2.6.5.8.8.2.3.2.6.2 1 0 .3-.1.6-.3.9-.2.3-.5.5-.8.6s-.6.1-1 .1c-.4-.1-.7-.2-1-.5l-2-1.5.6-.6zm.7 1.1l1 .7.3 3.7-1-.7-.3-3.7zm11 10c-.4.3-.8.5-1.3.6s-1 0-1.4-.2c-.5-.2-.9-.5-1.4-.9-.5-.5-.8-1-1-1.5s-.2-1.1-.1-1.6.4-1 .8-1.5.9-.7 1.4-.9c.5-.1 1.1-.1 1.6 0 .5.2 1.1.5 1.5 1 .4.4.7.9.9 1.3s.3 1 .2 1.4c0 .5-.2.9-.5 1.3l-.8-.7c.2-.3.3-.6.3-.9s0-.6-.2-.9l-.6-.9c-.3-.3-.7-.5-1.1-.7s-.7-.1-1.1 0-.7.3-1 .6c-.3.3-.5.7-.6 1s-.1.7 0 1.1.4.7.7 1c.3.3.6.5.9.6s.6.2.9.1c.3 0 .6-.1.9-.3l1 1zm4.6 4.4l-2.4 1.3.1-.8 2.9 3.6-.7.6-3.3-4.1 2.6-1.5 2-2.2 3.2 4.1-.7.6-2.9-3.6h.8l-1.6 2zm2.5 2.4l-.7.5-2.6-3.3.7-.5 2.6 3.3z"/><path class="st5" d="M161.7 323.4c-.1 0-.1 0 0 0l-3.1 5.5c1 .1 2.1.2 3.1.2 14.7 0 26.6-11.9 26.6-26.6v-5.6c-.1 14.6-12 26.5-26.6 26.5zm-26.6-26.6v5.6c0 3.6.7 7.1 2 10.2l1.5-2.6c-2.2-3.9-3.5-8.4-3.5-13.2z"/><pattern id="SVGID_00000154401026753125829230000016046635343988083607_" xlink:href="#SVGID_1_" patternTransform="matrix(1 0 0 -1 -57.854 -17865.97)"/><path d="M138.6 310l-4.6 8.3c-3.6 6.4-1.3 14.5 5.1 18.1s14.5 1.3 18.1-5.1l4.5-8c-9.9 0-18.5-5.3-23.1-13.3z" fill="url(#SVGID_00000154401026753125829230000016046635343988083607_)" stroke="#fcbc00" stroke-width="1.5" stroke-linecap="round" stroke-linejoin="round" stroke-miterlimit="10"/><path class="st5" d="M161.7 317.6c-14.7 0-26.6-11.9-26.6-26.6v5.8c0 4.8 1.3 9.3 3.5 13.2 4.6 8 13.1 13.3 23 13.3 14.7 0 26.5-11.9 26.6-26.5V291c0 14.7-11.9 26.6-26.5 26.6zm-16-175.8v-30.5h-10.6V291h10.6z"/><pattern id="SVGID_00000170959350020893611730000002622786003289145488_" xlink:href="#SVGID_0000010034041388315582057" patternTransform="matrix(1 0 0 -1 -57.854 -17865.97)"/><path fill="url(#SVGID_00000170959350020893611730000002622786003289145488_)" stroke="#fcbc00" stroke-width="1.5" stroke-linecap="round" stroke-linejoin="round" stroke-miterlimit="10" d="M188.2 111.3h-10.6V291h10.6V122.6z"/><pattern id="SVGID_00000021819932000118179800000000560451343677795983_" xlink:href="#SVGID_0000005064440455251170207" patternTransform="matrix(1 0 0 -1 342.39 -19762.58)"/><path d="M177.6 291h-42.4c0 14.7 11.9 26.6 26.6 26.6 14.7 0 26.5-11.9 26.6-26.5 0 0 0 0 0 0h0-10.8z" fill="url(#SVGID_00000021819932000118179800000000560451343677795983_)" stroke="#fcbc00" stroke-width="1.5" stroke-linecap="round" stroke-linejoin="round" stroke-miterlimit="10"/><pattern id="SVGID_00000020359042829527083610000000921263308092012689_" xlink:href="#SVGID_0000011332588768841984259" patternTransform="matrix(1 0 0 -1 282.72 -19624.578)"/><path d="M95.9 154c-6.7 0-12.2-5.4-12.2-12.2h-8.4c0 18 14.6 32.7 32.7 32.7v-32.7c.1 6.7-5.3 12.2-12.1 12.2z" fill="url(#SVGID_00000020359042829527083610000000921263308092012689_)" stroke="#fcbc00" stroke-width="1.5" stroke-linecap="round" stroke-linejoin="round" stroke-miterlimit="10"/><pattern id="SVGID_00000070118641559327563370000017337792686272247722_" xlink:href="#SVGID_0000001171734644320757063" patternTransform="matrix(1 0 0 -1 353.02 -19605.418)"/><path fill="url(#SVGID_00000070118641559327563370000017337792686272247722_)" stroke="#fcbc00" stroke-width="1.5" stroke-linecap="round" stroke-linejoin="round" stroke-miterlimit="10" d="M156.3 141.8l-10.6-19.2v19.2z"/><path class="st5" d="M188.2 122.6v19.2h10.7zm-10.6 0L167 141.8h10.6zm-42.5 0l-10.6 19.2h10.6zm-27 19.2l-32.7-18.1v18.1h8.4z"/><pattern id="SVGID_00000068644514761294141650000016704112485213298340_" xlink:href="#SVGID_0000013639360474283083134" patternTransform="matrix(1 0 0 -1 -8.263 -17484.861)"/><path fill="url(#SVGID_00000068644514761294141650000016704112485213298340_)" stroke="#fcbc00" stroke-width="1.5" stroke-linecap="round" stroke-linejoin="round" stroke-miterlimit="10" d="M215.2 141.8h32.7v-18.1z"/><pattern id="SVGID_00000096751104781681976200000014589456463741227711_" xlink:href="#SVGID_0000012847345050850860504" patternTransform="matrix(1 0 0 -1 395.54 -19613.379)"/><path fill="url(#SVGID_00000096751104781681976200000014589456463741227711_)" stroke="#fcbc00" stroke-width="1.5" stroke-linecap="round" stroke-linejoin="round" stroke-miterlimit="10" d="M198.9 141.8h-10.7l27 48.6v-48.6z"/><path class="st5" d="M188.2 190.4h27l-27-48.6zm-80.1 0h27v-48.6z"/><pattern id="SVGID_00000060021831342133590640000001945445770496847037_" xlink:href="#SVGID_0000015009461004861726605" patternTransform="matrix(1 0 0 -1 -8.263 -17484.861)"/><path fill="url(#SVGID_00000060021831342133590640000001945445770496847037_)" stroke="#fcbc00" stroke-width="1.5" stroke-linecap="round" stroke-linejoin="round" stroke-miterlimit="10" d="M124.5 141.8h-16.4v48.6l27-48.6z"/><path class="st5" d="M151.4 105.7c0-3.1-2.5-5.6-5.6-5.6v11.3c3-.1 5.6-2.6 5.6-5.7zm-22 0c0 3.1 2.5 5.6 5.6 5.6V100c-3 0-5.6 2.6-5.6 5.7zM95.9 154c6.7 0 12.2-5.4 12.2-12.2H83.8c0 6.7 5.4 12.2 12.1 12.2z"/><pattern id="SVGID_00000114753905101301222120000013220522204701315504_" xlink:href="#SVGID_0000016088415273873870520" patternTransform="matrix(1 0 0 -1 315.408 -19663.816)"/><path d="M111.7 195.9c-4.9 4.9-4.9 12.8 0 17.6l17.6-17.6c-4.8-4.9-12.7-4.9-17.6 0z" fill="url(#SVGID_00000114753905101301222120000013220522204701315504_)" stroke="#fcbc00" stroke-width="1.5" stroke-linecap="round" stroke-linejoin="round" stroke-miterlimit="10"/><path class="st5" d="M129.4 213.5c4.9-4.9 4.9-12.8 0-17.6l-17.6 17.6c4.8 4.9 12.7 4.9 17.6 0zm81.9-17.6c-4.9-4.9-12.7-4.9-17.6 0l17.6 17.6c4.9-4.9 4.9-12.8 0-17.6z"/><pattern id="SVGID_00000024001073438491182440000010347483833002857123_" xlink:href="#SVGID_0000017529072859389089635" patternTransform="matrix(1 0 0 -1 397.365 -19678.668)"/><path d="M211.3 213.5l-17.6-17.6h0c-4.9 4.9-4.9 12.7 0 17.6 4.9 4.8 12.7 4.8 17.6 0z" fill="url(#SVGID_00000024001073438491182440000010347483833002857123_)" stroke="#fcbc00" stroke-width="1.5" stroke-linecap="round" stroke-linejoin="round" stroke-miterlimit="10"/><path class="st5" d="M227.4 154c-6.7 0-12.2-5.4-12.2-12.2v32.7c18 0 32.7-14.6 32.7-32.7h-8.4c0 6.7-5.4 12.2-12.1 12.2z"/><path class="st5" d="M227.4 154c6.7 0 12.2-5.4 12.2-12.2h-24.3c-.1 6.7 5.4 12.2 12.1 12.2z"/><pattern id="SVGID_00000052073728991189963890000002809919564992870797_" xlink:href="#SVGID_0000015154456923920593676" patternTransform="matrix(1 0 0 -1 342.39 -19211.629)"/><path fill="url(#SVGID_00000052073728991189963890000002809919564992870797_)" stroke="#fcbc00" stroke-width="1.5" stroke-linecap="round" stroke-linejoin="round" stroke-miterlimit="10" d="M135.1 100h10.6v11.3h-10.6z"/><path class="st5" d="M193.9 105.7c0-3.1-2.5-5.6-5.6-5.6v11.3c3-.1 5.6-2.6 5.6-5.7zm-22 0c0 3.1 2.5 5.6 5.6 5.6V100c-3 0-5.6 2.6-5.6 5.7zm5.7-5.7h10.6v11.3h-10.6zm-31.9 191h10.6V141.8h-10.6z"/><pattern id="SVGID_00000034081259662242539250000012360074824395490993_" xlink:href="#SVGID_0000015295423040911153719" patternTransform="matrix(1 0 0 -1 363.65 -19970.71)"/><path fill="url(#SVGID_00000034081259662242539250000012360074824395490993_)" stroke="#fcbc00" stroke-width="1.5" stroke-linecap="round" stroke-linejoin="round" stroke-miterlimit="10" d="M156.3 291H167V141.8h-10.7z"/><path class="st5" d="M167 291h10.6V141.8H167z"/><pattern id="SVGID_00000001662781646796890500000010466798154582138553_" xlink:href="#SVGID_0000000378417528855695885" patternTransform="matrix(1 0 0 -1 315.41 -19701.818)"/><path fill="url(#SVGID_00000001662781646796890500000010466798154582138553_)" stroke="#fcbc00" stroke-width="1.5" stroke-linecap="round" stroke-linejoin="round" stroke-miterlimit="10" d="M108.1 219l27 48.7V219z"/><path class="st5" d="M188.2 267.7l27-48.7h-27z"/><path class="st4" d="M65.8 272.3l-23.6 5.5 1.5-2.5 4.5 19.3-4 .9-5-21.8 25.6-5.9 1 4.5zm16 48.5l-18.5 22.5-2.1-4.5 17.4-20.7.8 1.6h-27l-2.1-4.5 29.1.3 2.4 5.3zm-23.5-2.5l3.5-1.6 7.8 16.6-3.5 1.6-7.8-16.6zm69.4 66.2c-.7 1.5-1.7 2.7-2.9 3.7s-2.5 1.8-4 2.3c-1.5.5-3.1.7-4.8.5-1.7-.1-3.5-.7-5.3-1.5-1.9-.9-3.5-2-4.8-3.4s-2.3-2.8-3-4.5c-.7-1.6-1-3.4-.9-5.2s.6-3.7 1.5-5.6c.9-1.9 2.1-3.4 3.4-4.6s2.9-2 4.6-2.5c1.7-.5 3.5-.6 5.4-.4s3.8.8 5.7 1.7c2.4 1.2 4.4 2.6 5.8 4.2s2.4 3.5 2.8 5.3c.5 1.9.4 3.8-.2 5.7l-4.2-2c.3-1.2.3-2.4-.1-3.6s-1-2.3-2-3.3-2.3-1.9-3.8-2.7c-1.9-.9-3.6-1.3-5.3-1.3-1.7 0-3.2.5-4.6 1.4s-2.5 2.3-3.4 4.1c-.9 1.8-1.2 3.5-1.1 5.2s.8 3.2 1.8 4.6 2.6 2.5 4.5 3.4c1.9.9 3.6 1.3 5.3 1.4 1.7 0 3.2-.3 4.5-1s2.4-1.8 3.2-3.3l1.9 1.4zm-11.3-3.2l1.5-3.2 12 5.8-5.6 11.6-3.1-1.5 4.2-10 .3 1.8-9.3-4.5zm36.2-8l4.6.3-1.5 26.2-4.6-.3 1.5-26.2zm29.5 10.8l10.3-2.7c1.5-.4 2.6-1 3.3-1.9s.9-1.9.6-3.1c-.3-1.2-1-2-2-2.5s-2.3-.5-3.8-.1l-11 2.9 1.3-3 6.3 24-4.5 1.2-6.6-25.4 13.9-3.6c1.8-.5 3.4-.5 4.9-.3s2.8.9 3.9 1.8c1 .9 1.8 2.2 2.2 3.7.4 1.5.4 2.9-.1 4.2-.5 1.3-1.3 2.5-2.5 3.5s-2.7 1.7-4.4 2.2l-10.7 2.8-1.1-3.7zm5.5.8l5.2-1.4 13.2 9.3-5.4 1.4-13-9.3zm34.7-35.3l27.4 9.8-3.5 3.5-25.4-9.4 1.3-1.3 9.1 25.5-3.5 3.5-9.5-27.5 4.1-4.1zm5.5 23l-2.7-2.7 13-12.9 2.7 2.7-13 12.9zm19.9-65.2l3.7 1.7-8.2 17.7-1.3-3.4 22.5 10.5-2 4.2-23.8-11.1 9.1-19.6zm2.2 22.5l7.9-17.1 3.7 1.7-7.9 17.1-3.7-1.7zm17.6-42.7l11 4.5-3 1.5 4.8-19.8 3.9.9-5.3 22.3-12.3-5.1-13.2-1 5.3-22.1 3.9.9-4.7 19.6-2-2.8 11.6 1.1zm1.7-15.4l3.7.9-4.3 17.8-3.7-.9 4.3-17.8zM69.5 89c.8.5 1.3 1.2 1.7 2s.5 1.7.4 2.7c-.1 1-.4 1.9-.9 2.9-.6 1.1-1.4 2-2.2 2.5-.9.6-1.8.9-2.9 1-1 0-2-.2-3.1-.8-1-.6-1.8-1.3-2.3-2.2s-.8-1.9-.7-2.9.4-2.2.9-3.3c.5-1 1.2-1.8 2-2.4s1.6-.9 2.5-1.1c.9-.1 1.8 0 2.6.3l-1 1.8c-.6-.2-1.1-.2-1.7-.1-.6.1-1.1.4-1.6.8s-.9.9-1.3 1.6c-.4.8-.6 1.5-.7 2.2s.1 1.4.5 2c.4.6.9 1.1 1.6 1.5s1.4.6 2.1.6 1.4-.2 2-.6c.6-.4 1.1-1 1.5-1.8.4-.7.6-1.3.7-1.9s0-1.2-.2-1.7-.5-1-1-1.4l1.1-1.7zm2.3-15.4L84 76l-1.3 1.7-11.4-2.3.5-.6L77.3 85 76 86.7l-5.8-11 1.6-2.1zm3.8 9.4l-1.3-1 4.7-6.3 1.3 1-4.7 6.3zm11.5-26.3l1.2 1.2-6 5.9v-1.6l7.5 7.6-1.4 1.4-7.9-8 6.6-6.5zm-2.5 9.4l5.8-5.7 1.2 1.2-5.8 5.7-1.2-1.2zM99 54.4l2.2 4.6-1.4-.4 7.2-4.9 1 1.4-8.1 5.6-2.4-5.1-3.9-4.1 8-5.5 1 1.4-7.1 4.9.1-1.4 3.4 3.5zm-2.6-8.9l1.9-1.3-.7 3.3-1.7 1.2.5-3.2zm7.5 4.5l.9 1.4-6.5 4.5-.9-1.4 6.5-4.5zm18.9-6c-.3.1-.6.1-1 .1-.3-.1-.6-.2-.8-.4-.2-.2-.4-.5-.5-.8-.1-.3-.1-.6-.1-1 .1-.3.2-.6.4-.8s.5-.4.8-.5c.3-.1.6-.1 1-.1s.6.2.8.4c.2.2.4.5.5.8.1.3.1.6.1 1-.1.3-.2.6-.4.8-.2.2-.5.4-.8.5zM139 32l11.2-1.4.2 1.7-11.2 1.4-.2-1.7zm4.7.3l2-.2 1.3 10.2-2 .2-1.3-10.2zm14.4-2h2l.2 11.2h-2l-.2-11.2zm12.9 5.9l-1.2 4.9-.9-1.2 8.7.7-.1 1.7-9.8-.8 1.4-5.5-.4-5.7 9.7.8-.1 1.7-8.6-.7 1-1 .3 5.1zm6.6-.3l-.1 1.6-7.8-.7.1-1.6 7.8.7zm9.6 1.9l4.5 1.1c.6.1 1.2.1 1.6-.1.4-.2.7-.6.9-1.1.1-.5 0-1-.3-1.3-.3-.4-.8-.6-1.4-.8l-4.7-1.1 1.1-.9-2.5 10.4-1.9-.5 2.6-10.9 6 1.4c.8.2 1.4.5 1.9.9s.9.9 1.1 1.5c.2.6.2 1.2.1 1.9-.1.6-.5 1.2-.9 1.6-.4.4-1 .7-1.6.8s-1.4.1-2.1-.1l-4.6-1.1.2-1.7zm2 1.4l2.3.5 3.1 6.2-2.3-.6-3.1-6.1zm12.5 5.2l1.8.8c-.1.4-.1.9 0 1.3s.4.9.8 1.2c.4.4.9.7 1.5 1 .9.4 1.7.6 2.4.5s1.1-.3 1.3-.8c.2-.4.2-.8-.1-1.1-.2-.3-.7-.7-1.5-1.2l-2.1-1.3c-1.2-.7-1.9-1.4-2.3-2.1s-.4-1.5 0-2.3c.3-.6.7-1.1 1.3-1.4.6-.3 1.3-.4 2.1-.4.8.1 1.7.3 2.6.7.9.4 1.7.9 2.3 1.5.6.6 1 1.2 1.2 1.9.2.7.2 1.4-.1 2l-1.8-.8c.1-.4.1-.8 0-1.1-.1-.4-.4-.7-.8-1.1-.4-.3-.9-.6-1.5-.9-.8-.4-1.6-.5-2.2-.5-.6.1-1 .3-1.2.8-.2.4-.1.7.1 1 .2.3.7.7 1.4 1.1l2.1 1.3c.9.5 1.5 1 2 1.5s.7.9.8 1.4c.1.5 0 1-.3 1.5-.3.7-.8 1.1-1.4 1.5-.6.3-1.4.4-2.2.4s-1.8-.3-2.7-.7c-1-.4-1.8-1-2.4-1.6-.6-.6-1-1.3-1.2-2-.2-.6-.1-1.3.1-2.1zm17.4 6l2.9 1.9-.9 1.4-2.9-1.9.9-1.4zm14.4 4l-6.8 7.8-.1-1.2 6.4 5.6-1.1 1.3-7.2-6.3 7.4-8.5 1.4 1.3zm11.2 10.9l1.3 1.5-8.4 7.5-1.3-1.5 8.4-7.5zm3.8 13.7l-4.6 2.2.4-1.4 5 7.1-1.4 1-5.6-8 5.1-2.5 4.1-4 5.6 8-1.4 1-5-7.1 1.5.1-3.7 3.6zm4.4 4.9l-1.4 1-4.5-6.4 1.4-1 4.5 6.4zm3.9 9.5c-.6.3-1 .7-1.3 1.2s-.5 1-.5 1.6.2 1.2.5 1.8c.3.6.7 1.1 1.2 1.4s1 .5 1.5.5 1.1-.1 1.7-.5l5.7-3 .9 1.8-5.7 3c-.9.5-1.8.7-2.6.6-.9 0-1.7-.3-2.4-.8s-1.4-1.2-1.9-2.2c-.5-.9-.8-1.9-.8-2.8 0-.9.2-1.7.7-2.5s1.1-1.4 2-1.8l5.7-3 .9 1.8-5.6 2.9z"/></svg>