<?xml version="1.0" encoding="utf-8"?>
<!-- Generator: Adobe Illustrator 28.0.0, SVG Export Plug-In . SVG Version: 6.00 Build 0)  -->
<svg version="1.1" id="Calque_1" xmlns="http://www.w3.org/2000/svg" xmlns:xlink="http://www.w3.org/1999/xlink" x="0px" y="0px"
	 viewBox="0 0 321.3 429.3" style="enable-background:new 0 0 321.3 429.3;" xml:space="preserve">
<style type="text/css">
	.st0{fill:none;}
	.st1{fill:none;stroke:#FCBC00;stroke-width:0.2362;stroke-linecap:square;stroke-linejoin:bevel;}
	.st2{fill:none;stroke:#FCBC00;stroke-width:0.3493;}
	.st3{fill:#34354A;stroke:#FCBC00;stroke-width:1.5;stroke-miterlimit:10;}
	.st4{fill:#FCBC00;}
	.st5{fill:none;stroke:#FCBC00;stroke-width:1.5;stroke-linecap:round;stroke-linejoin:round;stroke-miterlimit:10;}
	
		.st6{fill:url(#SVGID_00000157278356786699597230000000509008862901243838_);stroke:#FCBC00;stroke-width:1.5;stroke-linecap:round;stroke-linejoin:round;stroke-miterlimit:10;}
	
		.st7{fill:url(#SVGID_00000116930036973603063340000012700281586679015327_);stroke:#FCBC00;stroke-width:1.5;stroke-linecap:round;stroke-linejoin:round;stroke-miterlimit:10;}
	
		.st8{fill:url(#SVGID_00000067197102380765873230000013873567981843666111_);stroke:#FCBC00;stroke-width:1.5;stroke-linecap:round;stroke-linejoin:round;stroke-miterlimit:10;}
	
		.st9{fill:url(#SVGID_00000109002968460510550410000012327785628180597438_);stroke:#FCBC00;stroke-width:1.5;stroke-linecap:round;stroke-linejoin:round;stroke-miterlimit:10;}
	
		.st10{fill:url(#SVGID_00000140725873859876281170000015115995515444961426_);stroke:#FCBC00;stroke-width:1.5;stroke-linecap:round;stroke-linejoin:round;stroke-miterlimit:10;}
	
		.st11{fill:url(#SVGID_00000118370674448959713460000005072716668445385367_);stroke:#FCBC00;stroke-width:1.5;stroke-linecap:round;stroke-linejoin:round;stroke-miterlimit:10;}
	
		.st12{fill:url(#SVGID_00000163034484859807056110000006299187689913797540_);stroke:#FCBC00;stroke-width:1.5;stroke-linecap:round;stroke-linejoin:round;stroke-miterlimit:10;}
	
		.st13{fill:url(#SVGID_00000128457048227528638460000011623954991555975604_);stroke:#FCBC00;stroke-width:1.5;stroke-linecap:round;stroke-linejoin:round;stroke-miterlimit:10;}
	
		.st14{fill:url(#SVGID_00000054944793437949488130000017066991838578729874_);stroke:#FCBC00;stroke-width:1.5;stroke-linecap:round;stroke-linejoin:round;stroke-miterlimit:10;}
	
		.st15{fill:url(#SVGID_00000012471098895098275910000017506607460462613157_);stroke:#FCBC00;stroke-width:1.5;stroke-linecap:round;stroke-linejoin:round;stroke-miterlimit:10;}
	
		.st16{fill:url(#SVGID_00000160170395360023605770000015300066887660625336_);stroke:#FCBC00;stroke-width:1.5;stroke-linecap:round;stroke-linejoin:round;stroke-miterlimit:10;}
	
		.st17{fill:url(#SVGID_00000005952766341154069120000012907981408244568510_);stroke:#FCBC00;stroke-width:1.5;stroke-linecap:round;stroke-linejoin:round;stroke-miterlimit:10;}
	
		.st18{fill:url(#SVGID_00000123417439486903850130000016829358053683181980_);stroke:#FCBC00;stroke-width:1.5;stroke-linecap:round;stroke-linejoin:round;stroke-miterlimit:10;}
</style>
<pattern  x="-136.3" y="640.6" width="595.3" height="841.9" patternUnits="userSpaceOnUse" id="SVGID_0000000378417528855695885" viewBox="0 -841.9 595.3 841.9" style="overflow:visible;">
	<g>
		<rect y="-841.9" class="st0" width="595.3" height="841.9"/>
	</g>
</pattern>
<pattern  x="-136.3" y="640.6" width="595.3" height="841.9" patternUnits="userSpaceOnUse" id="SVGID_0000001171734644320757063" viewBox="0 -841.9 595.3 841.9" style="overflow:visible;">
	<g>
		<rect y="-841.9" class="st0" width="595.3" height="841.9"/>
	</g>
</pattern>
<pattern  x="-136.3" y="640.6" width="595.3" height="841.9" patternUnits="userSpaceOnUse" id="SVGID_0000005064440455251170207" viewBox="0 -841.9 595.3 841.9" style="overflow:visible;">
	<g>
		<rect y="-841.9" class="st0" width="595.3" height="841.9"/>
	</g>
</pattern>
<pattern  x="-136.3" y="640.6" width="56.7" height="56.7" patternUnits="userSpaceOnUse" id="SVGID_0000010034041388315582057" viewBox="56.9 -113.5 56.7 56.7" style="overflow:visible;">
	<g>
		<rect x="56.9" y="-113.5" class="st0" width="56.7" height="56.7"/>
		<g>
			<rect x="56.9" y="-113.5" class="st0" width="56.7" height="56.7"/>
			<g>
				<line class="st1" x1="113.5" y1="-113.6" x2="170.2" y2="-170.2"/>
				<line class="st1" x1="170.2" y1="-113.6" x2="113.5" y2="-170.2"/>
				<line class="st1" x1="165.5" y1="-113.6" x2="111.2" y2="-167.9"/>
				<line class="st1" x1="160.8" y1="-113.6" x2="111.2" y2="-163.2"/>
				<line class="st1" x1="156.1" y1="-113.6" x2="111.2" y2="-158.4"/>
				<line class="st1" x1="151.3" y1="-113.6" x2="111.2" y2="-153.7"/>
				<line class="st1" x1="146.6" y1="-113.6" x2="111.2" y2="-149"/>
				<line class="st1" x1="141.9" y1="-113.6" x2="111.2" y2="-144.3"/>
				<line class="st1" x1="137.2" y1="-113.6" x2="111.2" y2="-139.6"/>
				<line class="st1" x1="132.4" y1="-113.6" x2="111.2" y2="-134.8"/>
				<line class="st1" x1="127.7" y1="-113.6" x2="111.2" y2="-130.1"/>
				<line class="st1" x1="123" y1="-113.6" x2="111.2" y2="-125.4"/>
				<line class="st1" x1="118.3" y1="-113.6" x2="111.2" y2="-120.7"/>
				<line class="st1" x1="113.5" y1="-113.6" x2="111.2" y2="-116"/>
			</g>
			<g>
				<line class="st1" x1="56.9" y1="-113.6" x2="113.5" y2="-170.2"/>
				<line class="st1" x1="61.6" y1="-113.6" x2="115.9" y2="-167.9"/>
				<line class="st1" x1="66.3" y1="-113.6" x2="115.9" y2="-163.2"/>
				<line class="st1" x1="71" y1="-113.6" x2="115.9" y2="-158.4"/>
				<line class="st1" x1="75.7" y1="-113.6" x2="115.9" y2="-153.7"/>
				<line class="st1" x1="80.5" y1="-113.6" x2="115.9" y2="-149"/>
				<line class="st1" x1="85.2" y1="-113.6" x2="115.9" y2="-144.3"/>
				<line class="st1" x1="89.9" y1="-113.6" x2="115.9" y2="-139.6"/>
				<line class="st1" x1="94.6" y1="-113.6" x2="115.9" y2="-134.8"/>
				<line class="st1" x1="99.4" y1="-113.6" x2="115.9" y2="-130.1"/>
				<line class="st1" x1="104.1" y1="-113.6" x2="115.9" y2="-125.4"/>
				<line class="st1" x1="108.8" y1="-113.6" x2="115.9" y2="-120.7"/>
				<line class="st1" x1="113.5" y1="-113.6" x2="115.9" y2="-115.9"/>
				<line class="st1" x1="113.5" y1="-113.6" x2="56.9" y2="-170.2"/>
				<line class="st1" x1="108.8" y1="-113.6" x2="54.5" y2="-167.9"/>
				<line class="st1" x1="104.1" y1="-113.6" x2="54.5" y2="-163.2"/>
				<line class="st1" x1="99.4" y1="-113.6" x2="54.5" y2="-158.4"/>
				<line class="st1" x1="94.6" y1="-113.6" x2="54.5" y2="-153.7"/>
				<line class="st1" x1="89.9" y1="-113.6" x2="54.5" y2="-149"/>
				<line class="st1" x1="85.2" y1="-113.6" x2="54.5" y2="-144.3"/>
				<line class="st1" x1="80.5" y1="-113.6" x2="54.5" y2="-139.6"/>
				<line class="st1" x1="75.7" y1="-113.6" x2="54.5" y2="-134.8"/>
				<line class="st1" x1="71" y1="-113.6" x2="54.5" y2="-130.1"/>
				<line class="st1" x1="66.3" y1="-113.6" x2="54.5" y2="-125.4"/>
				<line class="st1" x1="61.6" y1="-113.6" x2="54.5" y2="-120.7"/>
				<line class="st1" x1="56.9" y1="-113.6" x2="54.5" y2="-116"/>
			</g>
			<g>
				<line class="st1" x1="0.2" y1="-113.6" x2="56.8" y2="-170.2"/>
				<line class="st1" x1="4.9" y1="-113.6" x2="59.2" y2="-167.9"/>
				<line class="st1" x1="9.6" y1="-113.6" x2="59.2" y2="-163.2"/>
				<line class="st1" x1="14.3" y1="-113.6" x2="59.2" y2="-158.4"/>
				<line class="st1" x1="19.1" y1="-113.6" x2="59.2" y2="-153.7"/>
				<line class="st1" x1="23.8" y1="-113.6" x2="59.2" y2="-149"/>
				<line class="st1" x1="28.5" y1="-113.6" x2="59.2" y2="-144.3"/>
				<line class="st1" x1="33.2" y1="-113.6" x2="59.2" y2="-139.6"/>
				<line class="st1" x1="38" y1="-113.6" x2="59.2" y2="-134.8"/>
				<line class="st1" x1="42.7" y1="-113.6" x2="59.2" y2="-130.1"/>
				<line class="st1" x1="47.4" y1="-113.6" x2="59.2" y2="-125.4"/>
				<line class="st1" x1="52.1" y1="-113.6" x2="59.2" y2="-120.7"/>
				<line class="st1" x1="56.8" y1="-113.6" x2="59.2" y2="-115.9"/>
				<line class="st1" x1="56.8" y1="-113.6" x2="0.2" y2="-170.2"/>
			</g>
			<g>
				<line class="st1" x1="113.5" y1="-56.9" x2="170.2" y2="-113.5"/>
				<line class="st1" x1="111.2" y1="-59.2" x2="165.5" y2="-113.5"/>
				<line class="st1" x1="111.2" y1="-63.9" x2="160.8" y2="-113.5"/>
				<line class="st1" x1="111.2" y1="-68.7" x2="156.1" y2="-113.5"/>
				<line class="st1" x1="111.2" y1="-73.4" x2="151.3" y2="-113.5"/>
				<line class="st1" x1="111.2" y1="-78.1" x2="146.6" y2="-113.5"/>
				<line class="st1" x1="111.2" y1="-82.8" x2="141.9" y2="-113.5"/>
				<line class="st1" x1="111.2" y1="-87.5" x2="137.2" y2="-113.5"/>
				<line class="st1" x1="111.2" y1="-92.3" x2="132.4" y2="-113.5"/>
				<line class="st1" x1="111.2" y1="-97" x2="127.7" y2="-113.5"/>
				<line class="st1" x1="111.2" y1="-101.7" x2="123" y2="-113.5"/>
				<line class="st1" x1="111.2" y1="-106.4" x2="118.3" y2="-113.5"/>
				<line class="st1" x1="111.2" y1="-111.1" x2="113.5" y2="-113.5"/>
				<line class="st1" x1="170.2" y1="-56.9" x2="113.5" y2="-113.5"/>
				<line class="st1" x1="165.5" y1="-56.9" x2="111.2" y2="-111.2"/>
				<line class="st1" x1="160.8" y1="-56.9" x2="111.2" y2="-106.5"/>
				<line class="st1" x1="156.1" y1="-56.9" x2="111.2" y2="-101.7"/>
				<line class="st1" x1="151.3" y1="-56.9" x2="111.2" y2="-97"/>
				<line class="st1" x1="146.6" y1="-56.9" x2="111.2" y2="-92.3"/>
				<line class="st1" x1="141.9" y1="-56.9" x2="111.2" y2="-87.6"/>
				<line class="st1" x1="137.2" y1="-56.9" x2="111.2" y2="-82.9"/>
				<line class="st1" x1="132.4" y1="-56.9" x2="111.2" y2="-78.1"/>
				<line class="st1" x1="127.7" y1="-56.9" x2="111.2" y2="-73.4"/>
				<line class="st1" x1="123" y1="-56.9" x2="111.2" y2="-68.7"/>
				<line class="st1" x1="118.3" y1="-56.9" x2="111.2" y2="-64"/>
				<line class="st1" x1="113.5" y1="-56.9" x2="111.2" y2="-59.3"/>
			</g>
			<g>
				<line class="st1" x1="56.9" y1="-56.9" x2="113.5" y2="-113.5"/>
				<line class="st1" x1="54.5" y1="-59.2" x2="108.8" y2="-113.5"/>
				<line class="st1" x1="54.5" y1="-63.9" x2="104.1" y2="-113.5"/>
				<line class="st1" x1="54.5" y1="-68.7" x2="99.4" y2="-113.5"/>
				<line class="st1" x1="54.5" y1="-73.4" x2="94.6" y2="-113.5"/>
				<line class="st1" x1="54.5" y1="-78.1" x2="89.9" y2="-113.5"/>
				<line class="st1" x1="54.5" y1="-82.8" x2="85.2" y2="-113.5"/>
				<line class="st1" x1="54.5" y1="-87.5" x2="80.5" y2="-113.5"/>
				<line class="st1" x1="54.5" y1="-92.3" x2="75.7" y2="-113.5"/>
				<line class="st1" x1="54.5" y1="-97" x2="71" y2="-113.5"/>
				<line class="st1" x1="54.5" y1="-101.7" x2="66.3" y2="-113.5"/>
				<line class="st1" x1="54.5" y1="-106.4" x2="61.6" y2="-113.5"/>
				<line class="st1" x1="54.5" y1="-111.1" x2="56.9" y2="-113.5"/>
				<line class="st1" x1="61.6" y1="-56.9" x2="115.9" y2="-111.2"/>
				<line class="st1" x1="66.3" y1="-56.9" x2="115.9" y2="-106.5"/>
				<line class="st1" x1="71" y1="-56.9" x2="115.9" y2="-101.7"/>
				<line class="st1" x1="75.7" y1="-56.9" x2="115.9" y2="-97"/>
				<line class="st1" x1="80.5" y1="-56.9" x2="115.9" y2="-92.3"/>
				<line class="st1" x1="85.2" y1="-56.9" x2="115.9" y2="-87.6"/>
				<line class="st1" x1="89.9" y1="-56.9" x2="115.9" y2="-82.9"/>
				<line class="st1" x1="94.6" y1="-56.9" x2="115.9" y2="-78.1"/>
				<line class="st1" x1="99.4" y1="-56.9" x2="115.9" y2="-73.4"/>
				<line class="st1" x1="104.1" y1="-56.9" x2="115.9" y2="-68.7"/>
				<line class="st1" x1="108.8" y1="-56.9" x2="115.9" y2="-64"/>
				<line class="st1" x1="113.5" y1="-56.9" x2="115.9" y2="-59.3"/>
				<line class="st1" x1="113.5" y1="-56.9" x2="56.9" y2="-113.5"/>
				<line class="st1" x1="108.8" y1="-56.9" x2="54.5" y2="-111.2"/>
				<line class="st1" x1="104.1" y1="-56.9" x2="54.5" y2="-106.5"/>
				<line class="st1" x1="99.4" y1="-56.9" x2="54.5" y2="-101.7"/>
				<line class="st1" x1="94.6" y1="-56.9" x2="54.5" y2="-97"/>
				<line class="st1" x1="89.9" y1="-56.9" x2="54.5" y2="-92.3"/>
				<line class="st1" x1="85.2" y1="-56.9" x2="54.5" y2="-87.6"/>
				<line class="st1" x1="80.5" y1="-56.9" x2="54.5" y2="-82.9"/>
				<line class="st1" x1="75.7" y1="-56.9" x2="54.5" y2="-78.1"/>
				<line class="st1" x1="71" y1="-56.9" x2="54.5" y2="-73.4"/>
				<line class="st1" x1="66.3" y1="-56.9" x2="54.5" y2="-68.7"/>
				<line class="st1" x1="61.6" y1="-56.9" x2="54.5" y2="-64"/>
				<line class="st1" x1="56.9" y1="-56.9" x2="54.5" y2="-59.3"/>
				<line class="st1" x1="115.9" y1="-59.2" x2="61.6" y2="-113.5"/>
				<line class="st1" x1="115.9" y1="-63.9" x2="66.3" y2="-113.5"/>
				<line class="st1" x1="115.9" y1="-68.7" x2="71" y2="-113.5"/>
				<line class="st1" x1="115.9" y1="-73.4" x2="75.7" y2="-113.5"/>
				<line class="st1" x1="115.9" y1="-78.1" x2="80.5" y2="-113.5"/>
				<line class="st1" x1="115.9" y1="-82.8" x2="85.2" y2="-113.5"/>
				<line class="st1" x1="115.9" y1="-87.5" x2="89.9" y2="-113.5"/>
				<line class="st1" x1="115.9" y1="-92.3" x2="94.6" y2="-113.5"/>
				<line class="st1" x1="115.9" y1="-97" x2="99.4" y2="-113.5"/>
				<line class="st1" x1="115.9" y1="-101.7" x2="104.1" y2="-113.5"/>
				<line class="st1" x1="115.9" y1="-106.4" x2="108.8" y2="-113.5"/>
				<line class="st1" x1="115.9" y1="-111.2" x2="113.5" y2="-113.5"/>
			</g>
			<g>
				<line class="st1" x1="0.2" y1="-56.9" x2="56.8" y2="-113.5"/>
				<line class="st1" x1="4.9" y1="-56.9" x2="59.2" y2="-111.2"/>
				<line class="st1" x1="9.6" y1="-56.9" x2="59.2" y2="-106.5"/>
				<line class="st1" x1="14.3" y1="-56.9" x2="59.2" y2="-101.7"/>
				<line class="st1" x1="19.1" y1="-56.9" x2="59.2" y2="-97"/>
				<line class="st1" x1="23.8" y1="-56.9" x2="59.2" y2="-92.3"/>
				<line class="st1" x1="28.5" y1="-56.9" x2="59.2" y2="-87.6"/>
				<line class="st1" x1="33.2" y1="-56.9" x2="59.2" y2="-82.9"/>
				<line class="st1" x1="38" y1="-56.9" x2="59.2" y2="-78.1"/>
				<line class="st1" x1="42.7" y1="-56.9" x2="59.2" y2="-73.4"/>
				<line class="st1" x1="47.4" y1="-56.9" x2="59.2" y2="-68.7"/>
				<line class="st1" x1="52.1" y1="-56.9" x2="59.2" y2="-64"/>
				<line class="st1" x1="56.8" y1="-56.9" x2="59.2" y2="-59.3"/>
				<line class="st1" x1="56.8" y1="-56.9" x2="0.2" y2="-113.5"/>
				<line class="st1" x1="59.2" y1="-59.2" x2="4.9" y2="-113.5"/>
				<line class="st1" x1="59.2" y1="-63.9" x2="9.6" y2="-113.5"/>
				<line class="st1" x1="59.2" y1="-68.7" x2="14.3" y2="-113.5"/>
				<line class="st1" x1="59.2" y1="-73.4" x2="19.1" y2="-113.5"/>
				<line class="st1" x1="59.2" y1="-78.1" x2="23.8" y2="-113.5"/>
				<line class="st1" x1="59.2" y1="-82.8" x2="28.5" y2="-113.5"/>
				<line class="st1" x1="59.2" y1="-87.5" x2="33.2" y2="-113.5"/>
				<line class="st1" x1="59.2" y1="-92.3" x2="38" y2="-113.5"/>
				<line class="st1" x1="59.2" y1="-97" x2="42.7" y2="-113.5"/>
				<line class="st1" x1="59.2" y1="-101.7" x2="47.4" y2="-113.5"/>
				<line class="st1" x1="59.2" y1="-106.4" x2="52.1" y2="-113.5"/>
				<line class="st1" x1="59.2" y1="-111.2" x2="56.8" y2="-113.5"/>
			</g>
			<g>
				<line class="st1" x1="113.5" y1="-0.2" x2="170.2" y2="-56.9"/>
				<line class="st1" x1="111.2" y1="-2.5" x2="165.5" y2="-56.9"/>
				<line class="st1" x1="111.2" y1="-7.2" x2="160.8" y2="-56.9"/>
				<line class="st1" x1="111.2" y1="-12" x2="156.1" y2="-56.9"/>
				<line class="st1" x1="111.2" y1="-16.7" x2="151.3" y2="-56.9"/>
				<line class="st1" x1="111.2" y1="-21.4" x2="146.6" y2="-56.9"/>
				<line class="st1" x1="111.2" y1="-26.1" x2="141.9" y2="-56.9"/>
				<line class="st1" x1="111.2" y1="-30.9" x2="137.2" y2="-56.9"/>
				<line class="st1" x1="111.2" y1="-35.6" x2="132.4" y2="-56.9"/>
				<line class="st1" x1="111.2" y1="-40.3" x2="127.7" y2="-56.9"/>
				<line class="st1" x1="111.2" y1="-45" x2="123" y2="-56.9"/>
				<line class="st1" x1="111.2" y1="-49.7" x2="118.3" y2="-56.9"/>
				<line class="st1" x1="111.2" y1="-54.5" x2="113.5" y2="-56.9"/>
				<line class="st1" x1="170.2" y1="-0.2" x2="113.5" y2="-56.9"/>
			</g>
			<g>
				<line class="st1" x1="56.9" y1="-0.2" x2="113.5" y2="-56.9"/>
				<line class="st1" x1="54.5" y1="-2.5" x2="108.8" y2="-56.9"/>
				<line class="st1" x1="54.5" y1="-7.2" x2="104.1" y2="-56.9"/>
				<line class="st1" x1="54.5" y1="-12" x2="99.4" y2="-56.9"/>
				<line class="st1" x1="54.5" y1="-16.7" x2="94.6" y2="-56.9"/>
				<line class="st1" x1="54.5" y1="-21.4" x2="89.9" y2="-56.9"/>
				<line class="st1" x1="54.5" y1="-26.1" x2="85.2" y2="-56.9"/>
				<line class="st1" x1="54.5" y1="-30.9" x2="80.5" y2="-56.9"/>
				<line class="st1" x1="54.5" y1="-35.6" x2="75.7" y2="-56.9"/>
				<line class="st1" x1="54.5" y1="-40.3" x2="71" y2="-56.9"/>
				<line class="st1" x1="54.5" y1="-45" x2="66.3" y2="-56.9"/>
				<line class="st1" x1="54.5" y1="-49.7" x2="61.6" y2="-56.9"/>
				<line class="st1" x1="54.5" y1="-54.5" x2="56.9" y2="-56.9"/>
				<line class="st1" x1="113.5" y1="-0.2" x2="56.9" y2="-56.9"/>
				<line class="st1" x1="115.9" y1="-2.5" x2="61.6" y2="-56.9"/>
				<line class="st1" x1="115.9" y1="-7.2" x2="66.3" y2="-56.9"/>
				<line class="st1" x1="115.9" y1="-12" x2="71" y2="-56.9"/>
				<line class="st1" x1="115.9" y1="-16.7" x2="75.7" y2="-56.9"/>
				<line class="st1" x1="115.9" y1="-21.4" x2="80.5" y2="-56.9"/>
				<line class="st1" x1="115.9" y1="-26.1" x2="85.2" y2="-56.9"/>
				<line class="st1" x1="115.9" y1="-30.9" x2="89.9" y2="-56.9"/>
				<line class="st1" x1="115.9" y1="-35.6" x2="94.6" y2="-56.9"/>
				<line class="st1" x1="115.9" y1="-40.3" x2="99.4" y2="-56.9"/>
				<line class="st1" x1="115.9" y1="-45" x2="104.1" y2="-56.9"/>
				<line class="st1" x1="115.9" y1="-49.7" x2="108.8" y2="-56.9"/>
				<line class="st1" x1="115.9" y1="-54.5" x2="113.5" y2="-56.9"/>
			</g>
			<g>
				<line class="st1" x1="0.2" y1="-0.2" x2="56.8" y2="-56.9"/>
				<line class="st1" x1="56.8" y1="-0.2" x2="0.2" y2="-56.9"/>
				<line class="st1" x1="59.2" y1="-2.5" x2="4.9" y2="-56.9"/>
				<line class="st1" x1="59.2" y1="-7.2" x2="9.6" y2="-56.9"/>
				<line class="st1" x1="59.2" y1="-12" x2="14.3" y2="-56.9"/>
				<line class="st1" x1="59.2" y1="-16.7" x2="19.1" y2="-56.9"/>
				<line class="st1" x1="59.2" y1="-21.4" x2="23.8" y2="-56.9"/>
				<line class="st1" x1="59.2" y1="-26.1" x2="28.5" y2="-56.9"/>
				<line class="st1" x1="59.2" y1="-30.9" x2="33.2" y2="-56.9"/>
				<line class="st1" x1="59.2" y1="-35.6" x2="38" y2="-56.9"/>
				<line class="st1" x1="59.2" y1="-40.3" x2="42.7" y2="-56.9"/>
				<line class="st1" x1="59.2" y1="-45" x2="47.4" y2="-56.9"/>
				<line class="st1" x1="59.2" y1="-49.7" x2="52.1" y2="-56.9"/>
				<line class="st1" x1="59.2" y1="-54.5" x2="56.8" y2="-56.9"/>
			</g>
		</g>
	</g>
</pattern>
<pattern  x="-136.3" y="640.6" width="595.3" height="841.9" patternUnits="userSpaceOnUse" id="SVGID_0000011332588768841984259" viewBox="0 -841.9 595.3 841.9" style="overflow:visible;">
	<g>
		<rect y="-841.9" class="st0" width="595.3" height="841.9"/>
	</g>
</pattern>
<pattern  x="-136.3" y="640.6" width="595.3" height="841.9" patternUnits="userSpaceOnUse" id="SVGID_0000012847345050850860504" viewBox="0 -841.9 595.3 841.9" style="overflow:visible;">
	<g>
		<rect y="-841.9" class="st0" width="595.3" height="841.9"/>
	</g>
</pattern>
<pattern  x="-136.3" y="640.6" width="34" height="34" patternUnits="userSpaceOnUse" id="SVGID_0000013639360474283083134" viewBox="7.3 -38.8 34 34" style="overflow:visible;">
	<g>
		<rect x="7.3" y="-38.8" class="st0" width="34" height="34"/>
		<g>
			<rect x="7.3" y="-38.8" class="st0" width="34" height="34"/>
			<g>
				<path class="st2" d="M16.5-15.2c0,0,1.8,0.8,2.1-1c0.3-1.8,1.2-1.6,2.2-1s2.1,0.3,2.4-1.1"/>
				<path class="st2" d="M41-21.3c0,0-1.2-1.5-2.3-0.1c-1.1,1.4-1.8,0.9-2.5-0.1s-1.7-1.3-2.6-0.1"/>
				<path class="st2" d="M28.4-21.5c0,0-1.8,0.8-0.7,2.2c1.1,1.4,0.4,2-0.7,2.4s-1.7,1.4-0.8,2.5"/>
				<path class="st2" d="M29.4-19.5c0,0,1.9,0.4,1.1,2s0,2,1.2,2.2c1.2,0.1,1.9,1,1.3,2.3"/>
				<path class="st2" d="M35.9-14.9c0,0,1.9,0.4,1.1,2c-0.8,1.6,0,2,1.2,2.2c1.2,0.1,1.9,1,1.2,2.3"/>
				<path class="st2" d="M23-23.9c0,0,1.7,0.9,0.5,2.2c-1.2,1.3-0.6,2,0.5,2.4c1.1,0.5,1.6,1.5,0.6,2.6"/>
				<path class="st2" d="M15.1-18.6c0,0,0.6-1.9-1.2-2c-1.8-0.1-1.8-1-1.3-2.1s0.1-2.1-1.4-2.2"/>
				<path class="st2" d="M13.8-27.1c0,0-0.9,1.7,0.8,2.2c1.7,0.5,1.5,1.3,0.9,2.3c-0.7,1-0.5,2.1,0.9,2.5"/>
				<path class="st2" d="M19.8-15.9c0,0,0.6,1.8,2.1,0.9s2-0.2,2.3,0.9c0.3,1.2,1.2,1.8,2.5,1"/>
				<path class="st2" d="M16-28.7c0,0-0.8,1.8,0.9,2.1s1.6,1.2,1,2.2c-0.6,1-0.4,2.1,1.1,2.4"/>
				<path class="st2" d="M21.4-26c0,0-1.6,1.1-0.2,2.3c1.4,1.2,0.8,1.9-0.2,2.5c-1,0.6-1.4,1.6-0.3,2.6"/>
				<path class="st2" d="M15.4-35.7c0,0,0.1,1.9,1.9,1.4s2,0.3,2,1.5c0,1.2,0.7,2,2.1,1.6"/>
				<path class="st2" d="M24-32.6c0,0-0.2-1.9-1.9-1.3c-1.7,0.6-2-0.2-2-1.4c0-1.2-0.8-2-2.1-1.5"/>
				<path class="st2" d="M19.4-20.7c0,0-1.9-0.1-1.6,1.7s-0.5,2-1.7,1.8s-2.1,0.5-1.8,1.9"/>
				<path class="st2" d="M25.5-21c0,0-0.7-1.8,1.1-2c1.8-0.2,1.7-1.1,1.2-2.2c-0.5-1.1-0.2-2.1,1.3-2.3"/>
				<path class="st2" d="M11.8-29.2c0,0,0.9-1.7,2.2-0.5c1.4,1.2,2,0.5,2.4-0.6s1.5-1.6,2.6-0.6"/>
				<path class="st2" d="M40.3-12.6c0,0,1.2-1.6-0.5-2.2c-1.7-0.7-1.3-1.5-0.6-2.4c0.8-0.9,0.8-2-0.6-2.6"/>
				<path class="st2" d="M38.2-14.6c0,0-1.9-0.4-1.1-2c0.8-1.6,0-2-1.2-2.2s-1.9-1-1.3-2.3"/>
				<path class="st2" d="M18.2-8.3c0,0,1.9-0.1,1.4-1.8c-0.5-1.7,0.3-2,1.5-2c1.2,0,2-0.7,1.6-2.1"/>
				<path class="st2" d="M28.6-15.3c0,0-1.9,0.5-1,2.1c0.9,1.6,0.1,2-1.1,2.2c-1.2,0.2-1.9,1-1.2,2.3"/>
				<path class="st2" d="M18.7-11.6c0,0-1.9,0.6-2-1.2s-1-1.8-2.1-1.3c-1.1,0.5-2.2,0.1-2.2-1.4"/>
				<path class="st2" d="M14.2-37.8c0,0,0.4-1.9-1.4-1.9s-1.8-0.9-1.5-2s-0.1-2.2-1.6-2.1"/>
				<path class="st2" d="M43-23.6c0,0-1.1-1.6-2.3-0.3c-1.2,1.3-1.9,0.7-2.5-0.3c-0.5-1-1.6-1.4-2.6-0.4"/>
				<path class="st2" d="M33.7-8.7c0,0,0.5-1.9-1.4-1.9s-1.8-0.9-1.5-2c0.4-1.1-0.1-2.1-1.6-2.1"/>
				<path class="st2" d="M30.7-22.8c0,0-0.8,1.8,1,2.1c1.8,0.3,1.7,1.2,1.1,2.2c-0.6,1-0.3,2.1,1.2,2.4"/>
				<path class="st2" d="M45.1-23.6c0,0-1.9,0.2-1.3,1.9c0.6,1.7-0.2,2-1.4,2c-1.2,0-2,0.8-1.5,2.2"/>
				<path class="st2" d="M39.2-25.8c0,0,1.6,1.1,2.2-0.6c0.6-1.7,1.5-1.4,2.4-0.7c0.9,0.8,2,0.7,2.5-0.7"/>
				<path class="st2" d="M43.6-37.2c0,0-0.3-1.9-2-1.2c-1.6,0.8-2,0-2.1-1.2c-0.1-1.2-0.9-1.9-2.3-1.3"/>
				<path class="st2" d="M23.7-28.4c0,0,1.9-0.3,1.3-1.9s0.2-2,1.3-2.1c1.2,0,2-0.8,1.4-2.2"/>
				<path class="st2" d="M17.1-28.2c0,0,0.6-1.9,2.1-0.9c1.5,0.9,2,0.2,2.3-1c0.2-1.2,1.1-1.8,2.4-1.1"/>
				<path class="st2" d="M11.1-35.9c0,0,0.6-1.9,2.1-0.9s2,0.2,2.3-1c0.2-1.2,1.1-1.8,2.4-1.1"/>
				<path class="st2" d="M27.9-40.1c0,0,1.9,0.2,1.3,1.9c-0.6,1.7,0.3,2,1.5,2c1.2,0,2,0.8,1.5,2.1"/>
				<path class="st2" d="M26.3-35.9c0,0,1.5-1.2,0-2.3c-1.5-1.1-0.9-1.8,0-2.5c1-0.7,1.2-1.8,0-2.6"/>
				<path class="st2" d="M33.9-37.6c0,0-1.6,1.1-0.2,2.3s0.8,1.9-0.2,2.5c-1,0.6-1.3,1.7-0.2,2.6"/>
				<path class="st2" d="M36.3-35.6c0,0,1.3,1.4,2.3-0.1c1-1.5,1.8-1,2.5-0.1c0.7,0.9,1.8,1.1,2.6-0.1"/>
				<path class="st2" d="M29-23.1c0,0,1.9-0.1,1.4-1.8c-0.5-1.7,0.3-2,1.5-2c1.2,0,2-0.7,1.6-2.1"/>
				<path class="st2" d="M25-26.8c0,0-0.2-1.9,1.6-1.7c1.8,0.3,1.9-0.6,1.7-1.8c-0.2-1.2,0.4-2.1,1.8-1.9"/>
				<path class="st2" d="M19.3-27.9c0,0,0.5,1.9,2.1,1c1.6-0.9,2-0.1,2.2,1.1c0.2,1.2,1.1,1.9,2.4,1.1"/>
				<path class="st2" d="M10.8-14.1c0,0,1.9,0.1,1.4,1.8s0.3,2,1.5,2s2,0.7,1.6,2.1"/>
				<path class="st2" d="M26.9-34.8c0,0-1.8,0.8-2.1-1s-1.2-1.6-2.2-1.1c-1,0.6-2.1,0.3-2.4-1.2"/>
				<path class="st2" d="M41.8-30.7c0,0-0.5-1.9-2.1-1c-1.6,0.9-2,0.1-2.2-1.1c-0.2-1.2-1.1-1.9-2.4-1.2"/>
				<path class="st2" d="M38-36.3c0,0-0.1-1.9-1.8-1.5c-1.7,0.5-2-0.4-1.9-1.5c0.1-1.2-0.6-2.1-2-1.7"/>
				<path class="st2" d="M34.2-30.3c0,0,0.9,1.7,2.3,0.5c1.3-1.2,1.9-0.6,2.4,0.5c0.5,1.1,1.5,1.5,2.6,0.5"/>
				<path class="st2" d="M29.5-35.5c0,0-0.9,1.7,0.8,2.1c1.8,0.4,1.5,1.3,0.9,2.3s-0.5,2.1,1,2.5"/>
				<path class="st2" d="M31.9-23.8c0,0,1.9,0.4,1.8-1.4c-0.1-1.8,0.8-1.9,1.9-1.5s2.2-0.2,2.1-1.6"/>
				<path class="st2" d="M41.3-13.9c0,0,1.9,0.2,1.7-1.5c-0.2-1.8,0.7-1.9,1.8-1.7c1.2,0.3,2.1-0.3,2-1.8"/>
				<path class="st2" d="M40.6-33c0,0,1.1-1.6,2.3-0.2c1.2,1.4,1.9,0.8,2.5-0.2c0.6-1,1.7-1.4,2.6-0.2"/>
				<path class="st2" d="M31.4-37.2c0,0-1.7-0.9-0.5-2.2c1.2-1.4,0.5-2-0.6-2.4c-1.1-0.4-1.6-1.4-0.6-2.6"/>
				<path class="st2" d="M23.4-45.4c0,0-1.7,1-0.4,2.3c1.3,1.3,0.7,1.9-0.4,2.4s-1.5,1.6-0.4,2.6"/>
				<path class="st2" d="M19.6-38.6c0,0,0.6-1.9-1.2-1.9c-1.8-0.1-1.8-1-1.3-2.1c0.4-1.1,0-2.1-1.4-2.2"/>
			</g>
			<g>
				<path class="st2" d="M9-23.6c0,0-1.1-1.6-2.3-0.3c-1.2,1.3-1.9,0.7-2.4-0.3c-0.5-1-1.6-1.4-2.6-0.4"/>
				<path class="st2" d="M11.1-23.6c0,0-1.9,0.2-1.3,1.9c0.6,1.7-0.2,2-1.4,2s-2,0.8-1.5,2.2"/>
				<path class="st2" d="M5.2-25.8c0,0,1.6,1.1,2.2-0.6C8-28.1,8.9-27.8,9.8-27s2,0.7,2.5-0.7"/>
				<path class="st2" d="M9.6-37.2c0,0-0.4-1.9-2-1.2c-1.6,0.8-2,0-2.1-1.2c-0.1-1.2-0.9-1.9-2.3-1.3"/>
				<path class="st2" d="M2.3-35.6c0,0,1.3,1.4,2.3-0.1c1-1.5,1.8-1,2.5-0.1c0.7,0.9,1.8,1.1,2.6-0.1"/>
				<path class="st2" d="M7.8-30.7c0,0-0.5-1.9-2.1-1c-1.6,0.9-2,0.1-2.2-1.1C3.3-34,2.4-34.7,1.1-34"/>
				<path class="st2" d="M0.2-30.3c0,0,0.9,1.7,2.3,0.5c1.3-1.2,1.9-0.6,2.4,0.5s1.5,1.5,2.6,0.5"/>
				<path class="st2" d="M7.3-13.9c0,0,1.9,0.2,1.7-1.5c-0.2-1.8,0.7-1.9,1.8-1.7s2.1-0.3,2-1.8"/>
				<path class="st2" d="M6.5-33c0,0,1.1-1.6,2.3-0.2c1.2,1.4,1.9,0.8,2.5-0.2c0.6-1,1.7-1.4,2.6-0.2"/>
			</g>
			<g>
				<path class="st2" d="M14.2-3.8c0,0,0.4-1.9-1.4-1.9s-1.8-0.9-1.5-2s-0.1-2.2-1.6-2.1"/>
				<path class="st2" d="M43.6-3.2c0,0-0.3-1.9-2-1.2c-1.6,0.7-2-0.1-2.1-1.2s-0.9-1.9-2.3-1.3"/>
				<path class="st2" d="M11.1-1.9c0,0,0.6-1.9,2.1-0.9s2,0.2,2.3-1c0.2-1.2,1.1-1.8,2.4-1.1"/>
				<path class="st2" d="M27.9-6.1c0,0,1.9,0.2,1.3,1.9c-0.6,1.7,0.2,2,1.4,2c1.2,0,2,0.8,1.5,2.1"/>
				<path class="st2" d="M26.3-1.9c0,0,1.5-1.2,0-2.3c-1.5-1.1-0.9-1.8,0-2.5c1-0.7,1.2-1.8,0-2.6"/>
				<path class="st2" d="M38-2.3c0,0-0.1-1.9-1.8-1.5c-1.7,0.5-2-0.4-1.9-1.5c0.1-1.2-0.6-2.1-2-1.7"/>
				<path class="st2" d="M31.4-3.2c0,0-1.7-0.9-0.5-2.2c1.2-1.4,0.5-2-0.6-2.4c-1.1-0.4-1.6-1.5-0.6-2.6"/>
				<path class="st2" d="M23.4-11.3c0,0-1.7,1-0.4,2.3c1.3,1.3,0.7,1.9-0.4,2.4S21.1-5.1,22.2-4"/>
				<path class="st2" d="M19.6-4.5c0,0,0.6-1.9-1.2-1.9c-1.8-0.1-1.8-1-1.3-2.1c0.4-1.1,0-2.2-1.4-2.2"/>
			</g>
			<g>
				<path class="st2" d="M9.6-3.2c0,0-0.4-1.9-2-1.2C6-3.6,5.6-4.4,5.5-5.6C5.4-6.7,4.5-7.5,3.2-6.9"/>
			</g>
		</g>
	</g>
</pattern>
<pattern  x="-136.3" y="640.6" width="34" height="34" patternUnits="userSpaceOnUse" id="SVGID_0000015009461004861726605" viewBox="7.3 -38.8 34 34" style="overflow:visible;">
	<g>
		<rect x="7.3" y="-38.8" class="st0" width="34" height="34"/>
		<g>
			<rect x="7.3" y="-38.8" class="st0" width="34" height="34"/>
			<g>
				<path class="st2" d="M16.5-15.2c0,0,1.8,0.8,2.1-1c0.3-1.8,1.2-1.6,2.2-1s2.1,0.3,2.4-1.1"/>
				<path class="st2" d="M41-21.3c0,0-1.2-1.5-2.3-0.1c-1.1,1.4-1.8,0.9-2.5-0.1s-1.7-1.3-2.6-0.1"/>
				<path class="st2" d="M28.4-21.5c0,0-1.8,0.8-0.7,2.2c1.1,1.4,0.4,2-0.7,2.4s-1.7,1.4-0.8,2.5"/>
				<path class="st2" d="M29.4-19.5c0,0,1.9,0.4,1.1,2s0,2,1.2,2.2c1.2,0.1,1.9,1,1.3,2.3"/>
				<path class="st2" d="M35.9-14.9c0,0,1.9,0.4,1.1,2c-0.8,1.6,0,2,1.2,2.2c1.2,0.1,1.9,1,1.2,2.3"/>
				<path class="st2" d="M23-23.9c0,0,1.7,0.9,0.5,2.2c-1.2,1.3-0.6,2,0.5,2.4c1.1,0.5,1.6,1.5,0.6,2.6"/>
				<path class="st2" d="M15.1-18.6c0,0,0.6-1.9-1.2-2c-1.8-0.1-1.8-1-1.3-2.1s0.1-2.1-1.4-2.2"/>
				<path class="st2" d="M13.8-27.1c0,0-0.9,1.7,0.8,2.2c1.7,0.5,1.5,1.3,0.9,2.3c-0.7,1-0.5,2.1,0.9,2.5"/>
				<path class="st2" d="M19.8-15.9c0,0,0.6,1.8,2.1,0.9s2-0.2,2.3,0.9c0.3,1.2,1.2,1.8,2.5,1"/>
				<path class="st2" d="M16-28.7c0,0-0.8,1.8,0.9,2.1s1.6,1.2,1,2.2c-0.6,1-0.4,2.1,1.1,2.4"/>
				<path class="st2" d="M21.4-26c0,0-1.6,1.1-0.2,2.3c1.4,1.2,0.8,1.9-0.2,2.5c-1,0.6-1.4,1.6-0.3,2.6"/>
				<path class="st2" d="M15.4-35.7c0,0,0.1,1.9,1.9,1.4s2,0.3,2,1.5c0,1.2,0.7,2,2.1,1.6"/>
				<path class="st2" d="M24-32.6c0,0-0.2-1.9-1.9-1.3c-1.7,0.6-2-0.2-2-1.4c0-1.2-0.8-2-2.1-1.5"/>
				<path class="st2" d="M19.4-20.7c0,0-1.9-0.1-1.6,1.7s-0.5,2-1.7,1.8s-2.1,0.5-1.8,1.9"/>
				<path class="st2" d="M25.5-21c0,0-0.7-1.8,1.1-2c1.8-0.2,1.7-1.1,1.2-2.2c-0.5-1.1-0.2-2.1,1.3-2.3"/>
				<path class="st2" d="M11.8-29.2c0,0,0.9-1.7,2.2-0.5c1.4,1.2,2,0.5,2.4-0.6s1.5-1.6,2.6-0.6"/>
				<path class="st2" d="M40.3-12.6c0,0,1.2-1.6-0.5-2.2c-1.7-0.7-1.3-1.5-0.6-2.4c0.8-0.9,0.8-2-0.6-2.6"/>
				<path class="st2" d="M38.2-14.6c0,0-1.9-0.4-1.1-2c0.8-1.6,0-2-1.2-2.2s-1.9-1-1.3-2.3"/>
				<path class="st2" d="M18.2-8.3c0,0,1.9-0.1,1.4-1.8c-0.5-1.7,0.3-2,1.5-2c1.2,0,2-0.7,1.6-2.1"/>
				<path class="st2" d="M28.6-15.3c0,0-1.9,0.5-1,2.1c0.9,1.6,0.1,2-1.1,2.2c-1.2,0.2-1.9,1-1.2,2.3"/>
				<path class="st2" d="M18.7-11.6c0,0-1.9,0.6-2-1.2s-1-1.8-2.1-1.3c-1.1,0.5-2.2,0.1-2.2-1.4"/>
				<path class="st2" d="M14.2-37.8c0,0,0.4-1.9-1.4-1.9s-1.8-0.9-1.5-2s-0.1-2.2-1.6-2.1"/>
				<path class="st2" d="M43-23.6c0,0-1.1-1.6-2.3-0.3c-1.2,1.3-1.9,0.7-2.5-0.3c-0.5-1-1.6-1.4-2.6-0.4"/>
				<path class="st2" d="M33.7-8.7c0,0,0.5-1.9-1.4-1.9s-1.8-0.9-1.5-2c0.4-1.1-0.1-2.1-1.6-2.1"/>
				<path class="st2" d="M30.7-22.8c0,0-0.8,1.8,1,2.1c1.8,0.3,1.7,1.2,1.1,2.2c-0.6,1-0.3,2.1,1.2,2.4"/>
				<path class="st2" d="M45.1-23.6c0,0-1.9,0.2-1.3,1.9c0.6,1.7-0.2,2-1.4,2c-1.2,0-2,0.8-1.5,2.2"/>
				<path class="st2" d="M39.2-25.8c0,0,1.6,1.1,2.2-0.6c0.6-1.7,1.5-1.4,2.4-0.7c0.9,0.8,2,0.7,2.5-0.7"/>
				<path class="st2" d="M43.6-37.2c0,0-0.3-1.9-2-1.2c-1.6,0.8-2,0-2.1-1.2c-0.1-1.2-0.9-1.9-2.3-1.3"/>
				<path class="st2" d="M23.7-28.4c0,0,1.9-0.3,1.3-1.9s0.2-2,1.3-2.1c1.2,0,2-0.8,1.4-2.2"/>
				<path class="st2" d="M17.1-28.2c0,0,0.6-1.9,2.1-0.9c1.5,0.9,2,0.2,2.3-1c0.2-1.2,1.1-1.8,2.4-1.1"/>
				<path class="st2" d="M11.1-35.9c0,0,0.6-1.9,2.1-0.9s2,0.2,2.3-1c0.2-1.2,1.1-1.8,2.4-1.1"/>
				<path class="st2" d="M27.9-40.1c0,0,1.9,0.2,1.3,1.9c-0.6,1.7,0.3,2,1.5,2c1.2,0,2,0.8,1.5,2.1"/>
				<path class="st2" d="M26.3-35.9c0,0,1.5-1.2,0-2.3c-1.5-1.1-0.9-1.8,0-2.5c1-0.7,1.2-1.8,0-2.6"/>
				<path class="st2" d="M33.9-37.6c0,0-1.6,1.1-0.2,2.3s0.8,1.9-0.2,2.5c-1,0.6-1.3,1.7-0.2,2.6"/>
				<path class="st2" d="M36.3-35.6c0,0,1.3,1.4,2.3-0.1c1-1.5,1.8-1,2.5-0.1c0.7,0.9,1.8,1.1,2.6-0.1"/>
				<path class="st2" d="M29-23.1c0,0,1.9-0.1,1.4-1.8c-0.5-1.7,0.3-2,1.5-2c1.2,0,2-0.7,1.6-2.1"/>
				<path class="st2" d="M25-26.8c0,0-0.2-1.9,1.6-1.7c1.8,0.3,1.9-0.6,1.7-1.8c-0.2-1.2,0.4-2.1,1.8-1.9"/>
				<path class="st2" d="M19.3-27.9c0,0,0.5,1.9,2.1,1c1.6-0.9,2-0.1,2.2,1.1c0.2,1.2,1.1,1.9,2.4,1.1"/>
				<path class="st2" d="M10.8-14.1c0,0,1.9,0.1,1.4,1.8s0.3,2,1.5,2s2,0.7,1.6,2.1"/>
				<path class="st2" d="M26.9-34.8c0,0-1.8,0.8-2.1-1s-1.2-1.6-2.2-1.1c-1,0.6-2.1,0.3-2.4-1.2"/>
				<path class="st2" d="M41.8-30.7c0,0-0.5-1.9-2.1-1c-1.6,0.9-2,0.1-2.2-1.1c-0.2-1.2-1.1-1.9-2.4-1.2"/>
				<path class="st2" d="M38-36.3c0,0-0.1-1.9-1.8-1.5c-1.7,0.5-2-0.4-1.9-1.5c0.1-1.2-0.6-2.1-2-1.7"/>
				<path class="st2" d="M34.2-30.3c0,0,0.9,1.7,2.3,0.5c1.3-1.2,1.9-0.6,2.4,0.5c0.5,1.1,1.5,1.5,2.6,0.5"/>
				<path class="st2" d="M29.5-35.5c0,0-0.9,1.7,0.8,2.1c1.8,0.4,1.5,1.3,0.9,2.3s-0.5,2.1,1,2.5"/>
				<path class="st2" d="M31.9-23.8c0,0,1.9,0.4,1.8-1.4c-0.1-1.8,0.8-1.9,1.9-1.5s2.2-0.2,2.1-1.6"/>
				<path class="st2" d="M41.3-13.9c0,0,1.9,0.2,1.7-1.5c-0.2-1.8,0.7-1.9,1.8-1.7c1.2,0.3,2.1-0.3,2-1.8"/>
				<path class="st2" d="M40.6-33c0,0,1.1-1.6,2.3-0.2c1.2,1.4,1.9,0.8,2.5-0.2c0.6-1,1.7-1.4,2.6-0.2"/>
				<path class="st2" d="M31.4-37.2c0,0-1.7-0.9-0.5-2.2c1.2-1.4,0.5-2-0.6-2.4c-1.1-0.4-1.6-1.4-0.6-2.6"/>
				<path class="st2" d="M23.4-45.4c0,0-1.7,1-0.4,2.3c1.3,1.3,0.7,1.9-0.4,2.4s-1.5,1.6-0.4,2.6"/>
				<path class="st2" d="M19.6-38.6c0,0,0.6-1.9-1.2-1.9c-1.8-0.1-1.8-1-1.3-2.1c0.4-1.1,0-2.1-1.4-2.2"/>
			</g>
			<g>
				<path class="st2" d="M9-23.6c0,0-1.1-1.6-2.3-0.3c-1.2,1.3-1.9,0.7-2.4-0.3c-0.5-1-1.6-1.4-2.6-0.4"/>
				<path class="st2" d="M11.1-23.6c0,0-1.9,0.2-1.3,1.9c0.6,1.7-0.2,2-1.4,2s-2,0.8-1.5,2.2"/>
				<path class="st2" d="M5.2-25.8c0,0,1.6,1.1,2.2-0.6C8-28.1,8.9-27.8,9.8-27s2,0.7,2.5-0.7"/>
				<path class="st2" d="M9.6-37.2c0,0-0.4-1.9-2-1.2c-1.6,0.8-2,0-2.1-1.2c-0.1-1.2-0.9-1.9-2.3-1.3"/>
				<path class="st2" d="M2.3-35.6c0,0,1.3,1.4,2.3-0.1c1-1.5,1.8-1,2.5-0.1c0.7,0.9,1.8,1.1,2.6-0.1"/>
				<path class="st2" d="M7.8-30.7c0,0-0.5-1.9-2.1-1c-1.6,0.9-2,0.1-2.2-1.1C3.3-34,2.4-34.7,1.1-34"/>
				<path class="st2" d="M0.2-30.3c0,0,0.9,1.7,2.3,0.5c1.3-1.2,1.9-0.6,2.4,0.5s1.5,1.5,2.6,0.5"/>
				<path class="st2" d="M7.3-13.9c0,0,1.9,0.2,1.7-1.5c-0.2-1.8,0.7-1.9,1.8-1.7s2.1-0.3,2-1.8"/>
				<path class="st2" d="M6.5-33c0,0,1.1-1.6,2.3-0.2c1.2,1.4,1.9,0.8,2.5-0.2c0.6-1,1.7-1.4,2.6-0.2"/>
			</g>
			<g>
				<path class="st2" d="M14.2-3.8c0,0,0.4-1.9-1.4-1.9s-1.8-0.9-1.5-2s-0.1-2.2-1.6-2.1"/>
				<path class="st2" d="M43.6-3.2c0,0-0.3-1.9-2-1.2c-1.6,0.7-2-0.1-2.1-1.2s-0.9-1.9-2.3-1.3"/>
				<path class="st2" d="M11.1-1.9c0,0,0.6-1.9,2.1-0.9s2,0.2,2.3-1c0.2-1.2,1.1-1.8,2.4-1.1"/>
				<path class="st2" d="M27.9-6.1c0,0,1.9,0.2,1.3,1.9c-0.6,1.7,0.2,2,1.4,2c1.2,0,2,0.8,1.5,2.1"/>
				<path class="st2" d="M26.3-1.9c0,0,1.5-1.2,0-2.3c-1.5-1.1-0.9-1.8,0-2.5c1-0.7,1.2-1.8,0-2.6"/>
				<path class="st2" d="M38-2.3c0,0-0.1-1.9-1.8-1.5c-1.7,0.5-2-0.4-1.9-1.5c0.1-1.2-0.6-2.1-2-1.7"/>
				<path class="st2" d="M31.4-3.2c0,0-1.7-0.9-0.5-2.2c1.2-1.4,0.5-2-0.6-2.4c-1.1-0.4-1.6-1.5-0.6-2.6"/>
				<path class="st2" d="M23.4-11.3c0,0-1.7,1-0.4,2.3c1.3,1.3,0.7,1.9-0.4,2.4S21.1-5.1,22.2-4"/>
				<path class="st2" d="M19.6-4.5c0,0,0.6-1.9-1.2-1.9c-1.8-0.1-1.8-1-1.3-2.1c0.4-1.1,0-2.2-1.4-2.2"/>
			</g>
			<g>
				<path class="st2" d="M9.6-3.2c0,0-0.4-1.9-2-1.2C6-3.6,5.6-4.4,5.5-5.6C5.4-6.7,4.5-7.5,3.2-6.9"/>
			</g>
		</g>
	</g>
</pattern>
<pattern  x="-136.3" y="640.6" width="595.3" height="841.9" patternUnits="userSpaceOnUse" id="SVGID_0000015154456923920593676" viewBox="0 -841.9 595.3 841.9" style="overflow:visible;">
	<g>
		<rect y="-841.9" class="st0" width="595.3" height="841.9"/>
	</g>
</pattern>
<pattern  x="-136.3" y="640.6" width="595.3" height="841.9" patternUnits="userSpaceOnUse" id="SVGID_0000015295423040911153719" viewBox="0 -841.9 595.3 841.9" style="overflow:visible;">
	<g>
		<rect y="-841.9" class="st0" width="595.3" height="841.9"/>
	</g>
</pattern>
<pattern  x="-136.3" y="640.6" width="595.3" height="841.9" patternUnits="userSpaceOnUse" id="SVGID_0000016088415273873870520" viewBox="0 -841.9 595.3 841.9" style="overflow:visible;">
	<g>
		<rect y="-841.9" class="st0" width="595.3" height="841.9"/>
	</g>
</pattern>
<pattern  x="-136.3" y="640.6" width="595.3" height="841.9" patternUnits="userSpaceOnUse" id="SVGID_0000017529072859389089635" viewBox="0 -841.9 595.3 841.9" style="overflow:visible;">
	<g>
		<rect y="-841.9" class="st0" width="595.3" height="841.9"/>
	</g>
</pattern>
<pattern  x="-136.3" y="640.6" width="56.7" height="56.7" patternUnits="userSpaceOnUse" id="SVGID_1_" viewBox="56.9 -113.5 56.7 56.7" style="overflow:visible;">
	<g>
		<rect x="56.9" y="-113.5" class="st0" width="56.7" height="56.7"/>
		<g>
			<rect x="56.9" y="-113.5" class="st0" width="56.7" height="56.7"/>
			<g>
				<line class="st1" x1="113.5" y1="-113.6" x2="170.2" y2="-170.2"/>
				<line class="st1" x1="170.2" y1="-113.6" x2="113.5" y2="-170.2"/>
				<line class="st1" x1="165.5" y1="-113.6" x2="111.2" y2="-167.9"/>
				<line class="st1" x1="160.8" y1="-113.6" x2="111.2" y2="-163.2"/>
				<line class="st1" x1="156.1" y1="-113.6" x2="111.2" y2="-158.4"/>
				<line class="st1" x1="151.3" y1="-113.6" x2="111.2" y2="-153.7"/>
				<line class="st1" x1="146.6" y1="-113.6" x2="111.2" y2="-149"/>
				<line class="st1" x1="141.9" y1="-113.6" x2="111.2" y2="-144.3"/>
				<line class="st1" x1="137.2" y1="-113.6" x2="111.2" y2="-139.6"/>
				<line class="st1" x1="132.4" y1="-113.6" x2="111.2" y2="-134.8"/>
				<line class="st1" x1="127.7" y1="-113.6" x2="111.2" y2="-130.1"/>
				<line class="st1" x1="123" y1="-113.6" x2="111.2" y2="-125.4"/>
				<line class="st1" x1="118.3" y1="-113.6" x2="111.2" y2="-120.7"/>
				<line class="st1" x1="113.5" y1="-113.6" x2="111.2" y2="-116"/>
			</g>
			<g>
				<line class="st1" x1="56.9" y1="-113.6" x2="113.5" y2="-170.2"/>
				<line class="st1" x1="61.6" y1="-113.6" x2="115.9" y2="-167.9"/>
				<line class="st1" x1="66.3" y1="-113.6" x2="115.9" y2="-163.2"/>
				<line class="st1" x1="71" y1="-113.6" x2="115.9" y2="-158.4"/>
				<line class="st1" x1="75.7" y1="-113.6" x2="115.9" y2="-153.7"/>
				<line class="st1" x1="80.5" y1="-113.6" x2="115.9" y2="-149"/>
				<line class="st1" x1="85.2" y1="-113.6" x2="115.9" y2="-144.3"/>
				<line class="st1" x1="89.9" y1="-113.6" x2="115.9" y2="-139.6"/>
				<line class="st1" x1="94.6" y1="-113.6" x2="115.9" y2="-134.8"/>
				<line class="st1" x1="99.4" y1="-113.6" x2="115.9" y2="-130.1"/>
				<line class="st1" x1="104.1" y1="-113.6" x2="115.9" y2="-125.4"/>
				<line class="st1" x1="108.8" y1="-113.6" x2="115.9" y2="-120.7"/>
				<line class="st1" x1="113.5" y1="-113.6" x2="115.9" y2="-115.9"/>
				<line class="st1" x1="113.5" y1="-113.6" x2="56.9" y2="-170.2"/>
				<line class="st1" x1="108.8" y1="-113.6" x2="54.5" y2="-167.9"/>
				<line class="st1" x1="104.1" y1="-113.6" x2="54.5" y2="-163.2"/>
				<line class="st1" x1="99.4" y1="-113.6" x2="54.5" y2="-158.4"/>
				<line class="st1" x1="94.6" y1="-113.6" x2="54.5" y2="-153.7"/>
				<line class="st1" x1="89.9" y1="-113.6" x2="54.5" y2="-149"/>
				<line class="st1" x1="85.2" y1="-113.6" x2="54.5" y2="-144.3"/>
				<line class="st1" x1="80.5" y1="-113.6" x2="54.5" y2="-139.6"/>
				<line class="st1" x1="75.7" y1="-113.6" x2="54.5" y2="-134.8"/>
				<line class="st1" x1="71" y1="-113.6" x2="54.5" y2="-130.1"/>
				<line class="st1" x1="66.3" y1="-113.6" x2="54.5" y2="-125.4"/>
				<line class="st1" x1="61.6" y1="-113.6" x2="54.5" y2="-120.7"/>
				<line class="st1" x1="56.9" y1="-113.6" x2="54.5" y2="-116"/>
			</g>
			<g>
				<line class="st1" x1="0.2" y1="-113.6" x2="56.8" y2="-170.2"/>
				<line class="st1" x1="4.9" y1="-113.6" x2="59.2" y2="-167.9"/>
				<line class="st1" x1="9.6" y1="-113.6" x2="59.2" y2="-163.2"/>
				<line class="st1" x1="14.3" y1="-113.6" x2="59.2" y2="-158.4"/>
				<line class="st1" x1="19.1" y1="-113.6" x2="59.2" y2="-153.7"/>
				<line class="st1" x1="23.8" y1="-113.6" x2="59.2" y2="-149"/>
				<line class="st1" x1="28.5" y1="-113.6" x2="59.2" y2="-144.3"/>
				<line class="st1" x1="33.2" y1="-113.6" x2="59.2" y2="-139.6"/>
				<line class="st1" x1="38" y1="-113.6" x2="59.2" y2="-134.8"/>
				<line class="st1" x1="42.7" y1="-113.6" x2="59.2" y2="-130.1"/>
				<line class="st1" x1="47.4" y1="-113.6" x2="59.2" y2="-125.4"/>
				<line class="st1" x1="52.1" y1="-113.6" x2="59.2" y2="-120.7"/>
				<line class="st1" x1="56.8" y1="-113.6" x2="59.2" y2="-115.9"/>
				<line class="st1" x1="56.8" y1="-113.6" x2="0.2" y2="-170.2"/>
			</g>
			<g>
				<line class="st1" x1="113.5" y1="-56.9" x2="170.2" y2="-113.5"/>
				<line class="st1" x1="111.2" y1="-59.2" x2="165.5" y2="-113.5"/>
				<line class="st1" x1="111.2" y1="-63.9" x2="160.8" y2="-113.5"/>
				<line class="st1" x1="111.2" y1="-68.7" x2="156.1" y2="-113.5"/>
				<line class="st1" x1="111.2" y1="-73.4" x2="151.3" y2="-113.5"/>
				<line class="st1" x1="111.2" y1="-78.1" x2="146.6" y2="-113.5"/>
				<line class="st1" x1="111.2" y1="-82.8" x2="141.9" y2="-113.5"/>
				<line class="st1" x1="111.2" y1="-87.5" x2="137.2" y2="-113.5"/>
				<line class="st1" x1="111.2" y1="-92.3" x2="132.4" y2="-113.5"/>
				<line class="st1" x1="111.2" y1="-97" x2="127.7" y2="-113.5"/>
				<line class="st1" x1="111.2" y1="-101.7" x2="123" y2="-113.5"/>
				<line class="st1" x1="111.2" y1="-106.4" x2="118.3" y2="-113.5"/>
				<line class="st1" x1="111.2" y1="-111.1" x2="113.5" y2="-113.5"/>
				<line class="st1" x1="170.2" y1="-56.9" x2="113.5" y2="-113.5"/>
				<line class="st1" x1="165.5" y1="-56.9" x2="111.2" y2="-111.2"/>
				<line class="st1" x1="160.8" y1="-56.9" x2="111.2" y2="-106.5"/>
				<line class="st1" x1="156.1" y1="-56.9" x2="111.2" y2="-101.7"/>
				<line class="st1" x1="151.3" y1="-56.9" x2="111.2" y2="-97"/>
				<line class="st1" x1="146.6" y1="-56.9" x2="111.2" y2="-92.3"/>
				<line class="st1" x1="141.9" y1="-56.9" x2="111.2" y2="-87.6"/>
				<line class="st1" x1="137.2" y1="-56.9" x2="111.2" y2="-82.9"/>
				<line class="st1" x1="132.4" y1="-56.9" x2="111.2" y2="-78.1"/>
				<line class="st1" x1="127.7" y1="-56.9" x2="111.2" y2="-73.4"/>
				<line class="st1" x1="123" y1="-56.9" x2="111.2" y2="-68.7"/>
				<line class="st1" x1="118.3" y1="-56.9" x2="111.2" y2="-64"/>
				<line class="st1" x1="113.5" y1="-56.9" x2="111.2" y2="-59.3"/>
			</g>
			<g>
				<line class="st1" x1="56.9" y1="-56.9" x2="113.5" y2="-113.5"/>
				<line class="st1" x1="54.5" y1="-59.2" x2="108.8" y2="-113.5"/>
				<line class="st1" x1="54.5" y1="-63.9" x2="104.1" y2="-113.5"/>
				<line class="st1" x1="54.5" y1="-68.7" x2="99.4" y2="-113.5"/>
				<line class="st1" x1="54.5" y1="-73.4" x2="94.6" y2="-113.5"/>
				<line class="st1" x1="54.5" y1="-78.1" x2="89.9" y2="-113.5"/>
				<line class="st1" x1="54.5" y1="-82.8" x2="85.2" y2="-113.5"/>
				<line class="st1" x1="54.5" y1="-87.5" x2="80.5" y2="-113.5"/>
				<line class="st1" x1="54.5" y1="-92.3" x2="75.7" y2="-113.5"/>
				<line class="st1" x1="54.5" y1="-97" x2="71" y2="-113.5"/>
				<line class="st1" x1="54.5" y1="-101.7" x2="66.3" y2="-113.5"/>
				<line class="st1" x1="54.5" y1="-106.4" x2="61.6" y2="-113.5"/>
				<line class="st1" x1="54.5" y1="-111.1" x2="56.9" y2="-113.5"/>
				<line class="st1" x1="61.6" y1="-56.9" x2="115.9" y2="-111.2"/>
				<line class="st1" x1="66.3" y1="-56.9" x2="115.9" y2="-106.5"/>
				<line class="st1" x1="71" y1="-56.9" x2="115.9" y2="-101.7"/>
				<line class="st1" x1="75.7" y1="-56.9" x2="115.9" y2="-97"/>
				<line class="st1" x1="80.5" y1="-56.9" x2="115.9" y2="-92.3"/>
				<line class="st1" x1="85.2" y1="-56.9" x2="115.9" y2="-87.6"/>
				<line class="st1" x1="89.9" y1="-56.9" x2="115.9" y2="-82.9"/>
				<line class="st1" x1="94.6" y1="-56.9" x2="115.9" y2="-78.1"/>
				<line class="st1" x1="99.4" y1="-56.9" x2="115.9" y2="-73.4"/>
				<line class="st1" x1="104.1" y1="-56.9" x2="115.9" y2="-68.7"/>
				<line class="st1" x1="108.8" y1="-56.9" x2="115.9" y2="-64"/>
				<line class="st1" x1="113.5" y1="-56.9" x2="115.9" y2="-59.3"/>
				<line class="st1" x1="113.5" y1="-56.9" x2="56.9" y2="-113.5"/>
				<line class="st1" x1="108.8" y1="-56.9" x2="54.5" y2="-111.2"/>
				<line class="st1" x1="104.1" y1="-56.9" x2="54.5" y2="-106.5"/>
				<line class="st1" x1="99.4" y1="-56.9" x2="54.5" y2="-101.7"/>
				<line class="st1" x1="94.6" y1="-56.9" x2="54.5" y2="-97"/>
				<line class="st1" x1="89.9" y1="-56.9" x2="54.5" y2="-92.3"/>
				<line class="st1" x1="85.2" y1="-56.9" x2="54.5" y2="-87.6"/>
				<line class="st1" x1="80.5" y1="-56.9" x2="54.5" y2="-82.9"/>
				<line class="st1" x1="75.7" y1="-56.9" x2="54.5" y2="-78.1"/>
				<line class="st1" x1="71" y1="-56.9" x2="54.5" y2="-73.4"/>
				<line class="st1" x1="66.3" y1="-56.9" x2="54.5" y2="-68.7"/>
				<line class="st1" x1="61.6" y1="-56.9" x2="54.5" y2="-64"/>
				<line class="st1" x1="56.9" y1="-56.9" x2="54.5" y2="-59.3"/>
				<line class="st1" x1="115.9" y1="-59.2" x2="61.6" y2="-113.5"/>
				<line class="st1" x1="115.9" y1="-63.9" x2="66.3" y2="-113.5"/>
				<line class="st1" x1="115.9" y1="-68.7" x2="71" y2="-113.5"/>
				<line class="st1" x1="115.9" y1="-73.4" x2="75.7" y2="-113.5"/>
				<line class="st1" x1="115.9" y1="-78.1" x2="80.5" y2="-113.5"/>
				<line class="st1" x1="115.9" y1="-82.8" x2="85.2" y2="-113.5"/>
				<line class="st1" x1="115.9" y1="-87.5" x2="89.9" y2="-113.5"/>
				<line class="st1" x1="115.9" y1="-92.3" x2="94.6" y2="-113.5"/>
				<line class="st1" x1="115.9" y1="-97" x2="99.4" y2="-113.5"/>
				<line class="st1" x1="115.9" y1="-101.7" x2="104.1" y2="-113.5"/>
				<line class="st1" x1="115.9" y1="-106.4" x2="108.8" y2="-113.5"/>
				<line class="st1" x1="115.9" y1="-111.2" x2="113.5" y2="-113.5"/>
			</g>
			<g>
				<line class="st1" x1="0.2" y1="-56.9" x2="56.8" y2="-113.5"/>
				<line class="st1" x1="4.9" y1="-56.9" x2="59.2" y2="-111.2"/>
				<line class="st1" x1="9.6" y1="-56.9" x2="59.2" y2="-106.5"/>
				<line class="st1" x1="14.3" y1="-56.9" x2="59.2" y2="-101.7"/>
				<line class="st1" x1="19.1" y1="-56.9" x2="59.2" y2="-97"/>
				<line class="st1" x1="23.8" y1="-56.9" x2="59.2" y2="-92.3"/>
				<line class="st1" x1="28.5" y1="-56.9" x2="59.2" y2="-87.6"/>
				<line class="st1" x1="33.2" y1="-56.9" x2="59.2" y2="-82.9"/>
				<line class="st1" x1="38" y1="-56.9" x2="59.2" y2="-78.1"/>
				<line class="st1" x1="42.7" y1="-56.9" x2="59.2" y2="-73.4"/>
				<line class="st1" x1="47.4" y1="-56.9" x2="59.2" y2="-68.7"/>
				<line class="st1" x1="52.1" y1="-56.9" x2="59.2" y2="-64"/>
				<line class="st1" x1="56.8" y1="-56.9" x2="59.2" y2="-59.3"/>
				<line class="st1" x1="56.8" y1="-56.9" x2="0.2" y2="-113.5"/>
				<line class="st1" x1="59.2" y1="-59.2" x2="4.9" y2="-113.5"/>
				<line class="st1" x1="59.2" y1="-63.9" x2="9.6" y2="-113.5"/>
				<line class="st1" x1="59.2" y1="-68.7" x2="14.3" y2="-113.5"/>
				<line class="st1" x1="59.2" y1="-73.4" x2="19.1" y2="-113.5"/>
				<line class="st1" x1="59.2" y1="-78.1" x2="23.8" y2="-113.5"/>
				<line class="st1" x1="59.2" y1="-82.8" x2="28.5" y2="-113.5"/>
				<line class="st1" x1="59.2" y1="-87.5" x2="33.2" y2="-113.5"/>
				<line class="st1" x1="59.2" y1="-92.3" x2="38" y2="-113.5"/>
				<line class="st1" x1="59.2" y1="-97" x2="42.7" y2="-113.5"/>
				<line class="st1" x1="59.2" y1="-101.7" x2="47.4" y2="-113.5"/>
				<line class="st1" x1="59.2" y1="-106.4" x2="52.1" y2="-113.5"/>
				<line class="st1" x1="59.2" y1="-111.2" x2="56.8" y2="-113.5"/>
			</g>
			<g>
				<line class="st1" x1="113.5" y1="-0.2" x2="170.2" y2="-56.9"/>
				<line class="st1" x1="111.2" y1="-2.5" x2="165.5" y2="-56.9"/>
				<line class="st1" x1="111.2" y1="-7.2" x2="160.8" y2="-56.9"/>
				<line class="st1" x1="111.2" y1="-12" x2="156.1" y2="-56.9"/>
				<line class="st1" x1="111.2" y1="-16.7" x2="151.3" y2="-56.9"/>
				<line class="st1" x1="111.2" y1="-21.4" x2="146.6" y2="-56.9"/>
				<line class="st1" x1="111.2" y1="-26.1" x2="141.9" y2="-56.9"/>
				<line class="st1" x1="111.2" y1="-30.9" x2="137.2" y2="-56.9"/>
				<line class="st1" x1="111.2" y1="-35.6" x2="132.4" y2="-56.9"/>
				<line class="st1" x1="111.2" y1="-40.3" x2="127.7" y2="-56.9"/>
				<line class="st1" x1="111.2" y1="-45" x2="123" y2="-56.9"/>
				<line class="st1" x1="111.2" y1="-49.7" x2="118.3" y2="-56.9"/>
				<line class="st1" x1="111.2" y1="-54.5" x2="113.5" y2="-56.9"/>
				<line class="st1" x1="170.2" y1="-0.2" x2="113.5" y2="-56.9"/>
			</g>
			<g>
				<line class="st1" x1="56.9" y1="-0.2" x2="113.5" y2="-56.9"/>
				<line class="st1" x1="54.5" y1="-2.5" x2="108.8" y2="-56.9"/>
				<line class="st1" x1="54.5" y1="-7.2" x2="104.1" y2="-56.9"/>
				<line class="st1" x1="54.5" y1="-12" x2="99.4" y2="-56.9"/>
				<line class="st1" x1="54.5" y1="-16.7" x2="94.6" y2="-56.9"/>
				<line class="st1" x1="54.5" y1="-21.4" x2="89.9" y2="-56.9"/>
				<line class="st1" x1="54.5" y1="-26.1" x2="85.2" y2="-56.9"/>
				<line class="st1" x1="54.5" y1="-30.9" x2="80.5" y2="-56.9"/>
				<line class="st1" x1="54.5" y1="-35.6" x2="75.7" y2="-56.9"/>
				<line class="st1" x1="54.5" y1="-40.3" x2="71" y2="-56.9"/>
				<line class="st1" x1="54.5" y1="-45" x2="66.3" y2="-56.9"/>
				<line class="st1" x1="54.5" y1="-49.7" x2="61.6" y2="-56.9"/>
				<line class="st1" x1="54.5" y1="-54.5" x2="56.9" y2="-56.9"/>
				<line class="st1" x1="113.5" y1="-0.2" x2="56.9" y2="-56.9"/>
				<line class="st1" x1="115.9" y1="-2.5" x2="61.6" y2="-56.9"/>
				<line class="st1" x1="115.9" y1="-7.2" x2="66.3" y2="-56.9"/>
				<line class="st1" x1="115.9" y1="-12" x2="71" y2="-56.9"/>
				<line class="st1" x1="115.9" y1="-16.7" x2="75.7" y2="-56.9"/>
				<line class="st1" x1="115.9" y1="-21.4" x2="80.5" y2="-56.9"/>
				<line class="st1" x1="115.9" y1="-26.1" x2="85.2" y2="-56.9"/>
				<line class="st1" x1="115.9" y1="-30.9" x2="89.9" y2="-56.9"/>
				<line class="st1" x1="115.9" y1="-35.6" x2="94.6" y2="-56.9"/>
				<line class="st1" x1="115.9" y1="-40.3" x2="99.4" y2="-56.9"/>
				<line class="st1" x1="115.9" y1="-45" x2="104.1" y2="-56.9"/>
				<line class="st1" x1="115.9" y1="-49.7" x2="108.8" y2="-56.9"/>
				<line class="st1" x1="115.9" y1="-54.5" x2="113.5" y2="-56.9"/>
			</g>
			<g>
				<line class="st1" x1="0.2" y1="-0.2" x2="56.8" y2="-56.9"/>
				<line class="st1" x1="56.8" y1="-0.2" x2="0.2" y2="-56.9"/>
				<line class="st1" x1="59.2" y1="-2.5" x2="4.9" y2="-56.9"/>
				<line class="st1" x1="59.2" y1="-7.2" x2="9.6" y2="-56.9"/>
				<line class="st1" x1="59.2" y1="-12" x2="14.3" y2="-56.9"/>
				<line class="st1" x1="59.2" y1="-16.7" x2="19.1" y2="-56.9"/>
				<line class="st1" x1="59.2" y1="-21.4" x2="23.8" y2="-56.9"/>
				<line class="st1" x1="59.2" y1="-26.1" x2="28.5" y2="-56.9"/>
				<line class="st1" x1="59.2" y1="-30.9" x2="33.2" y2="-56.9"/>
				<line class="st1" x1="59.2" y1="-35.6" x2="38" y2="-56.9"/>
				<line class="st1" x1="59.2" y1="-40.3" x2="42.7" y2="-56.9"/>
				<line class="st1" x1="59.2" y1="-45" x2="47.4" y2="-56.9"/>
				<line class="st1" x1="59.2" y1="-49.7" x2="52.1" y2="-56.9"/>
				<line class="st1" x1="59.2" y1="-54.5" x2="56.8" y2="-56.9"/>
			</g>
		</g>
	</g>
</pattern>
<g>
	<path class="st3" d="M10.5,214.2c0-55.5,18.8-205.7,151.2-205.7s151.2,150.2,151.2,205.7S294,419.9,161.6,419.9
		S10.5,269.7,10.5,214.2z"/>
	<g>
		<path class="st4" d="M97.1,92.4l0.7-0.8c0.2,0.1,0.4,0.2,0.7,0.2c0.2,0,0.5-0.1,0.8-0.3c0.2-0.1,0.5-0.4,0.7-0.6
			c0.3-0.4,0.5-0.8,0.6-1.1s0-0.6-0.2-0.8c-0.2-0.1-0.4-0.2-0.6-0.1s-0.5,0.3-0.8,0.6l-0.9,0.9c-0.5,0.5-1,0.8-1.4,0.9
			c-0.4,0.1-0.8,0-1.2-0.3c-0.3-0.2-0.5-0.5-0.5-0.9c-0.1-0.3,0-0.7,0.1-1.1c0.1-0.4,0.4-0.8,0.7-1.2c0.3-0.4,0.7-0.7,1.1-1
			s0.8-0.3,1.1-0.4c0.4,0,0.7,0.1,1,0.3l-0.7,0.8c-0.2-0.1-0.4-0.2-0.6-0.1s-0.4,0.1-0.7,0.2c-0.2,0.1-0.4,0.4-0.7,0.6
			c-0.3,0.4-0.5,0.7-0.6,1.1c-0.1,0.3,0,0.6,0.2,0.8c0.2,0.1,0.4,0.2,0.6,0.1s0.5-0.2,0.8-0.5l1-0.9c0.4-0.4,0.7-0.6,1-0.8
			c0.3-0.2,0.6-0.2,0.8-0.2s0.5,0.1,0.8,0.4c0.3,0.2,0.5,0.5,0.6,0.9s0,0.8-0.1,1.2s-0.4,0.9-0.8,1.3c-0.4,0.5-0.8,0.8-1.2,1
			s-0.8,0.4-1.2,0.4C97.7,92.7,97.4,92.6,97.1,92.4z"/>
		<path class="st4" d="M103.6,79l6.2,2.3l-0.8,0.8l-5.8-2.2l0.3-0.3l2,5.9l-0.8,0.8l-2.1-6.3L103.6,79z M104.8,84.3l-0.6-0.6l3-2.9
			l0.6,0.6L104.8,84.3z"/>
		<path class="st4" d="M109.7,73.8l0.8-0.6l3.6,4.8l-0.8,0.6L109.7,73.8z"/>
		<path class="st4" d="M122.8,71.7l-0.4,0.3l-2.7-4.7l0.9-0.5l3,5.2l-1.2,0.7l-6.3-2.6l0.3-0.2l2.7,4.7l-0.9,0.5l-3-5.2l1.2-0.7
			L122.8,71.7z"/>
		<path class="st4" d="M125.5,64.5l5.6-2.2l0.3,0.9l-5.6,2.2L125.5,64.5z M128,64l1-0.4l2,5.1l-1,0.4L128,64z"/>
		<path class="st4" d="M138.1,63.4l0.2,2.7l-0.6-0.5l4.5-1.1l0.2,0.9l-5.1,1.2l-0.2-3l-1.2-2.8l5-1.2l0.2,0.9l-4.5,1.1l0.4-0.7
			L138.1,63.4z M141.4,62.2l0.2,0.9l-4.1,1l-0.2-0.9L141.4,62.2z"/>
		<path class="st4" d="M146.6,61.5l1.9-0.2l0.1,0.9l-1.9,0.2L146.6,61.5z"/>
		<path class="st4" d="M160,61.3c0,0.5-0.2,0.9-0.5,1.3c-0.3,0.4-0.6,0.7-1.1,0.9s-1,0.4-1.6,0.4c-0.7,0-1.3-0.1-1.8-0.3
			c-0.5-0.2-0.9-0.6-1.2-1c-0.3-0.5-0.5-1-0.5-1.6s0.1-1.2,0.4-1.6c0.3-0.5,0.6-0.9,1.1-1.1s1.1-0.4,1.8-0.5c0.6,0,1.1,0,1.6,0.2
			s0.9,0.5,1.2,0.8s0.5,0.8,0.6,1.3l-1.1,0c-0.1-0.3-0.2-0.6-0.4-0.8c-0.2-0.2-0.5-0.4-0.8-0.5c-0.3-0.1-0.7-0.2-1.1-0.1
			c-0.5,0-0.9,0.1-1.2,0.3s-0.6,0.5-0.8,0.8c-0.2,0.3-0.2,0.7-0.2,1.2s0.1,0.8,0.3,1.1c0.2,0.3,0.5,0.6,0.8,0.7
			c0.4,0.2,0.8,0.2,1.2,0.2c0.4,0,0.8-0.1,1.1-0.2s0.5-0.3,0.7-0.6c0.2-0.2,0.3-0.5,0.3-0.8L160,61.3z"/>
		<path class="st4" d="M167.9,64c-0.7,0-1.3-0.2-1.8-0.5c-0.5-0.3-0.9-0.7-1.1-1.2s-0.4-1-0.3-1.6c0-0.6,0.2-1.1,0.5-1.6
			s0.7-0.8,1.3-1s1.1-0.3,1.8-0.3c0.7,0,1.3,0.2,1.8,0.5s0.9,0.7,1.1,1.2s0.4,1,0.3,1.6c0,0.6-0.2,1.1-0.5,1.6s-0.7,0.8-1.3,1
			C169.2,63.9,168.6,64,167.9,64z M168,63.1c0.5,0,0.9,0,1.3-0.2c0.4-0.2,0.6-0.4,0.9-0.7s0.3-0.7,0.4-1.1s0-0.8-0.2-1.2
			s-0.4-0.6-0.8-0.8c-0.3-0.2-0.8-0.3-1.2-0.3c-0.5,0-0.9,0-1.3,0.2c-0.4,0.2-0.6,0.4-0.9,0.7s-0.3,0.7-0.4,1.1s0,0.8,0.2,1.2
			c0.2,0.3,0.4,0.6,0.8,0.8C167.1,62.9,167.5,63,168,63.1z"/>
		<path class="st4" d="M181.7,65l-0.4,0l1-5.3l1,0.2l-1.1,5.9l-1.3-0.2l-3.2-6.1l0.4,0l-1,5.4l-1-0.2l1.1-5.9l1.4,0.2L181.7,65z"/>
		<path class="st4" d="M187.2,65l1,0.3c0,0.2,0,0.5,0.1,0.7s0.3,0.4,0.5,0.6c0.2,0.2,0.5,0.3,0.9,0.4c0.5,0.2,0.9,0.2,1.3,0.2
			s0.6-0.2,0.7-0.5c0.1-0.2,0-0.4-0.1-0.6c-0.1-0.2-0.4-0.4-0.9-0.5l-1.2-0.6c-0.7-0.3-1.1-0.6-1.3-1c-0.2-0.4-0.3-0.8-0.1-1.2
			c0.1-0.4,0.3-0.6,0.6-0.8c0.3-0.2,0.7-0.3,1.1-0.3c0.4,0,0.9,0.1,1.4,0.2s0.9,0.4,1.3,0.7s0.6,0.6,0.7,0.9s0.2,0.7,0.1,1.1l-1-0.3
			c0-0.2,0-0.4-0.1-0.6c-0.1-0.2-0.2-0.4-0.5-0.5c-0.2-0.2-0.5-0.3-0.8-0.4c-0.5-0.1-0.9-0.2-1.2-0.1c-0.3,0.1-0.5,0.2-0.6,0.5
			c-0.1,0.2,0,0.4,0.1,0.5c0.1,0.2,0.4,0.3,0.8,0.5l1.2,0.6c0.5,0.2,0.9,0.5,1.1,0.7s0.4,0.4,0.5,0.7c0.1,0.2,0,0.5-0.1,0.8
			c-0.1,0.4-0.3,0.6-0.6,0.9s-0.7,0.3-1.1,0.3c-0.5,0-1-0.1-1.5-0.2c-0.5-0.2-1-0.4-1.4-0.7s-0.6-0.6-0.8-1
			C187.1,65.8,187.1,65.4,187.2,65z"/>
		<path class="st4" d="M199.2,71.9c-0.6-0.3-1.1-0.7-1.4-1.2c-0.3-0.5-0.5-1-0.6-1.5s0.1-1.1,0.4-1.6c0.3-0.5,0.6-1,1.1-1.3
			s1-0.4,1.6-0.4c0.6,0,1.2,0.1,1.8,0.5s1.1,0.7,1.4,1.2c0.3,0.5,0.5,1,0.6,1.5c0,0.5-0.1,1.1-0.4,1.6s-0.6,1-1.1,1.3
			s-1,0.4-1.6,0.4C200.4,72.4,199.8,72.2,199.2,71.9z M199.6,71.1c0.4,0.2,0.9,0.3,1.2,0.3c0.4,0,0.8-0.1,1.1-0.3
			c0.3-0.2,0.6-0.5,0.8-0.9c0.2-0.4,0.3-0.8,0.3-1.2s-0.2-0.7-0.4-1c-0.2-0.3-0.6-0.6-1-0.8s-0.8-0.3-1.2-0.3s-0.8,0.1-1.1,0.3
			c-0.3,0.2-0.6,0.5-0.8,0.9s-0.3,0.8-0.3,1.2s0.2,0.7,0.4,1C198.8,70.6,199.2,70.8,199.6,71.1z"/>
		<path class="st4" d="M208.7,73.6l2,1.4c0.3,0.2,0.6,0.3,0.8,0.3c0.3,0,0.5-0.1,0.6-0.4c0.2-0.2,0.2-0.5,0.1-0.7s-0.2-0.5-0.5-0.7
			l-2.1-1.5l0.7-0.2l-3.3,4.6l-0.9-0.6l3.5-4.9l2.6,1.9c0.3,0.2,0.6,0.5,0.8,0.8c0.2,0.3,0.2,0.6,0.2,1c0,0.3-0.1,0.6-0.3,0.9
			c-0.2,0.3-0.5,0.5-0.8,0.6s-0.6,0.1-1,0.1c-0.4-0.1-0.7-0.2-1-0.5l-2-1.5L208.7,73.6z M209.4,74.7l1,0.7l0.3,3.7l-1-0.7
			L209.4,74.7z"/>
		<path class="st4" d="M220.4,84.7c-0.4,0.3-0.8,0.5-1.3,0.6s-1,0-1.4-0.2c-0.5-0.2-0.9-0.5-1.4-0.9c-0.5-0.5-0.8-1-1-1.5
			s-0.2-1.1-0.1-1.6s0.4-1,0.8-1.5s0.9-0.7,1.4-0.9c0.5-0.1,1.1-0.1,1.6,0c0.5,0.2,1.1,0.5,1.5,1c0.4,0.4,0.7,0.9,0.9,1.3
			s0.3,1,0.2,1.4c0,0.5-0.2,0.9-0.5,1.3l-0.8-0.7c0.2-0.3,0.3-0.6,0.3-0.9s0-0.6-0.2-0.9s-0.4-0.6-0.6-0.9c-0.3-0.3-0.7-0.5-1.1-0.7
			s-0.7-0.1-1.1,0s-0.7,0.3-1,0.6c-0.3,0.3-0.5,0.7-0.6,1s-0.1,0.7,0,1.1s0.4,0.7,0.7,1c0.3,0.3,0.6,0.5,0.9,0.6s0.6,0.2,0.9,0.1
			c0.3,0,0.6-0.1,0.9-0.3L220.4,84.7z"/>
		<path class="st4" d="M225,89.1l-2.4,1.3l0.1-0.8l2.9,3.6l-0.7,0.6l-3.3-4.1l2.6-1.5l2-2.2l3.2,4.1l-0.7,0.6l-2.9-3.6l0.8,0
			L225,89.1z M227.5,91.5l-0.7,0.5l-2.6-3.3l0.7-0.5L227.5,91.5z"/>
	</g>
	<g>
		<path class="st5" d="M161.7,323.4C161.6,323.4,161.6,323.4,161.7,323.4l-3.1,5.5c1,0.1,2.1,0.2,3.1,0.2
			c14.7,0,26.6-11.9,26.6-26.6l0,0v-5.6C188.2,311.5,176.3,323.4,161.7,323.4z"/>
		<path class="st5" d="M135.1,296.8v5.6c0,3.6,0.7,7.1,2,10.2l1.5-2.6C136.4,306.1,135.1,301.6,135.1,296.8z"/>
		
			<pattern  id="SVGID_00000154401026753125829230000016046635343988083607_" xlink:href="#SVGID_1_" patternTransform="matrix(1 0 0 -1 -57.8542 -17865.9707)">
		</pattern>
		
			<path style="fill:url(#SVGID_00000154401026753125829230000016046635343988083607_);stroke:#FCBC00;stroke-width:1.5;stroke-linecap:round;stroke-linejoin:round;stroke-miterlimit:10;" d="
			M138.6,310l-4.6,8.3c-3.6,6.4-1.3,14.5,5.1,18.1s14.5,1.3,18.1-5.1l4.5-8C151.8,323.3,143.2,318,138.6,310z"/>
		<path class="st5" d="M161.7,317.6c-14.7,0-26.6-11.9-26.6-26.6v5.8c0,4.8,1.3,9.3,3.5,13.2c4.6,8,13.1,13.3,23,13.3c0,0,0,0,0,0
			c14.7,0,26.5-11.9,26.6-26.5c0,0,0,0,0,0l0,0V291C188.2,305.7,176.3,317.6,161.7,317.6z"/>
		<polygon class="st5" points="145.7,141.8 145.7,122.6 145.7,111.3 135.1,111.3 135.1,122.6 135.1,141.8 135.1,190.4 135.1,219 
			135.1,267.7 135.1,279 135.1,284.6 135.1,291 145.7,291 		"/>
		
			<pattern  id="SVGID_00000170959350020893611730000002622786003289145488_" xlink:href="#SVGID_0000010034041388315582057" patternTransform="matrix(1 0 0 -1 -57.8542 -17865.9707)">
		</pattern>
		
			<polygon style="fill:url(#SVGID_00000170959350020893611730000002622786003289145488_);stroke:#FCBC00;stroke-width:1.5;stroke-linecap:round;stroke-linejoin:round;stroke-miterlimit:10;" points="
			188.2,111.3 177.6,111.3 177.6,122.6 177.6,141.8 177.6,291 188.2,291 188.2,141.8 188.2,122.6 		"/>
		
			<pattern  id="SVGID_00000021819932000118179800000000560451343677795983_" xlink:href="#SVGID_0000005064440455251170207" patternTransform="matrix(1 0 0 -1 342.39 -19762.5801)">
		</pattern>
		
			<path style="fill:url(#SVGID_00000021819932000118179800000000560451343677795983_);stroke:#FCBC00;stroke-width:1.5;stroke-linecap:round;stroke-linejoin:round;stroke-miterlimit:10;" d="
			M177.6,291H167h-10.6h-10.6h-10.6c0,14.7,11.9,26.6,26.6,26.6c14.7,0,26.5-11.9,26.6-26.5c0,0,0,0,0,0l0,0H177.6z"/>
		
			<pattern  id="SVGID_00000020359042829527083610000000921263308092012689_" xlink:href="#SVGID_0000011332588768841984259" patternTransform="matrix(1 0 0 -1 282.72 -19624.5781)">
		</pattern>
		
			<path style="fill:url(#SVGID_00000020359042829527083610000000921263308092012689_);stroke:#FCBC00;stroke-width:1.5;stroke-linecap:round;stroke-linejoin:round;stroke-miterlimit:10;" d="
			M95.9,154c-6.7,0-12.2-5.4-12.2-12.2h-8.4c0,18,14.6,32.7,32.7,32.7v-32.7C108.1,148.5,102.7,154,95.9,154z"/>
		
			<pattern  id="SVGID_00000070118641559327563370000017337792686272247722_" xlink:href="#SVGID_0000001171734644320757063" patternTransform="matrix(1 0 0 -1 353.02 -19605.418)">
		</pattern>
		
			<polygon style="fill:url(#SVGID_00000070118641559327563370000017337792686272247722_);stroke:#FCBC00;stroke-width:1.5;stroke-linecap:round;stroke-linejoin:round;stroke-miterlimit:10;" points="
			156.3,141.8 145.7,122.6 145.7,141.8 		"/>
		<polygon class="st5" points="188.2,122.6 188.2,141.8 188.2,141.8 198.9,141.8 		"/>
		<polygon class="st5" points="177.6,122.6 167,141.8 177.6,141.8 		"/>
		<polygon class="st5" points="135.1,122.6 124.5,141.8 135.1,141.8 		"/>
		<polygon class="st5" points="108.1,141.8 75.4,123.7 75.4,141.8 83.8,141.8 		"/>
		
			<pattern  id="SVGID_00000068644514761294141650000016704112485213298340_" xlink:href="#SVGID_0000013639360474283083134" patternTransform="matrix(1 0 0 -1 -8.2628 -17484.8613)">
		</pattern>
		
			<polygon style="fill:url(#SVGID_00000068644514761294141650000016704112485213298340_);stroke:#FCBC00;stroke-width:1.5;stroke-linecap:round;stroke-linejoin:round;stroke-miterlimit:10;" points="
			215.2,141.8 239.5,141.8 247.9,141.8 247.9,123.7 		"/>
		
			<pattern  id="SVGID_00000096751104781681976200000014589456463741227711_" xlink:href="#SVGID_0000012847345050850860504" patternTransform="matrix(1 0 0 -1 395.54 -19613.3789)">
		</pattern>
		
			<polygon style="fill:url(#SVGID_00000096751104781681976200000014589456463741227711_);stroke:#FCBC00;stroke-width:1.5;stroke-linecap:round;stroke-linejoin:round;stroke-miterlimit:10;" points="
			198.9,141.8 188.2,141.8 215.2,190.4 215.2,174.5 215.2,141.8 		"/>
		<polygon class="st5" points="188.2,190.4 215.2,190.4 188.2,141.8 		"/>
		<polygon class="st5" points="108.1,190.4 135.1,190.4 135.1,141.8 		"/>
		
			<pattern  id="SVGID_00000060021831342133590640000001945445770496847037_" xlink:href="#SVGID_0000015009461004861726605" patternTransform="matrix(1 0 0 -1 -8.2628 -17484.8613)">
		</pattern>
		
			<polygon style="fill:url(#SVGID_00000060021831342133590640000001945445770496847037_);stroke:#FCBC00;stroke-width:1.5;stroke-linecap:round;stroke-linejoin:round;stroke-miterlimit:10;" points="
			124.5,141.8 108.1,141.8 108.1,174.5 108.1,190.4 135.1,141.8 		"/>
		<path class="st5" d="M151.4,105.7c0-3.1-2.5-5.6-5.6-5.6v11.3C148.8,111.3,151.4,108.8,151.4,105.7z"/>
		<path class="st5" d="M129.4,105.7c0,3.1,2.5,5.6,5.6,5.6V100C132,100,129.4,102.6,129.4,105.7z"/>
		<path class="st5" d="M95.9,154c6.7,0,12.2-5.4,12.2-12.2H83.8C83.8,148.5,89.2,154,95.9,154z"/>
		
			<pattern  id="SVGID_00000114753905101301222120000013220522204701315504_" xlink:href="#SVGID_0000016088415273873870520" patternTransform="matrix(1 0 0 -1 315.4075 -19663.8164)">
		</pattern>
		
			<path style="fill:url(#SVGID_00000114753905101301222120000013220522204701315504_);stroke:#FCBC00;stroke-width:1.5;stroke-linecap:round;stroke-linejoin:round;stroke-miterlimit:10;" d="
			M111.7,195.9c-4.9,4.9-4.9,12.8,0,17.6l17.6-17.6C124.5,191,116.6,191,111.7,195.9z"/>
		<path class="st5" d="M129.4,213.5c4.9-4.9,4.9-12.8,0-17.6l-17.6,17.6C116.6,218.4,124.5,218.4,129.4,213.5z"/>
		<path class="st5" d="M211.3,195.9c-4.9-4.9-12.7-4.9-17.6,0l17.6,17.6C216.2,208.6,216.2,200.7,211.3,195.9z"/>
		
			<pattern  id="SVGID_00000024001073438491182440000010347483833002857123_" xlink:href="#SVGID_0000017529072859389089635" patternTransform="matrix(1 0 0 -1 397.365 -19678.668)">
		</pattern>
		
			<path style="fill:url(#SVGID_00000024001073438491182440000010347483833002857123_);stroke:#FCBC00;stroke-width:1.5;stroke-linecap:round;stroke-linejoin:round;stroke-miterlimit:10;" d="
			M211.3,213.5l-17.6-17.6l0,0c-4.9,4.9-4.9,12.7,0,17.6C198.6,218.3,206.4,218.3,211.3,213.5z"/>
		<path class="st5" d="M227.4,154c-6.7,0-12.2-5.4-12.2-12.2v32.7c18,0,32.7-14.6,32.7-32.7h-8.4C239.5,148.5,234.1,154,227.4,154z"
			/>
		<path class="st5" d="M227.4,154c6.7,0,12.2-5.4,12.2-12.2h-24.3C215.2,148.5,220.7,154,227.4,154z"/>
		
			<pattern  id="SVGID_00000052073728991189963890000002809919564992870797_" xlink:href="#SVGID_0000015154456923920593676" patternTransform="matrix(1 0 0 -1 342.39 -19211.6289)">
		</pattern>
		
			<rect x="135.1" y="100" style="fill:url(#SVGID_00000052073728991189963890000002809919564992870797_);stroke:#FCBC00;stroke-width:1.5;stroke-linecap:round;stroke-linejoin:round;stroke-miterlimit:10;" width="10.6" height="11.3"/>
		<path class="st5" d="M193.9,105.7c0-3.1-2.5-5.6-5.6-5.6v11.3C191.3,111.3,193.9,108.8,193.9,105.7z"/>
		<path class="st5" d="M171.9,105.7c0,3.1,2.5,5.6,5.6,5.6V100C174.5,100,171.9,102.6,171.9,105.7z"/>
		<rect x="177.6" y="100" class="st5" width="10.6" height="11.3"/>
		<polygon class="st5" points="145.7,291 149.3,291 152.8,291 156.3,291 156.3,141.8 152.8,141.8 149.3,141.8 145.7,141.8 		"/>
		
			<pattern  id="SVGID_00000034081259662242539250000012360074824395490993_" xlink:href="#SVGID_0000015295423040911153719" patternTransform="matrix(1 0 0 -1 363.65 -19970.7109)">
		</pattern>
		
			<polygon style="fill:url(#SVGID_00000034081259662242539250000012360074824395490993_);stroke:#FCBC00;stroke-width:1.5;stroke-linecap:round;stroke-linejoin:round;stroke-miterlimit:10;" points="
			156.3,291 159.9,291 163.4,291 167,291 167,141.8 163.4,141.8 159.9,141.8 156.3,141.8 		"/>
		<polygon class="st5" points="167,291 170.5,291 174.1,291 177.6,291 177.6,141.8 174.1,141.8 170.5,141.8 167,141.8 		"/>
		
			<pattern  id="SVGID_00000001662781646796890500000010466798154582138553_" xlink:href="#SVGID_0000000378417528855695885" patternTransform="matrix(1 0 0 -1 315.41 -19701.8184)">
		</pattern>
		
			<polygon style="fill:url(#SVGID_00000001662781646796890500000010466798154582138553_);stroke:#FCBC00;stroke-width:1.5;stroke-linecap:round;stroke-linejoin:round;stroke-miterlimit:10;" points="
			108.1,219 135.1,267.7 135.1,219 		"/>
		<polygon class="st5" points="188.2,267.7 215.2,219 188.2,219 		"/>
	</g>
	<g>
		<path class="st4" d="M65.8,272.3l-23.6,5.5l1.5-2.5l4.5,19.3l-4,0.9l-5-21.8l25.6-5.9L65.8,272.3z"/>
		<path class="st4" d="M81.8,320.8l-18.5,22.5l-2.1-4.5l17.4-20.7l0.8,1.6l-27,0l-2.1-4.5l29.1,0.3L81.8,320.8z M58.3,318.3l3.5-1.6
			l7.8,16.6l-3.5,1.6L58.3,318.3z"/>
		<path class="st4" d="M127.7,384.5c-0.7,1.5-1.7,2.7-2.9,3.7c-1.2,1-2.5,1.8-4,2.3c-1.5,0.5-3.1,0.7-4.8,0.5
			c-1.7-0.1-3.5-0.7-5.3-1.5c-1.9-0.9-3.5-2-4.8-3.4s-2.3-2.8-3-4.5c-0.7-1.6-1-3.4-0.9-5.2s0.6-3.7,1.5-5.6
			c0.9-1.9,2.1-3.4,3.4-4.6s2.9-2,4.6-2.5c1.7-0.5,3.5-0.6,5.4-0.4s3.8,0.8,5.7,1.7c2.4,1.2,4.4,2.6,5.8,4.2s2.4,3.5,2.8,5.3
			c0.5,1.9,0.4,3.8-0.2,5.7l-4.2-2c0.3-1.2,0.3-2.4-0.1-3.6s-1-2.3-2-3.3c-1-1-2.3-1.9-3.8-2.7c-1.9-0.9-3.6-1.3-5.3-1.3
			c-1.7,0-3.2,0.5-4.6,1.4s-2.5,2.3-3.4,4.1c-0.9,1.8-1.2,3.5-1.1,5.2s0.8,3.2,1.8,4.6s2.6,2.5,4.5,3.4c1.9,0.9,3.6,1.3,5.3,1.4
			c1.7,0,3.2-0.3,4.5-1s2.4-1.8,3.2-3.3L127.7,384.5z M116.4,381.3l1.5-3.2l12,5.8l-5.6,11.6l-3.1-1.5l4.2-10l0.3,1.8L116.4,381.3z"
			/>
		<path class="st4" d="M152.6,373.3l4.6,0.3l-1.5,26.2l-4.6-0.3L152.6,373.3z"/>
		<path class="st4" d="M182.1,384.1l10.3-2.7c1.5-0.4,2.6-1,3.3-1.9s0.9-1.9,0.6-3.1c-0.3-1.2-1-2-2-2.5s-2.3-0.5-3.8-0.1l-11,2.9
			l1.3-3l6.3,24l-4.5,1.2l-6.6-25.4l13.9-3.6c1.8-0.5,3.4-0.5,4.9-0.3s2.8,0.9,3.9,1.8c1,0.9,1.8,2.2,2.2,3.7
			c0.4,1.5,0.4,2.9-0.1,4.2c-0.5,1.3-1.3,2.5-2.5,3.5c-1.2,1-2.7,1.7-4.4,2.2l-10.7,2.8L182.1,384.1z M187.6,384.9l5.2-1.4l13.2,9.3
			l-5.4,1.4L187.6,384.9z"/>
		<path class="st4" d="M222.3,349.6l27.4,9.8l-3.5,3.5l-25.4-9.4l1.3-1.3l9.1,25.5l-3.5,3.5l-9.5-27.5L222.3,349.6z M227.8,372.6
			l-2.7-2.7l13-12.9l2.7,2.7L227.8,372.6z"/>
		<path class="st4" d="M247.7,307.4l3.7,1.7l-8.2,17.7l-1.3-3.4l22.5,10.5l-2,4.2l-23.8-11.1L247.7,307.4z M249.9,329.9l7.9-17.1
			l3.7,1.7l-7.9,17.1L249.9,329.9z"/>
		<path class="st4" d="M267.5,287.2l11,4.5l-3,1.5l4.8-19.8l3.9,0.9l-5.3,22.3l-12.3-5.1l-13.2-1l5.3-22.1l3.9,0.9l-4.7,19.6l-2-2.8
			L267.5,287.2z M269.2,271.8l3.7,0.9l-4.3,17.8l-3.7-0.9L269.2,271.8z"/>
	</g>
	<g>
		<path class="st4" d="M69.5,89c0.8,0.5,1.3,1.2,1.7,2s0.5,1.7,0.4,2.7c-0.1,1-0.4,1.9-0.9,2.9c-0.6,1.1-1.4,2-2.2,2.5
			c-0.9,0.6-1.8,0.9-2.9,1c-1,0-2-0.2-3.1-0.8c-1-0.6-1.8-1.3-2.3-2.2s-0.8-1.9-0.7-2.9s0.4-2.2,0.9-3.3c0.5-1,1.2-1.8,2-2.4
			s1.6-0.9,2.5-1.1c0.9-0.1,1.8,0,2.6,0.3l-1,1.8c-0.6-0.2-1.1-0.2-1.7-0.1c-0.6,0.1-1.1,0.4-1.6,0.8c-0.5,0.4-0.9,0.9-1.3,1.6
			c-0.4,0.8-0.6,1.5-0.7,2.2s0.1,1.4,0.5,2c0.4,0.6,0.9,1.1,1.6,1.5s1.4,0.6,2.1,0.6s1.4-0.2,2-0.6c0.6-0.4,1.1-1,1.5-1.8
			c0.4-0.7,0.6-1.3,0.7-1.9s0-1.2-0.2-1.7c-0.2-0.5-0.5-1-1-1.4L69.5,89z"/>
		<path class="st4" d="M71.8,73.6L84,76l-1.3,1.7l-11.4-2.3l0.5-0.6l5.5,10.2l-1.3,1.7l-5.8-11L71.8,73.6z M75.6,83l-1.3-1l4.7-6.3
			l1.3,1L75.6,83z"/>
		<path class="st4" d="M87.1,56.7l1.2,1.2l-6,5.9l0-1.6l7.5,7.6l-1.4,1.4l-7.9-8L87.1,56.7z M84.6,66.1l5.8-5.7l1.2,1.2l-5.8,5.7
			L84.6,66.1z"/>
		<path class="st4" d="M99,54.4l2.2,4.6l-1.4-0.4l7.2-4.9l1,1.4l-8.1,5.6l-2.4-5.1l-3.9-4.1l8-5.5l1,1.4l-7.1,4.9l0.1-1.4L99,54.4z
			 M96.4,45.5l1.9-1.3l-0.7,3.3l-1.7,1.2L96.4,45.5z M103.9,50l0.9,1.4l-6.5,4.5l-0.9-1.4L103.9,50z"/>
		<path class="st4" d="M122.8,44c-0.3,0.1-0.6,0.1-1,0.1c-0.3-0.1-0.6-0.2-0.8-0.4c-0.2-0.2-0.4-0.5-0.5-0.8c-0.1-0.3-0.1-0.6-0.1-1
			c0.1-0.3,0.2-0.6,0.4-0.8s0.5-0.4,0.8-0.5c0.3-0.1,0.6-0.1,1-0.1s0.6,0.2,0.8,0.4c0.2,0.2,0.4,0.5,0.5,0.8c0.1,0.3,0.1,0.6,0.1,1
			c-0.1,0.3-0.2,0.6-0.4,0.8C123.4,43.7,123.1,43.9,122.8,44z"/>
		<path class="st4" d="M139,32l11.2-1.4l0.2,1.7l-11.2,1.4L139,32z M143.7,32.3l2-0.2l1.3,10.2l-2,0.2L143.7,32.3z"/>
		<path class="st4" d="M158.1,30.3l2,0l0.2,11.2l-2,0L158.1,30.3z"/>
		<path class="st4" d="M171,36.2l-1.2,4.9l-0.9-1.2l8.7,0.7l-0.1,1.7l-9.8-0.8l1.4-5.5l-0.4-5.7l9.7,0.8l-0.1,1.7l-8.6-0.7l1-1
			L171,36.2z M177.6,35.9l-0.1,1.6l-7.8-0.7l0.1-1.6L177.6,35.9z"/>
		<path class="st4" d="M187.2,37.8l4.5,1.1c0.6,0.1,1.2,0.1,1.6-0.1c0.4-0.2,0.7-0.6,0.9-1.1c0.1-0.5,0-1-0.3-1.3
			c-0.3-0.4-0.8-0.6-1.4-0.8l-4.7-1.1l1.1-0.9l-2.5,10.4l-1.9-0.5l2.6-10.9l6,1.4c0.8,0.2,1.4,0.5,1.9,0.9s0.9,0.9,1.1,1.5
			c0.2,0.6,0.2,1.2,0.1,1.9c-0.1,0.6-0.5,1.2-0.9,1.6c-0.4,0.4-1,0.7-1.6,0.8s-1.4,0.1-2.1-0.1l-4.6-1.1L187.2,37.8z M189.2,39.2
			l2.3,0.5l3.1,6.2l-2.3-0.6L189.2,39.2z"/>
		<path class="st4" d="M201.7,44.4l1.8,0.8c-0.1,0.4-0.1,0.9,0,1.3s0.4,0.9,0.8,1.2c0.4,0.4,0.9,0.7,1.5,1c0.9,0.4,1.7,0.6,2.4,0.5
			s1.1-0.3,1.3-0.8c0.2-0.4,0.2-0.8-0.1-1.1c-0.2-0.3-0.7-0.7-1.5-1.2l-2.1-1.3c-1.2-0.7-1.9-1.4-2.3-2.1s-0.4-1.5,0-2.3
			c0.3-0.6,0.7-1.1,1.3-1.4c0.6-0.3,1.3-0.4,2.1-0.4c0.8,0.1,1.7,0.3,2.6,0.7c0.9,0.4,1.7,0.9,2.3,1.5c0.6,0.6,1,1.2,1.2,1.9
			c0.2,0.7,0.2,1.4-0.1,2l-1.8-0.8c0.1-0.4,0.1-0.8,0-1.1c-0.1-0.4-0.4-0.7-0.8-1.1c-0.4-0.3-0.9-0.6-1.5-0.9
			c-0.8-0.4-1.6-0.5-2.2-0.5c-0.6,0.1-1,0.3-1.2,0.8c-0.2,0.4-0.1,0.7,0.1,1c0.2,0.3,0.7,0.7,1.4,1.1l2.1,1.3c0.9,0.5,1.5,1,2,1.5
			s0.7,0.9,0.8,1.4c0.1,0.5,0,1-0.3,1.5c-0.3,0.7-0.8,1.1-1.4,1.5c-0.6,0.3-1.4,0.4-2.2,0.4s-1.8-0.3-2.7-0.7c-1-0.4-1.8-1-2.4-1.6
			c-0.6-0.6-1-1.3-1.2-2C201.4,45.9,201.5,45.2,201.7,44.4z"/>
		<path class="st4" d="M219.1,50.4l2.9,1.9l-0.9,1.4l-2.9-1.9L219.1,50.4z"/>
		<path class="st4" d="M233.5,54.4l-6.8,7.8l-0.1-1.2l6.4,5.6l-1.1,1.3l-7.2-6.3l7.4-8.5L233.5,54.4z"/>
		<path class="st4" d="M244.7,65.3l1.3,1.5l-8.4,7.5l-1.3-1.5L244.7,65.3z"/>
		<path class="st4" d="M248.5,79l-4.6,2.2l0.4-1.4l5,7.1l-1.4,1l-5.6-8l5.1-2.5l4.1-4l5.6,8l-1.4,1l-5-7.1l1.5,0.1L248.5,79z
			 M252.9,83.9l-1.4,1l-4.5-6.4l1.4-1L252.9,83.9z"/>
		<path class="st4" d="M256.8,93.4c-0.6,0.3-1,0.7-1.3,1.2s-0.5,1-0.5,1.6s0.2,1.2,0.5,1.8c0.3,0.6,0.7,1.1,1.2,1.4s1,0.5,1.5,0.5
			s1.1-0.1,1.7-0.5l5.7-3l0.9,1.8l-5.7,3c-0.9,0.5-1.8,0.7-2.6,0.6c-0.9,0-1.7-0.3-2.4-0.8c-0.7-0.5-1.4-1.2-1.9-2.2
			c-0.5-0.9-0.8-1.9-0.8-2.8c0-0.9,0.2-1.7,0.7-2.5s1.1-1.4,2-1.8l5.7-3l0.9,1.8L256.8,93.4z"/>
	</g>
</g>
</svg>
