<svg version="1.1" id="Calque_1" xmlns="http://www.w3.org/2000/svg" x="0" y="0" viewBox="0 0 500 500" xml:space="preserve"><path d="M153.9 398.9c5.9 0 11.8-.8 17.5-2.5 19.9-5.7 35.2-20.4 38.2-36.3.6-3.1.9-6.2.8-9.3V200.4l140.2-29v129.3c-11.3-10.4-30.4-14.3-49.6-8.8-26.5 7.6-43.3 30.2-37.5 50.5.6 1.9 1.3 3.8 2.2 5.6 6.5 12.4 21.5 19.8 38.8 19.8 5.9 0 11.8-.9 17.5-2.5 19.9-5.7 35.2-20.4 38.2-36.3.5-2.6.8-5.3.8-8V113.3c.1-2.9-2.2-5.2-5.1-5.3-.4 0-.7 0-1.1.1L204.2 138c-2.5.5-4.3 2.7-4.2 5.2v188.7c-11.3-10.4-30.5-14.3-49.6-8.8-12 3.2-22.7 10.2-30.5 19.8-7.2 8.5-9.8 19.9-7.1 30.6.6 1.9 1.3 3.8 2.2 5.6 6.6 12.4 21.6 19.8 38.9 19.8zM319 355.3c-20.8 6-41.5-1.1-45.7-15.6s9.4-31.6 30.4-37.6c4.8-1.4 9.7-2.1 14.6-2.1 13.8 0 26 5.7 30.1 15.2 0 .5.4.9.6 1.4 0 .4.3.8.4 1.2.9 3 1 6.2.4 9.2-2.2 12.3-14.6 23.7-30.8 28.3zm31.5-194.5l-140.2 29v-42.6l140.2-27.8v41.4zM128.1 349.4c6.4-7.9 15.2-13.6 25.1-16.2 4.8-1.4 9.7-2.1 14.6-2.1 13.8 0 26 5.7 30.1 15.3l.6 1.4c0 .4.3.8.4 1.3.9 3 1 6.2.4 9.2-2.2 12.4-14.6 23.8-30.8 28.4-20.8 6-41.5-1.1-45.7-15.6-1.8-7.7.1-15.8 5.3-21.7z"/></svg>