<svg version="1.1" id="Calque_1" xmlns="http://www.w3.org/2000/svg" x="0" y="0" viewBox="0 0 500 500" xml:space="preserve"><path d="M168.1 137.1c-5.6-2.2-11.4-.9-15.7 3.2-4.3-4.2-10.1-5.5-15.7-3.2-6.4 2.5-12.3 10.1-9.9 20.7 3.7 16.5 23.3 24.9 24.2 25.2.5.2.9.3 1.4.3s1-.1 1.4-.3c.8-.4 20.5-8.7 24.2-25.2 2.3-10.6-3.5-18.2-9.9-20.7zm2.7 19c-2.3 10.5-14.3 17.3-18.4 19.4-4.1-2.1-16.1-8.8-18.4-19.4-1.4-6.4 1.8-10.8 5.4-12.2.9-.4 1.8-.5 2.7-.5 2.7 0 5.3 1.6 7.1 4.7 1.3 2.2 5 2.2 6.3 0 2.4-4.1 6.1-5.7 9.8-4.2 3.7 1.4 6.9 5.9 5.5 12.2z"/><path d="M374.9 140.3h-83.5v-5.9c0-12.2-9.9-22-22-22H125c-12.2 0-22 9.9-22 22v222c0 12.2 9.9 22 22 22h83.5v5.9c0 12.2 9.9 22 22 22h144.3c12.2 0 22-9.9 22-22v-222c.2-12.2-9.7-22-21.9-22zM208.6 285.6c-5.1 3.1-9.3 5.1-11.4 6.1-7.5-3.5-42.8-21.4-49.5-51.3-4.1-18.3 5.6-31.2 16.3-35.4 8.9-3.5 21.4-2.2 30 12.2 1.3 2.2 5 2.2 6.3 0 2.3-3.9 5.1-7 8.2-9.3l.1 77.7zm0-123.3v37c-4.2 2.2-8.1 5.4-11.4 9.6-9.2-11.7-22.8-15.9-35.9-10.7-13.5 5.4-25.7 21.4-20.7 43.9 8.3 37.1 53.3 56.3 55.2 57.1.5.2.9.3 1.4.3s1-.1 1.4-.3c.2-.1 4.2-1.8 10-5V371H125c-8.1 0-14.7-6.6-14.7-14.7v-222c0-8.1 6.6-14.7 14.7-14.7h144.3c8.1 0 14.7 6.6 14.7 14.7v5.9h-53.4c-12.1.1-22 9.9-22 22.1zm181 222c0 8.1-6.6 14.7-14.7 14.7H230.6c-8.1 0-14.7-6.6-14.7-14.7v-222c0-8.1 6.6-14.7 14.7-14.7h144.3c8.1 0 14.7 6.6 14.7 14.7v222z"/><path d="M359.4 270c5-22.5-7.2-38.5-20.7-43.9-13.1-5.2-26.7-1-35.9 10.7-9.2-11.7-22.8-15.9-35.9-10.7-13.5 5.4-25.7 21.4-20.7 43.9 8.3 37.1 53.3 56.3 55.2 57.1.5.2.9.3 1.4.3s1-.1 1.4-.3c1.9-.8 46.9-20 55.2-57.1zm-56.6 49.7c-7.5-3.5-42.8-21.4-49.5-51.3-4.1-18.3 5.6-31.2 16.3-35.4 2.6-1 5.5-1.6 8.5-1.6 7.4 0 15.5 3.7 21.5 13.9 1.3 2.2 5 2.2 6.3 0 8.6-14.4 21.1-15.8 30-12.2 10.7 4.2 20.3 17.1 16.3 35.4-6.6 29.8-41.9 47.7-49.4 51.2zM258 211.2c.5 0 1-.1 1.4-.3.8-.4 20.5-8.7 24.2-25.2 2.4-10.6-3.5-18.1-9.9-20.7-5.6-2.2-11.4-.9-15.7 3.2-4.3-4.2-10.1-5.5-15.7-3.2-6.4 2.5-12.3 10.1-9.9 20.7 3.7 16.5 23.3 24.9 24.2 25.2.4.2.9.3 1.4.3zm-18.4-27.1c-1.4-6.4 1.8-10.8 5.4-12.2.9-.4 1.8-.5 2.7-.5 2.7 0 5.3 1.6 7.1 4.7 1.3 2.2 5 2.2 6.3 0 2.4-4.1 6.1-5.7 9.8-4.2 3.6 1.4 6.9 5.9 5.4 12.2-2.3 10.5-14.3 17.3-18.4 19.4-4.1-2.1-16-8.9-18.3-19.4zM349 335.7c-.9-.4-1.9-.4-2.8 0-.8.4-20.5 8.7-24.2 25.2-2.4 10.6 3.5 18.1 9.9 20.7 1.8.7 3.7 1.1 5.5 1.1 3.7 0 7.3-1.5 10.2-4.3 4.3 4.2 10.1 5.5 15.7 3.2 6.4-2.6 12.3-10.1 9.9-20.7-3.7-16.4-23.4-24.8-24.2-25.2zm11.5 39.1c-3.7 1.5-7.4-.1-9.8-4.2-1.3-2.2-5-2.2-6.3 0-2.4 4.1-6.1 5.7-9.8 4.2-3.6-1.4-6.9-5.9-5.4-12.2 2.3-10.5 14.3-17.3 18.4-19.4 4.1 2.1 16.1 8.8 18.4 19.4 1.4 6.3-1.8 10.7-5.5 12.2z"/></svg>