<?xml version="1.0" encoding="utf-8"?>
<!-- Generator: Adobe Illustrator 28.0.0, SVG Export Plug-In . SVG Version: 6.00 Build 0)  -->
<svg version="1.1" id="Calque_1" xmlns="http://www.w3.org/2000/svg" xmlns:xlink="http://www.w3.org/1999/xlink" x="0px" y="0px"
	 viewBox="0 0 500 500" style="enable-background:new 0 0 500 500;" xml:space="preserve">
<path d="M338.6,185c0-24.4-10.2-47.9-27.9-64.6c-18-16.9-41.6-25.4-66.3-23.9c-44.8,2.8-81.2,40.1-82.9,85
	c-0.9,23.9,7.6,46.7,23.9,64.1c13.8,14.7,19.8,22.8,20.3,40H204c-12.1,0-22,9.8-22,22c0,10.6,7.6,19.5,17.6,21.5v35
	c0,11.7,8.4,21.4,19.5,23.6c1.1,16,14.5,28.7,30.8,28.7s29.7-12.7,30.8-28.7c11.1-2.1,19.5-11.9,19.5-23.6v-35
	c10-2,17.6-10.9,17.6-21.5c0-12.1-9.8-22-22-22h-1.5c0.6-18,7.6-26.4,20.5-40.3C330.2,228.9,338.6,207.5,338.6,185z M250,408.3
	c-11.8,0-21.5-8.9-22.8-20.3h45.6C271.4,399.4,261.7,408.3,250,408.3z M292.3,364c0,8.8-7.2,16-16,16h-52.7c-8.8,0-16-7.2-16-16
	v-34.5h84.7V364z M295.9,293.6c7.7,0,14,6.3,14,14s-6.3,14-14,14H204c-7.7,0-14-6.3-14-14s6.3-14,14-14H295.9z M286.4,285.6h-72.8
	c-0.6-21.1-9-31.2-22.4-45.5c-14.9-15.8-22.6-36.6-21.7-58.3c1.6-40.8,34.7-74.8,75.4-77.3c22.5-1.4,44,6.3,60.4,21.7
	s25.4,36.3,25.4,58.8c0,20.5-7.7,40-21.6,54.9C295.5,254.4,287,264.7,286.4,285.6z"/>
<path d="M357.3,150.7c0.7,0,1.4-0.2,2-0.5l30.9-17.8c1.9-1.1,2.6-3.6,1.5-5.5c-1.1-1.9-3.5-2.6-5.5-1.5l-30.9,17.8
	c-1.9,1.1-2.6,3.6-1.5,5.5C354.6,150,356,150.7,357.3,150.7z"/>
<path d="M410,194c0-2.2-1.8-4-4-4h-35.7c-2.2,0-4,1.8-4,4s1.8,4,4,4H406C408.2,198,410,196.2,410,194z"/>
<path d="M355.8,245l30.9,17.8c0.6,0.4,1.3,0.5,2,0.5c1.4,0,2.7-0.7,3.5-2c1.1-1.9,0.4-4.4-1.5-5.5L359.8,238
	c-1.9-1.1-4.4-0.4-5.5,1.5C353.3,241.4,353.9,243.9,355.8,245z"/>
<path d="M144.6,143.2l-30.9-17.8c-1.9-1.1-4.4-0.4-5.5,1.5c-1.1,1.9-0.4,4.4,1.5,5.5l30.9,17.8c0.6,0.4,1.3,0.5,2,0.5
	c1.4,0,2.7-0.7,3.5-2C147.2,146.8,146.6,144.3,144.6,143.2z"/>
<path d="M94,198h35.7c2.2,0,4-1.8,4-4s-1.8-4-4-4H94c-2.2,0-4,1.8-4,4S91.8,198,94,198z"/>
<path d="M140.1,238l-30.9,17.8c-1.9,1.1-2.6,3.6-1.5,5.5c0.7,1.3,2.1,2,3.5,2c0.7,0,1.4-0.2,2-0.5l30.9-17.8
	c1.9-1.1,2.6-3.6,1.5-5.5C144.5,237.6,142,236.9,140.1,238z"/>
</svg>
