<svg version="1.1" id="Calque_1" xmlns="http://www.w3.org/2000/svg" x="0" y="0" viewBox="0 0 500 500" xml:space="preserve"><path d="M338.6 185c0-24.4-10.2-47.9-27.9-64.6-18-16.9-41.6-25.4-66.3-23.9-44.8 2.8-81.2 40.1-82.9 85-.9 23.9 7.6 46.7 23.9 64.1 13.8 14.7 19.8 22.8 20.3 40H204c-12.1 0-22 9.8-22 22 0 10.6 7.6 19.5 17.6 21.5v35c0 11.7 8.4 21.4 19.5 23.6 1.1 16 14.5 28.7 30.8 28.7s29.7-12.7 30.8-28.7c11.1-2.1 19.5-11.9 19.5-23.6v-35c10-2 17.6-10.9 17.6-21.5 0-12.1-9.8-22-22-22h-1.5c.6-18 7.6-26.4 20.5-40.3 15.4-16.4 23.8-37.8 23.8-60.3zM250 408.3c-11.8 0-21.5-8.9-22.8-20.3h45.6c-1.4 11.4-11.1 20.3-22.8 20.3zm42.3-44.3c0 8.8-7.2 16-16 16h-52.7c-8.8 0-16-7.2-16-16v-34.5h84.7V364zm3.6-70.4c7.7 0 14 6.3 14 14s-6.3 14-14 14H204c-7.7 0-14-6.3-14-14s6.3-14 14-14h91.9zm-9.5-8h-72.8c-.6-21.1-9-31.2-22.4-45.5-14.9-15.8-22.6-36.6-21.7-58.3 1.6-40.8 34.7-74.8 75.4-77.3 22.5-1.4 44 6.3 60.4 21.7s25.4 36.3 25.4 58.8c0 20.5-7.7 40-21.6 54.9-13.6 14.5-22.1 24.8-22.7 45.7zm70.9-134.9c.7 0 1.4-.2 2-.5l30.9-17.8c1.9-1.1 2.6-3.6 1.5-5.5s-3.5-2.6-5.5-1.5l-30.9 17.8c-1.9 1.1-2.6 3.6-1.5 5.5.8 1.3 2.2 2 3.5 2zM410 194c0-2.2-1.8-4-4-4h-35.7c-2.2 0-4 1.8-4 4s1.8 4 4 4H406c2.2 0 4-1.8 4-4zm-54.2 51l30.9 17.8c.6.4 1.3.5 2 .5 1.4 0 2.7-.7 3.5-2 1.1-1.9.4-4.4-1.5-5.5L359.8 238c-1.9-1.1-4.4-.4-5.5 1.5-1 1.9-.4 4.4 1.5 5.5zM144.6 143.2l-30.9-17.8c-1.9-1.1-4.4-.4-5.5 1.5-1.1 1.9-.4 4.4 1.5 5.5l30.9 17.8c.6.4 1.3.5 2 .5 1.4 0 2.7-.7 3.5-2 1.1-1.9.5-4.4-1.5-5.5zM94 198h35.7c2.2 0 4-1.8 4-4s-1.8-4-4-4H94c-2.2 0-4 1.8-4 4s1.8 4 4 4zm46.1 40l-30.9 17.8c-1.9 1.1-2.6 3.6-1.5 5.5.7 1.3 2.1 2 3.5 2 .7 0 1.4-.2 2-.5l30.9-17.8c1.9-1.1 2.6-3.6 1.5-5.5s-3.6-2.6-5.5-1.5z"/></svg>