<svg version="1.1" id="Calque_1" xmlns="http://www.w3.org/2000/svg" x="0" y="0" viewBox="0 0 500 500" xml:space="preserve"><path d="M414.3 221.4c-1.7 2.3-4.3 3.5-7 3.5-1.8 0-3.6-.6-5.1-1.7L250 111.7 97.7 223.2c-3.8 2.8-9.2 2-12.1-1.9-2.8-3.8-2-9.2 1.9-12.1L244.9 94.1c3-2.2 7.2-2.2 10.2 0l157.4 115.3c3.8 2.7 4.6 8.1 1.8 12zm-43.5 3.8c-4.8 0-8.6 3.9-8.6 8.6v137.3h-69v-74.9c0-23.8-19.4-43.2-43.2-43.2s-43.2 19.4-43.2 43.2v74.9h-69V233.8c0-4.8-3.9-8.6-8.6-8.6s-8.6 3.9-8.6 8.6v146c0 4.8 3.9 8.6 8.6 8.6h86.3c4.5 0 8.2-3.5 8.6-8v-84.3c0-14.3 11.6-25.9 25.9-25.9 14.3 0 25.9 11.6 25.9 25.9v84.3c.3 4.5 4.1 8 8.6 8h86.3c4.8 0 8.6-3.9 8.6-8.6v-146c0-4.8-3.9-8.6-8.6-8.6z"/></svg>