<?xml version="1.0" encoding="utf-8"?>
<!-- Generator: Adobe Illustrator 28.0.0, SVG Export Plug-In . SVG Version: 6.00 Build 0)  -->
<svg version="1.1" id="Calque_1" xmlns="http://www.w3.org/2000/svg" xmlns:xlink="http://www.w3.org/1999/xlink" x="0px" y="0px"
	 viewBox="0 0 500 500" style="enable-background:new 0 0 500 500;" xml:space="preserve">
<path d="M307.7,252.2h1V103.9l-100.6,61.3v80.5H74.2l-50,51.1h98.5l87.8,78.7h220l11.1-14.2l34.2,34.8v-83.7H371.6L307.7,252.2z
	 M301,117.7v128.2L218.4,168L301,117.7z M208.1,253.5V363L86,253.5H208.1z M42.6,289L76,255l38,34.1H42.6V289z M215.9,367.7V253.5
	v-3.9v-73.2l203,191.4L215.9,367.7L215.9,367.7z M468.1,377.2l-21.6-22l21.6-27.6V377.2z M464,320.2l-35.8,45.6l-48.4-45.6H464z"/>
</svg>
