<?xml version="1.0" standalone="no"?>
<!DOCTYPE svg PUBLIC "-//W3C//DTD SVG 20010904//EN"
 "http://www.w3.org/TR/2001/REC-SVG-20010904/DTD/svg10.dtd">
<svg version="1.0" xmlns="http://www.w3.org/2000/svg"
 width="700.000000pt" height="700.000000pt" viewBox="0 0 700.000000 700.000000"
 preserveAspectRatio="xMidYMid meet">
<metadata>
Created by potrace 1.14, written by Peter Selinger 2001-2017
</metadata>
<g transform="translate(0.000000,700.000000) scale(0.100000,-0.100000)"
fill="#000000" stroke="none">
<path d="M0 5143 c0 -1021 2 -1854 4 -1852 2 2 174 312 383 689 1386 2499
1651 2977 1662 2998 l12 22 -1031 0 -1030 0 0 -1857z"/>
<path d="M2459 6848 c-98 -177 -96 -173 -77 -165 12 4 25 -14 52 -67 45 -92
99 -154 167 -191 47 -26 65 -30 130 -30 67 0 83 4 150 37 40 20 97 56 124 79
64 54 199 142 248 162 l37 16 0 155 0 156 -373 0 -374 0 -84 -152z"/>
<path d="M3710 6905 l0 -95 1645 0 1645 0 0 95 0 95 -1645 0 -1645 0 0 -95z"/>
<path d="M3710 6535 l0 -195 1645 0 1645 0 0 195 0 194 -1645 1 -1645 0 0
-195z"/>
<path d="M1942 5917 l-383 -691 25 -56 c107 -238 22 -467 -216 -585 -88 -43
-130 -49 -136 -20 -2 11 -7 24 -12 28 -4 5 -85 -131 -179 -301 l-172 -309 17
-42 c20 -51 71 -97 126 -112 52 -15 189 -14 278 0 198 33 362 -10 466 -121 87
-93 126 -230 108 -378 -9 -72 -10 -75 -34 -73 -70 7 -67 3 -62 111 8 173 -41
273 -165 334 -75 37 -62 36 -443 27 -183 -5 -230 8 -306 86 l-50 52 -72 -132
c-40 -73 -72 -143 -72 -157 0 -14 9 -60 20 -104 54 -212 200 -283 443 -217 32
9 59 14 60 12 1 -2 10 -21 20 -42 l17 -38 -28 -10 c-61 -23 -151 -39 -228 -39
-123 0 -214 37 -283 116 -36 40 -91 148 -91 177 0 9 -4 17 -8 17 -9 0 -558
-984 -564 -1010 -2 -11 13 -16 64 -21 188 -20 301 -98 340 -234 20 -72 13
-201 -18 -321 -36 -137 -38 -240 -7 -299 44 -82 136 -143 263 -171 l70 -16 0
-45 0 -46 -52 6 c-128 16 -270 90 -332 174 -72 96 -85 225 -41 393 82 314 18
435 -248 466 l-57 7 0 -1167 0 -1167 42 3 42 3 26 75 c14 41 26 76 26 78 1 2
22 -2 47 -9 l45 -11 -14 -46 c-8 -26 -17 -57 -20 -69 l-6 -23 632 0 c597 0
631 1 626 18 -3 9 -14 54 -25 99 -35 145 -96 237 -188 283 -41 22 -61 25 -143
25 -81 -1 -104 -5 -160 -29 -96 -41 -93 -41 -118 3 l-22 40 37 20 c58 29 166
60 236 67 153 16 304 -66 386 -210 27 -46 40 -85 87 -258 l15 -58 758 0 758 0
27 62 c32 77 112 185 160 217 l36 24 0 1357 0 1357 -22 49 c-21 46 -23 63 -23
264 l0 215 -30 60 c-18 36 -43 69 -63 82 -71 47 -195 53 -371 16 -118 -24
-250 -15 -334 25 -162 75 -246 226 -247 440 l0 82 44 0 43 0 6 -87 c15 -223
106 -343 286 -374 52 -10 82 -8 193 11 98 16 158 21 237 18 123 -5 174 -24
240 -91 l41 -41 0 371 0 370 -62 12 c-127 25 -211 79 -256 165 -25 47 -27 60
-26 161 1 99 5 122 39 230 47 147 53 245 18 310 -44 82 -138 147 -257 178 -32
9 -60 18 -62 20 -3 2 -2 23 2 46 8 50 13 50 122 16 145 -46 252 -135 293 -244
31 -82 23 -211 -20 -346 -34 -104 -49 -224 -37 -289 14 -74 95 -136 199 -151
l47 -7 0 498 0 498 -32 27 -33 27 33 34 32 34 0 467 c0 257 -4 467 -8 467 -16
0 -127 -72 -193 -125 -153 -123 -240 -159 -377 -153 -70 2 -98 8 -144 31 -75
37 -157 120 -202 207 -20 38 -38 70 -39 70 -1 0 -174 -312 -385 -693z m716 13
l3 -45 -70 -11 c-132 -21 -242 -91 -293 -187 -20 -37 -23 -57 -23 -157 l0
-115 48 -114 c98 -230 101 -374 11 -479 -71 -83 -169 -122 -371 -147 -155 -19
-226 -47 -284 -113 -55 -63 -73 -130 -66 -251 2 -53 8 -103 11 -112 5 -12 -3
-18 -34 -28 -22 -6 -44 -9 -49 -6 -16 9 -34 148 -28 220 18 232 158 357 434
385 160 17 250 48 305 107 37 38 48 73 48 146 0 62 -4 72 -90 311 -37 102 -49
213 -31 294 35 166 171 295 351 331 30 6 64 13 75 15 42 8 50 2 53 -44z m-258
-2662 c0 -125 -58 -266 -137 -339 -72 -66 -141 -92 -253 -97 -109 -5 -174 9
-300 63 -309 132 -442 65 -480 -243 -6 -48 -15 -109 -20 -137 -29 -170 -133
-291 -282 -331 -64 -17 -184 -18 -262 -2 -62 12 -63 13 -36 82 8 23 11 24 47
14 56 -17 200 -13 251 6 110 40 174 136 192 286 36 285 89 399 219 462 37 18
62 22 131 21 90 -1 140 -14 330 -89 85 -33 105 -37 185 -38 110 0 164 23 229
95 50 56 81 136 92 237 l7 62 43 0 44 0 0 -52z m370 -337 l0 -48 -42 -7 c-70
-10 -162 -46 -211 -82 -105 -77 -130 -185 -81 -364 23 -88 28 -125 29 -230 0
-117 -2 -128 -27 -176 -63 -119 -202 -183 -400 -184 -182 0 -307 -34 -386
-105 -86 -77 -118 -196 -93 -340 7 -40 8 -72 3 -77 -5 -5 -25 -11 -44 -14
l-35 -6 -11 48 c-30 134 -22 247 25 344 71 145 249 240 452 240 197 0 341 41
388 112 50 75 52 172 7 350 -35 141 -39 201 -20 278 38 146 153 245 339 291
109 27 107 27 107 -30z m-1350 -935 l0 -45 -47 -6 c-108 -13 -200 -52 -250
-106 -12 -13 -34 -51 -50 -84 -24 -53 -27 -72 -27 -155 0 -78 5 -109 28 -170
87 -241 101 -322 72 -421 -43 -149 -185 -222 -483 -248 -129 -12 -188 -34
-234 -90 -54 -65 -69 -168 -47 -320 3 -21 -3 -26 -39 -37 -48 -14 -44 -19 -63
79 -11 52 -11 85 -3 141 27 190 132 293 319 316 44 5 119 14 167 20 109 13
188 42 237 86 53 48 63 79 58 177 -4 66 -14 106 -53 207 -43 112 -48 135 -53
228 -6 127 13 208 69 291 72 108 208 178 352 180 l47 1 0 -44z m1648 -247 l3
-46 -83 -6 c-117 -7 -190 -37 -254 -102 -98 -99 -112 -217 -54 -430 28 -100
33 -138 34 -230 1 -101 -1 -115 -27 -167 -65 -132 -177 -182 -443 -197 -133
-8 -151 -12 -209 -40 -115 -57 -159 -144 -160 -318 l0 -111 -43 -7 c-24 -4
-46 -4 -49 -2 -10 11 -6 206 7 257 26 110 92 207 174 255 66 38 143 55 292 64
365 23 424 125 314 540 -32 123 -26 251 16 341 37 77 71 120 129 160 81 56
206 90 310 86 l40 -1 3 -46z"/>
<path d="M3710 6065 l0 -195 1645 0 1645 0 0 195 0 195 -1645 0 -1645 0 0
-195z"/>
<path d="M3710 5595 l0 -195 1645 0 1645 0 0 195 0 195 -1645 0 -1645 0 0
-195z"/>
<path d="M3710 5130 l0 -190 1645 0 1645 0 0 190 0 190 -1645 0 -1645 0 0
-190z"/>
<path d="M1367 4879 c-71 -127 -126 -233 -123 -237 4 -3 34 8 68 24 148 70
218 165 218 298 0 71 -15 146 -28 146 -4 0 -65 -104 -135 -231z"/>
<path d="M3710 4660 l0 -190 1645 0 1645 0 0 190 0 190 -1645 0 -1645 0 0
-190z"/>
<path d="M3710 4195 l0 -195 1645 0 1645 0 0 195 0 194 -1645 1 -1645 0 0
-195z"/>
<path d="M3710 3725 l0 -195 1645 0 1645 0 0 195 0 195 -1645 0 -1645 0 0
-195z"/>
<path d="M3710 3255 l0 -195 1645 0 1645 0 0 195 0 195 -1645 0 -1645 0 0
-195z"/>
<path d="M3710 2790 l0 -190 1053 2 1052 3 138 37 c259 71 508 105 835 115
l212 6 0 109 0 108 -1645 0 -1645 0 0 -190z"/>
<path d="M3710 2320 l0 -190 560 0 561 0 72 48 c157 106 274 169 587 314 33
16 -25 17 -872 17 l-908 1 0 -190z"/>
<path d="M6610 2329 c-770 -58 -1470 -389 -2016 -950 -351 -362 -602 -792
-757 -1297 l-25 -82 1594 0 1594 0 0 1164 0 1163 -37 7 c-49 8 -218 5 -353 -5z"/>
<path d="M3710 1855 l0 -195 281 0 281 0 100 95 c91 87 218 197 308 267 l35
27 -502 1 -503 0 0 -195z"/>
<path d="M3710 1385 l0 -195 93 0 94 0 95 128 c53 70 121 157 153 195 l57 67
-246 0 -246 0 0 -195z"/>
<path d="M3711 998 c0 -78 3 -108 10 -98 24 37 119 200 119 205 0 3 -29 5 -65
5 l-65 0 1 -112z"/>
<path d="M3252 143 c-16 -21 -41 -62 -56 -90 l-26 -53 60 0 60 0 0 90 c0 50
-2 90 -4 90 -2 0 -18 -17 -34 -37z"/>
</g>
</svg>
