<svg version="1.1" id="Calque_1" xmlns="http://www.w3.org/2000/svg" x="0" y="0" viewBox="0 0 500 500" xml:space="preserve"><path d="M256.6 87.7c-87.9 0-159.4 56.3-159.4 125.4 0 16.7 4.2 32.7 11.8 47.3-16.1 14.5-25 32.8-25 52.3 0 21.6 11.2 42.3 31 57.2v35.8c0 2.6 1.5 4.9 3.8 6 .9.4 1.9.7 2.9.7 1.5 0 2.9-.5 4.1-1.5l28.5-22.8c9.6 2.4 19.5 3.6 29.4 3.6 42.9 0 81.3-22.3 94.5-54.4 9.3-1 18.6-2.6 27.8-5l48.4 38.7c1.2 1 2.7 1.5 4.1 1.5 1 0 2-.2 2.9-.7 2.3-1.1 3.8-3.4 3.8-6v-60.9c32.4-23.7 50.9-57 50.9-91.8C416 144 344.5 87.7 256.6 87.7zm-73 290.7c-9.8 0-19.6-1.3-29.2-3.9-2.1-.6-4.2-.1-5.9 1.2l-20.3 16.2v-25.4c0-2.2-1.1-4.2-2.8-5.4-17.9-12.5-28.1-30.1-28.1-48.3 0-14.9 6.6-29.1 18.7-40.7 26.2 38.6 77.4 65.2 136.5 66.4 1.1.9 2.5 1.6 4.1 1.6 1.8 0 3.6 0 5.4-.1-13.8 23-44.4 38.4-78.4 38.4zM354.7 296c-1.8 1.2-2.8 3.3-2.8 5.4V352l-40.2-32.2c-1.2-1-2.7-1.5-4.1-1.5-.6 0-1.2.1-1.8.2-16 4.4-32.5 6.6-49 6.6-80.5 0-146.1-50.3-146.1-112.1s65.4-112 145.9-112 146.1 50.3 146.1 112.1c0 31.4-17.5 61.6-48 82.9z"/><path d="M329.7 233.8H183.6c-3.7 0-6.6 3-6.6 6.6s3 6.6 6.6 6.6h146.1c3.7 0 6.6-3 6.6-6.6s-2.9-6.6-6.6-6.6zm0-53.2H183.6c-3.7 0-6.6 3-6.6 6.6 0 3.7 3 6.6 6.6 6.6h146.1c3.7 0 6.6-3 6.6-6.6 0-3.6-2.9-6.6-6.6-6.6z"/></svg>